<svg width="95" height="20" viewBox="0 0 95 20" fill="none" xmlns="http://www.w3.org/2000/svg">
<path d="M39.9624 6.81367V3.7817H32.0572V0.385888H51.3185V3.77067H43.4464V6.76957C44.4387 9.97795 47.1179 13.6825 52.5864 15.9096L51.3847 18.9416C46.6548 17.0342 43.5567 14.0022 41.7926 11.0033C40.0616 14.3219 36.9194 17.7067 32.0572 19.6472L30.8555 16.6152C36.324 14.3881 39.0032 10.3308 39.9624 6.80265V6.81367ZM56.0594 0H59.5876V20H56.0594V0Z" fill="white"/>
<path d="M63.1152 11.3892H94.1075V14.6307H80.8661V20H77.3379V14.6307H63.1152V11.3892ZM63.8209 0.0330811H93.0822V9.6913H89.554V3.41787H63.8209V0.0330811Z" fill="white"/>
<path d="M10.4177 10.9221L9.70402 10.2084L10.4177 9.49464L11.4194 8.49293L12.1332 7.77922L10.4177 6.0638L4.77062 0.416687L2.34149 2.84582L7.97608 8.49293H0V11.9238H7.97608L2.34149 17.5709L4.77062 20L10.4177 14.3529L12.1332 12.6375L11.4194 11.9238L10.4177 10.9221Z" fill="white"/>
<path d="M24.2534 8.49293H16.2774L21.9245 2.84582L19.4953 0.416687L13.8482 6.0638L12.1328 7.77922L12.8465 8.49293L13.8482 9.49464L14.5619 10.2084L13.8482 10.9221L12.8465 11.9238L12.1328 12.6375L13.8482 14.3529L19.4953 20L21.9245 17.5709L16.2774 11.9238H24.2534V8.49293Z" fill="white"/>
</svg>
