<svg width="95" height="20" viewBox="0 0 95 20" fill="none" xmlns="http://www.w3.org/2000/svg">
<g clip-path="url(#clip0_499_2340)">
<path d="M39.9619 6.81367V3.7817H32.0567V0.385888H51.318V3.77067H43.4459V6.76957C44.4382 9.97795 47.1174 13.6825 52.586 15.9096L51.3842 18.9416C46.6543 17.0342 43.5562 14.0022 41.7921 11.0033C40.0612 14.3219 36.9189 17.7067 32.0567 19.6472L30.855 16.6152C36.3236 14.3881 39.0027 10.3308 39.9619 6.80265V6.81367ZM56.059 0H59.5871V20H56.059V0Z" fill="#6849FE"/>
<path d="M63.1152 11.3892H94.1075V14.6307H80.8661V20H77.3379V14.6307H63.1152V11.3892ZM63.8209 0.0330811H93.0822V9.6913H89.554V3.41787H63.8209V0.0330811Z" fill="#6849FE"/>
<path d="M10.4177 10.9221L9.70402 10.2084L10.4177 9.49464L11.4194 8.49293L12.1332 7.77922L10.4177 6.0638L4.77062 0.416687L2.34149 2.84582L7.97608 8.49293H0V11.9238H7.97608L2.34149 17.5709L4.77062 20L10.4177 14.3529L12.1332 12.6375L11.4194 11.9238L10.4177 10.9221Z" fill="#6849FE"/>
<path d="M24.2537 8.49293H16.2776L21.9247 2.84582L19.4956 0.416687L13.8485 6.0638L12.1331 7.77922L12.8468 8.49293L13.8485 9.49464L14.5622 10.2084L13.8485 10.9221L12.8468 11.9238L12.1331 12.6375L13.8485 14.3529L19.4956 20L21.9247 17.5709L16.2776 11.9238H24.2537V8.49293Z" fill="#6849FE"/>
</g>
<defs>
<clipPath id="clip0_499_2340">
<rect width="94.1667" height="20" fill="white"/>
</clipPath>
</defs>
</svg>
