<svg width="1512" height="80" viewBox="0 0 1512 80" fill="none" xmlns="http://www.w3.org/2000/svg">
<g clip-path="url(#clip0_677_6207)">
<path d="M0 0H1512V80H0V0Z" fill="#232323"/>
<path d="M16.586 36.8465H1.92361L12.3047 26.4655L7.83921 22L-2.54186 32.3811L-5.69531 35.5345L-4.38329 36.8465L-2.54186 38.688L-1.22984 40L-2.54186 41.312L-4.38329 43.1535L-5.69531 44.4655L-2.54186 47.6189L7.83921 58L12.3047 53.5345L1.92361 43.1535H16.586V36.8465Z" fill="#6849FE"/>
<path d="M63.7368 41.312L62.4248 40L63.7368 38.688L65.5783 36.8465L66.8903 35.5345L63.7368 32.3811L53.3558 22L48.8903 26.4655L59.2483 36.8465H44.5859V43.1535H59.2483L48.8903 53.5345L53.3558 58L63.7368 47.6189L66.8903 44.4655L65.5783 43.1535L63.7368 41.312Z" fill="#6849FE"/>
<path d="M89.172 36.8465H74.5096L84.8906 26.4655L80.4252 22L70.0441 32.3811L66.8906 35.5345L68.2026 36.8465L70.0441 38.688L71.3561 40L70.0441 41.312L68.2026 43.1535L66.8906 44.4655L70.0441 47.6189L80.4252 58L84.8906 53.5345L74.5096 43.1535H89.172V36.8465Z" fill="#6849FE"/>
<path d="M136.323 41.312L135.011 40L136.323 38.688L138.164 36.8465L139.476 35.5345L136.323 32.3811L125.942 22L121.476 26.4655L131.834 36.8465H117.172V43.1535H131.834L121.476 53.5345L125.942 58L136.323 47.6189L139.476 44.4655L138.164 43.1535L136.323 41.312Z" fill="#6849FE"/>
<path d="M161.758 36.8465H147.095L157.477 26.4655L153.011 22L142.63 32.3811L139.477 35.5345L140.789 36.8465L142.63 38.688L143.942 40L142.63 41.312L140.789 43.1535L139.477 44.4655L142.63 47.6189L153.011 58L157.477 53.5345L147.095 43.1535H161.758V36.8465Z" fill="#6849FE"/>
<path d="M208.909 41.312L207.597 40L208.909 38.688L210.75 36.8465L212.062 35.5345L208.909 32.3811L198.528 22L194.062 26.4655L204.42 36.8465H189.758V43.1535H204.42L194.062 53.5345L198.528 58L208.909 47.6189L212.062 44.4655L210.75 43.1535L208.909 41.312Z" fill="#6849FE"/>
<path d="M234.344 36.8465H219.681L230.062 26.4655L225.597 22L215.216 32.3811L212.062 35.5345L213.375 36.8465L215.216 38.688L216.528 40L215.216 41.312L213.375 43.1535L212.062 44.4655L215.216 47.6189L225.597 58L230.062 53.5345L219.681 43.1535H234.344V36.8465Z" fill="#6849FE"/>
<path d="M281.495 41.312L280.183 40L281.495 38.688L283.336 36.8465L284.648 35.5345L281.495 32.3811L271.114 22L266.648 26.4655L277.006 36.8465H262.344V43.1535H277.006L266.648 53.5345L271.114 58L281.495 47.6189L284.648 44.4655L283.336 43.1535L281.495 41.312Z" fill="#6849FE"/>
<path d="M306.93 36.8465H292.267L302.648 26.4655L298.183 22L287.802 32.3811L284.648 35.5345L285.96 36.8465L287.802 38.688L289.114 40L287.802 41.312L285.96 43.1535L284.648 44.4655L287.802 47.6189L298.183 58L302.648 53.5345L292.267 43.1535H306.93V36.8465Z" fill="#6849FE"/>
<path d="M354.081 41.312L352.769 40L354.081 38.688L355.922 36.8465L357.234 35.5345L354.081 32.3811L343.7 22L339.234 26.4655L349.592 36.8465H334.93V43.1535H349.592L339.234 53.5345L343.7 58L354.081 47.6189L357.234 44.4655L355.922 43.1535L354.081 41.312Z" fill="#6849FE"/>
<path d="M379.516 36.8465H364.853L375.234 26.4655L370.769 22L360.388 32.3811L357.234 35.5345L358.546 36.8465L360.388 38.688L361.7 40L360.388 41.312L358.546 43.1535L357.234 44.4655L360.388 47.6189L370.769 58L375.234 53.5345L364.853 43.1535H379.516V36.8465Z" fill="#6849FE"/>
<path d="M426.667 41.312L425.354 40L426.667 38.688L428.508 36.8465L429.82 35.5345L426.667 32.3811L416.285 22L411.82 26.4655L422.178 36.8465H407.516V43.1535H422.178L411.82 53.5345L416.285 58L426.667 47.6189L429.82 44.4655L428.508 43.1535L426.667 41.312Z" fill="#6849FE"/>
<path d="M452.102 36.8465H437.439L447.82 26.4655L443.355 22L432.974 32.3811L429.82 35.5345L431.132 36.8465L432.974 38.688L434.286 40L432.974 41.312L431.132 43.1535L429.82 44.4655L432.974 47.6189L443.355 58L447.82 53.5345L437.439 43.1535H452.102V36.8465Z" fill="#6849FE"/>
<path d="M499.252 41.312L497.94 40L499.252 38.688L501.094 36.8465L502.406 35.5345L499.252 32.3811L488.871 22L484.406 26.4655L494.764 36.8465H480.102V43.1535H494.764L484.406 53.5345L488.871 58L499.252 47.6189L502.406 44.4655L501.094 43.1535L499.252 41.312Z" fill="#6849FE"/>
<path d="M524.688 36.8465H510.025L520.406 26.4655L515.941 22L505.56 32.3811L502.406 35.5345L503.718 36.8465L505.56 38.688L506.872 40L505.56 41.312L503.718 43.1535L502.406 44.4655L505.56 47.6189L515.941 58L520.406 53.5345L510.025 43.1535H524.688V36.8465Z" fill="#6849FE"/>
<path d="M571.838 41.312L570.526 40L571.838 38.688L573.68 36.8465L574.992 35.5345L571.838 32.3811L561.457 22L556.992 26.4655L567.35 36.8465H552.688V43.1535H567.35L556.992 53.5345L561.457 58L571.838 47.6189L574.992 44.4655L573.68 43.1535L571.838 41.312Z" fill="#6849FE"/>
<path d="M597.274 36.8465H582.611L592.992 26.4655L588.527 22L578.146 32.3811L574.992 35.5345L576.304 36.8465L578.146 38.688L579.458 40L578.146 41.312L576.304 43.1535L574.992 44.4655L578.146 47.6189L588.527 58L592.992 53.5345L582.611 43.1535H597.274V36.8465Z" fill="#6849FE"/>
<path d="M644.424 41.312L643.112 40L644.424 38.688L646.266 36.8465L647.578 35.5345L644.424 32.3811L634.043 22L629.578 26.4655L639.936 36.8465H625.273V43.1535H639.936L629.578 53.5345L634.043 58L644.424 47.6189L647.578 44.4655L646.266 43.1535L644.424 41.312Z" fill="#6849FE"/>
<path d="M669.859 36.8465H655.197L665.578 26.4655L661.113 22L650.732 32.3811L647.578 35.5345L648.89 36.8465L650.732 38.688L652.044 40L650.732 41.312L648.89 43.1535L647.578 44.4655L650.732 47.6189L661.113 58L665.578 53.5345L655.197 43.1535H669.859V36.8465Z" fill="#6849FE"/>
<path d="M717.01 41.312L715.698 40L717.01 38.688L718.852 36.8465L720.164 35.5345L717.01 32.3811L706.629 22L702.164 26.4655L712.522 36.8465H697.859V43.1535H712.522L702.164 53.5345L706.629 58L717.01 47.6189L720.164 44.4655L718.852 43.1535L717.01 41.312Z" fill="#6849FE"/>
<path d="M742.445 36.8465H727.783L738.164 26.4655L733.699 22L723.318 32.3811L720.164 35.5345L721.476 36.8465L723.318 38.688L724.63 40L723.318 41.312L721.476 43.1535L720.164 44.4655L723.318 47.6189L733.699 58L738.164 53.5345L727.783 43.1535H742.445V36.8465Z" fill="#6849FE"/>
<path d="M789.596 41.312L788.284 40L789.596 38.688L791.438 36.8465L792.75 35.5345L789.596 32.3811L779.215 22L774.75 26.4655L785.108 36.8465H770.445V43.1535H785.108L774.75 53.5345L779.215 58L789.596 47.6189L792.75 44.4655L791.438 43.1535L789.596 41.312Z" fill="#6849FE"/>
<path d="M815.031 36.8465H800.369L810.75 26.4655L806.285 22L795.903 32.3811L792.75 35.5345L794.062 36.8465L795.903 38.688L797.215 40L795.903 41.312L794.062 43.1535L792.75 44.4655L795.903 47.6189L806.285 58L810.75 53.5345L800.369 43.1535H815.031V36.8465Z" fill="#6849FE"/>
<path d="M862.182 41.312L860.87 40L862.182 38.688L864.024 36.8465L865.336 35.5345L862.182 32.3811L851.801 22L847.336 26.4655L857.694 36.8465H843.031V43.1535H857.694L847.336 53.5345L851.801 58L862.182 47.6189L865.336 44.4655L864.024 43.1535L862.182 41.312Z" fill="#6849FE"/>
<path d="M887.617 36.8465H872.955L883.336 26.4655L878.87 22L868.489 32.3811L865.336 35.5345L866.648 36.8465L868.489 38.688L869.801 40L868.489 41.312L866.648 43.1535L865.336 44.4655L868.489 47.6189L878.87 58L883.336 53.5345L872.955 43.1535H887.617V36.8465Z" fill="#6849FE"/>
<path d="M934.768 41.312L933.456 40L934.768 38.688L936.61 36.8465L937.922 35.5345L934.768 32.3811L924.387 22L919.922 26.4655L930.28 36.8465H915.617V43.1535H930.28L919.922 53.5345L924.387 58L934.768 47.6189L937.922 44.4655L936.61 43.1535L934.768 41.312Z" fill="#6849FE"/>
<path d="M960.203 36.8465H945.541L955.922 26.4655L951.456 22L941.075 32.3811L937.922 35.5345L939.234 36.8465L941.075 38.688L942.387 40L941.075 41.312L939.234 43.1535L937.922 44.4655L941.075 47.6189L951.456 58L955.922 53.5345L945.541 43.1535H960.203V36.8465Z" fill="#6849FE"/>
<path d="M1007.35 41.312L1006.04 40L1007.35 38.688L1009.2 36.8465L1010.51 35.5345L1007.35 32.3811L996.973 22L992.507 26.4655L1002.87 36.8465H988.203V43.1535H1002.87L992.507 53.5345L996.973 58L1007.35 47.6189L1010.51 44.4655L1009.2 43.1535L1007.35 41.312Z" fill="#6849FE"/>
<path d="M1032.79 36.8465H1018.13L1028.51 26.4655L1024.04 22L1013.66 32.3811L1010.51 35.5345L1011.82 36.8465L1013.66 38.688L1014.97 40L1013.66 41.312L1011.82 43.1535L1010.51 44.4655L1013.66 47.6189L1024.04 58L1028.51 53.5345L1018.13 43.1535H1032.79V36.8465Z" fill="#6849FE"/>
<path d="M1079.94 41.312L1078.63 40L1079.94 38.688L1081.78 36.8465L1083.09 35.5345L1079.94 32.3811L1069.56 22L1065.09 26.4655L1075.45 36.8465H1060.79V43.1535H1075.45L1065.09 53.5345L1069.56 58L1079.94 47.6189L1083.09 44.4655L1081.78 43.1535L1079.94 41.312Z" fill="#6849FE"/>
<path d="M1105.38 36.8465H1090.71L1101.09 26.4655L1096.63 22L1086.25 32.3811L1083.09 35.5345L1084.41 36.8465L1086.25 38.688L1087.56 40L1086.25 41.312L1084.41 43.1535L1083.09 44.4655L1086.25 47.6189L1096.63 58L1101.09 53.5345L1090.71 43.1535H1105.38V36.8465Z" fill="#6849FE"/>
<path d="M1152.53 41.312L1151.21 40L1152.53 38.688L1154.37 36.8465L1155.68 35.5345L1152.53 32.3811L1142.14 22L1137.68 26.4655L1148.04 36.8465H1133.38V43.1535H1148.04L1137.68 53.5345L1142.14 58L1152.53 47.6189L1155.68 44.4655L1154.37 43.1535L1152.53 41.312Z" fill="#6849FE"/>
<path d="M1177.96 36.8465H1163.3L1173.68 26.4655L1169.21 22L1158.83 32.3811L1155.68 35.5345L1156.99 36.8465L1158.83 38.688L1160.15 40L1158.83 41.312L1156.99 43.1535L1155.68 44.4655L1158.83 47.6189L1169.21 58L1173.68 53.5345L1163.3 43.1535H1177.96V36.8465Z" fill="#6849FE"/>
<path d="M1225.11 41.312L1223.8 40L1225.11 38.688L1226.95 36.8465L1228.27 35.5345L1225.11 32.3811L1214.73 22L1210.27 26.4655L1220.62 36.8465H1205.96V43.1535H1220.62L1210.27 53.5345L1214.73 58L1225.11 47.6189L1228.27 44.4655L1226.95 43.1535L1225.11 41.312Z" fill="#6849FE"/>
<path d="M1250.55 36.8465H1235.88L1246.27 26.4655L1241.8 22L1231.42 32.3811L1228.27 35.5345L1229.58 36.8465L1231.42 38.688L1232.73 40L1231.42 41.312L1229.58 43.1535L1228.27 44.4655L1231.42 47.6189L1241.8 58L1246.27 53.5345L1235.88 43.1535H1250.55V36.8465Z" fill="#6849FE"/>
<path d="M1297.7 41.312L1296.39 40L1297.7 38.688L1299.54 36.8465L1300.85 35.5345L1297.7 32.3811L1287.32 22L1282.85 26.4655L1293.21 36.8465H1278.55V43.1535H1293.21L1282.85 53.5345L1287.32 58L1297.7 47.6189L1300.85 44.4655L1299.54 43.1535L1297.7 41.312Z" fill="#6849FE"/>
<path d="M1323.13 36.8465H1308.47L1318.85 26.4655L1314.39 22L1304.01 32.3811L1300.85 35.5345L1302.16 36.8465L1304.01 38.688L1305.32 40L1304.01 41.312L1302.16 43.1535L1300.85 44.4655L1304.01 47.6189L1314.39 58L1318.85 53.5345L1308.47 43.1535H1323.13V36.8465Z" fill="#6849FE"/>
<path d="M1370.28 41.312L1368.97 40L1370.28 38.688L1372.13 36.8465L1373.44 35.5345L1370.28 32.3811L1359.9 22L1355.44 26.4655L1365.8 36.8465H1351.13V43.1535H1365.8L1355.44 53.5345L1359.9 58L1370.28 47.6189L1373.44 44.4655L1372.13 43.1535L1370.28 41.312Z" fill="#6849FE"/>
<path d="M1395.72 36.8465H1381.06L1391.44 26.4655L1386.97 22L1376.59 32.3811L1373.44 35.5345L1374.75 36.8465L1376.59 38.688L1377.9 40L1376.59 41.312L1374.75 43.1535L1373.44 44.4655L1376.59 47.6189L1386.97 58L1391.44 53.5345L1381.06 43.1535H1395.72V36.8465Z" fill="#6849FE"/>
<path d="M1442.87 41.312L1441.56 40L1442.87 38.688L1444.71 36.8465L1446.02 35.5345L1442.87 32.3811L1432.49 22L1428.02 26.4655L1438.38 36.8465H1423.72V43.1535H1438.38L1428.02 53.5345L1432.49 58L1442.87 47.6189L1446.02 44.4655L1444.71 43.1535L1442.87 41.312Z" fill="#6849FE"/>
<path d="M1468.3 36.8465H1453.64L1464.02 26.4655L1459.56 22L1449.18 32.3811L1446.02 35.5345L1447.34 36.8465L1449.18 38.688L1450.49 40L1449.18 41.312L1447.34 43.1535L1446.02 44.4655L1449.18 47.6189L1459.56 58L1464.02 53.5345L1453.64 43.1535H1468.3V36.8465Z" fill="#6849FE"/>
<path d="M1515.46 41.312L1514.14 40L1515.46 38.688L1517.3 36.8465L1518.61 35.5345L1515.46 32.3811L1505.07 22L1500.61 26.4655L1510.97 36.8465H1496.3V43.1535H1510.97L1500.61 53.5345L1505.07 58L1515.46 47.6189L1518.61 44.4655L1517.3 43.1535L1515.46 41.312Z" fill="#6849FE"/>
</g>
<defs>
<clipPath id="clip0_677_6207">
<rect width="1512" height="80" fill="white"/>
</clipPath>
</defs>
</svg>
