<svg width="200" height="200" viewBox="0 0 200 200" fill="none" xmlns="http://www.w3.org/2000/svg">
<g clip-path="url(#clip0_1302_21557)">
<circle cx="100" cy="100" r="100" fill="#F3F3F5"/>
<path d="M154.179 59.0911C158.755 59.0911 162.465 62.8005 162.465 67.3762V132.624C162.465 137.2 158.755 140.909 154.179 140.909H46.4688C41.8929 140.909 38.1837 137.2 38.1836 132.624L38.1836 67.3762C38.1838 62.8005 41.893 59.0911 46.4688 59.0911L154.179 59.0911ZM88.9297 67.3762C86.0699 67.3764 83.752 69.6951 83.752 72.5549C83.752 75.4148 86.0699 77.7335 88.9297 77.7336H111.715C114.575 77.7336 116.894 75.4149 116.894 72.5549C116.894 69.695 114.575 67.3762 111.715 67.3762H88.9297Z" fill="#6849FE"/>
<rect x="103.43" y="93.2683" width="41.427" height="5.17838" rx="2.07135" fill="white"/>
<rect x="103.43" y="104.661" width="41.427" height="5.17838" rx="2.07135" fill="white"/>
<rect x="103.43" y="116.053" width="41.427" height="5.17838" rx="2.07135" fill="white"/>
<mask id="mask0_1302_21557" style="mask-type:alpha" maskUnits="userSpaceOnUse" x="53" y="88" width="38" height="38">
<circle cx="71.8414" cy="107.25" r="18.6422" fill="#D9D9D9"/>
</mask>
<g mask="url(#mask0_1302_21557)">
<circle cx="71.8414" cy="107.25" r="18.6422" fill="white"/>
<circle cx="71.8424" cy="102.589" r="6.99081" fill="#D0C7FF"/>
<circle cx="71.8431" cy="129.388" r="16.3119" fill="#D0C7FF"/>
</g>
</g>
<defs>
<clipPath id="clip0_1302_21557">
<rect width="200" height="200" rx="25" fill="white"/>
</clipPath>
</defs>
</svg>
