<svg width="280" height="220" viewBox="0 0 280 220" fill="none" xmlns="http://www.w3.org/2000/svg">
<rect width="280" height="220" rx="16" fill="#232323"/>
<path d="M40 140L77.6052 88.2945C79.1107 86.2246 81.5156 85 84.0751 85H195.928C198.487 85 200.892 86.2247 202.397 88.2946L240.001 140V220H40V140Z" fill="#C2C3C9"/>
<rect x="72" y="44" width="136" height="175" rx="4" fill="white"/>
<path d="M72 48C72 45.7909 73.7909 44 76 44H204C206.209 44 208 45.7909 208 48V64H72V48Z" fill="#6849FE"/>
<path d="M240 220H40V140H115C115 153.807 126.193 165 140 165C153.807 165 165 153.807 165 140H240V220Z" fill="#D8D9DF"/>
<circle cx="140" cy="102" r="22" fill="#6849FE"/>
<path d="M131 101.615L137.857 109L149 97" stroke="white" stroke-width="4" stroke-linecap="round" stroke-linejoin="round"/>
</svg>
