<svg width="580" height="540" viewBox="0 0 580 540" fill="none" xmlns="http://www.w3.org/2000/svg">
<g clip-path="url(#clip0_659_1514)">
<rect width="580" height="540" rx="24" fill="url(#paint0_linear_659_1514)"/>
<rect width="580" height="540" fill="#232323"/>
<rect y="480" width="580" height="60" fill="#4C4C4E"/>
<path d="M79 165H501L416.977 320H163.023L79 165Z" fill="url(#paint1_linear_659_1514)"/>
<g opacity="0.3">
<rect x="354.373" y="211.643" width="72.9089" height="95.5917" rx="6.48079" transform="rotate(18.6964 354.373 211.643)" fill="white"/>
<rect x="360.465" y="223.967" width="53.4665" height="16.202" rx="3.2404" transform="rotate(18.6964 360.465 223.967)" fill="#D0C7FF"/>
<rect x="353.441" y="247.248" width="12.9616" height="12.9616" rx="3.2404" transform="rotate(18.6964 353.441 247.248)" fill="#D0C7FF"/>
<rect x="371.859" y="253.48" width="12.9616" height="12.9616" rx="3.2404" transform="rotate(18.6964 371.859 253.48)" fill="#D0C7FF"/>
<rect x="390.275" y="259.712" width="12.9616" height="12.9616" rx="3.2404" transform="rotate(18.6964 390.275 259.712)" fill="#D0C7FF"/>
<rect x="347.209" y="265.664" width="12.9616" height="12.9616" rx="3.2404" transform="rotate(18.6964 347.209 265.664)" fill="#D0C7FF"/>
<rect x="365.627" y="271.896" width="12.9616" height="12.9616" rx="3.2404" transform="rotate(18.6964 365.627 271.896)" fill="#D0C7FF"/>
<rect x="340.977" y="284.08" width="12.9616" height="12.9616" rx="3.2404" transform="rotate(18.6964 340.977 284.08)" fill="#D0C7FF"/>
<rect x="359.395" y="290.313" width="12.9616" height="12.9616" rx="3.2404" transform="rotate(18.6964 359.395 290.313)" fill="#D0C7FF"/>
<rect x="384.043" y="278.129" width="12.9616" height="32.404" rx="3.2404" transform="rotate(18.6964 384.043 278.129)" fill="#D0C7FF"/>
</g>
<g opacity="0.3">
<path d="M255.973 234.371C259.601 233.062 263.604 234.941 264.914 238.569L283.588 290.304C284.897 293.933 283.018 297.936 279.39 299.245L193.986 330.072C190.358 331.381 186.355 329.502 185.045 325.874L166.371 274.139C165.062 270.51 166.941 266.507 170.57 265.198L255.973 234.371ZM206.61 259.615C204.342 260.433 203.167 262.935 203.986 265.203C204.804 267.47 207.306 268.645 209.574 267.826L227.64 261.305C229.907 260.487 231.082 257.985 230.264 255.717C229.445 253.45 226.943 252.275 224.676 253.094L206.61 259.615Z" fill="white"/>
<rect x="225.518" y="275.995" width="34.922" height="4.36525" rx="1.7461" transform="rotate(-19.8471 225.518 275.995)" fill="#D0C7FF"/>
<rect x="228.777" y="285.028" width="34.922" height="4.36525" rx="1.7461" transform="rotate(-19.8471 228.777 285.028)" fill="#D0C7FF"/>
<rect x="232.037" y="294.061" width="34.922" height="4.36525" rx="1.7461" transform="rotate(-19.8471 232.037 294.061)" fill="#D0C7FF"/>
<mask id="mask0_659_1514" style="mask-type:alpha" maskUnits="userSpaceOnUse" x="188" y="280" width="33" height="32">
<circle cx="204.472" cy="296.121" r="15.7149" transform="rotate(-19.8471 204.472 296.121)" fill="#D9D9D9"/>
</mask>
<g mask="url(#mask0_659_1514)">
<circle cx="204.472" cy="296.121" r="15.7149" transform="rotate(-19.8471 204.472 296.121)" fill="#D0C7FF"/>
<circle cx="203.138" cy="292.426" r="5.89308" transform="rotate(-19.8471 203.138 292.426)" fill="#F0EDFF"/>
<circle cx="210.807" cy="313.674" r="13.7505" transform="rotate(-19.8471 210.807 313.674)" fill="#F0EDFF"/>
</g>
</g>
<mask id="mask1_659_1514" style="mask-type:alpha" maskUnits="userSpaceOnUse" x="135" y="320" width="310" height="160">
<path d="M445 464C445 472.837 437.837 480 429 480H151C142.163 480 135 472.837 135 464V320H445V464Z" fill="#C2C3C9"/>
</mask>
<g mask="url(#mask1_659_1514)">
<path d="M116 300H356V480H116L116 300Z" fill="url(#paint2_linear_659_1514)"/>
<path d="M356 300H462V480H356V300Z" fill="url(#paint3_linear_659_1514)"/>
</g>
<path d="M135 320H356L334.178 365.462C332.847 368.236 330.043 370 326.966 370H117.357C114.412 370 112.476 366.924 113.751 364.269L135 320Z" fill="url(#paint4_linear_659_1514)"/>
<path d="M356 320H445L466.249 364.269C467.524 366.924 465.589 370 462.643 370H382.517C380.979 370 379.577 369.118 378.911 367.731L356 320Z" fill="url(#paint5_linear_659_1514)"/>
<path d="M309.023 445.166L307.857 444L309.023 442.834L310.66 441.197L311.826 440.031L309.023 437.228L299.795 428L295.826 431.969L305.033 441.197H292V446.803H305.033L295.826 456.031L299.795 460L309.023 450.772L311.826 447.969L310.66 446.803L309.023 445.166Z" fill="#6849FE"/>
<path d="M331.632 441.197H318.599L327.826 431.969L323.857 428L314.629 437.228L311.826 440.031L312.992 441.197L314.629 442.834L315.795 444L314.629 445.166L312.992 446.803L311.826 447.969L314.629 450.772L323.857 460L327.826 456.031L318.599 446.803H331.632V441.197Z" fill="#6849FE"/>
<g opacity="0.8">
<rect x="393.4" y="65" width="4" height="28" transform="rotate(30 393.4 65)" fill="#533ACB"/>
<rect x="401.256" y="83.3923" width="4" height="28" transform="rotate(120 401.256 83.3923)" fill="#533ACB"/>
<rect x="393.688" y="91.1298" width="4" height="28" transform="rotate(165 393.688 91.1298)" fill="#533ACB"/>
<rect x="375.127" y="83.6797" width="4" height="28" transform="rotate(-105 375.127 83.6797)" fill="#533ACB"/>
</g>
<rect x="192.395" y="178" width="4" height="28" transform="rotate(30 192.395 178)" fill="#3E2C98"/>
<rect x="200.252" y="196.392" width="4" height="28" transform="rotate(120 200.252 196.392)" fill="#3E2C98"/>
<rect x="192.682" y="204.13" width="4" height="28" transform="rotate(165 192.682 204.13)" fill="#3E2C98"/>
<rect x="174.121" y="196.68" width="4" height="28" transform="rotate(-105 174.121 196.68)" fill="#3E2C98"/>
<circle cx="290.5" cy="144.5" r="74.5" fill="url(#paint6_linear_659_1514)"/>
<path d="M290.474 107C308.192 107 322.799 121.128 322.799 138.607C322.799 147.415 319.596 155.593 314.323 162.523C308.507 170.169 301.337 176.83 293.268 182.059C291.421 183.267 289.754 183.358 287.727 182.059C279.611 176.83 272.442 170.169 266.675 162.523C261.399 155.593 258.199 147.415 258.199 138.607C258.199 121.128 272.805 107 290.474 107ZM290.485 128.794C284.467 128.794 279.588 133.673 279.588 139.691C279.588 145.71 284.467 150.588 290.485 150.588C296.503 150.588 301.382 145.709 301.382 139.691C301.382 133.673 296.503 128.794 290.485 128.794Z" fill="white"/>
</g>
<defs>
<linearGradient id="paint0_linear_659_1514" x1="290" y1="0" x2="290" y2="404" gradientUnits="userSpaceOnUse">
<stop stop-color="#F3F3F5"/>
<stop offset="1" stop-color="#FBFBFC"/>
</linearGradient>
<linearGradient id="paint1_linear_659_1514" x1="290" y1="179.5" x2="290" y2="398.5" gradientUnits="userSpaceOnUse">
<stop stop-color="#6849FE" stop-opacity="0"/>
<stop offset="1" stop-color="#6849FE"/>
</linearGradient>
<linearGradient id="paint2_linear_659_1514" x1="411" y1="390" x2="57.5" y2="390" gradientUnits="userSpaceOnUse">
<stop stop-color="#F3F3F5"/>
<stop offset="1" stop-color="#D8D9DF"/>
</linearGradient>
<linearGradient id="paint3_linear_659_1514" x1="535.5" y1="390" x2="333.5" y2="390" gradientUnits="userSpaceOnUse">
<stop stop-color="#D8D9DF"/>
<stop offset="1" stop-color="#C2C3C9"/>
</linearGradient>
<linearGradient id="paint4_linear_659_1514" x1="92" y1="345" x2="356" y2="345" gradientUnits="userSpaceOnUse">
<stop stop-color="#F3F3F5"/>
<stop offset="1" stop-color="#FBFBFC"/>
</linearGradient>
<linearGradient id="paint5_linear_659_1514" x1="332" y1="345" x2="480.5" y2="345" gradientUnits="userSpaceOnUse">
<stop stop-color="#FBFBFC"/>
<stop offset="1" stop-color="#F3F3F5"/>
</linearGradient>
<linearGradient id="paint6_linear_659_1514" x1="246.5" y1="89.5" x2="336.5" y2="203.5" gradientUnits="userSpaceOnUse">
<stop stop-color="#6849FE"/>
<stop offset="1" stop-color="#8E77FF"/>
</linearGradient>
<clipPath id="clip0_659_1514">
<rect width="580" height="540" rx="24" fill="white"/>
</clipPath>
</defs>
</svg>
