<svg width="220" height="220" viewBox="0 0 220 220" fill="none" xmlns="http://www.w3.org/2000/svg">
<g clip-path="url(#clip0_916_2093)">
<circle cx="110" cy="110" r="110" fill="white"/>
<mask id="mask0_916_2093" style="mask-type:alpha" maskUnits="userSpaceOnUse" x="56" y="45" width="108" height="131">
<path d="M114.874 46.1661C111.771 44.7871 108.229 44.7871 105.126 46.1661L60.7509 65.8885C57.8619 67.1725 56 70.0375 56 73.199V104C56 137.3 79.04 168.44 110 176C140.96 168.44 164 137.3 164 104V73.199C164 70.0375 162.138 67.1725 159.249 65.8885L114.874 46.1661ZM127.401 129.393C127.804 131.114 125.939 132.474 124.424 131.563L110 122.9L95.6258 131.562C94.1126 132.474 92.2467 131.119 92.645 129.398L96.44 113L83.7672 102.057C82.4282 100.901 83.1393 98.7037 84.9018 98.5511L101.66 97.1L108.16 81.6692C108.846 80.0387 111.157 80.0374 111.845 81.6672L118.34 97.04L135.112 98.4923C136.873 98.6448 137.585 100.838 136.25 101.996L123.56 113L127.401 129.393Z" fill="#6849FE"/>
</mask>
<g mask="url(#mask0_916_2093)">
<rect x="110" y="44" width="54" height="132" fill="#6849FE"/>
<rect x="56" y="44" width="54" height="132" fill="#5E42E5"/>
</g>
</g>
<defs>
<clipPath id="clip0_916_2093">
<rect width="220" height="220" rx="24" fill="white"/>
</clipPath>
</defs>
</svg>
