<svg width="580" height="540" viewBox="0 0 580 540" fill="none" xmlns="http://www.w3.org/2000/svg">
<g clip-path="url(#clip0_916_2160)">
<rect width="580" height="540" rx="24" fill="#F3F3F5"/>
<rect x="100" y="100" width="380" height="493" rx="8" fill="white"/>
<path d="M100 108C100 103.582 103.582 100 108 100H472C476.418 100 480 103.582 480 108V128H100V108Z" fill="#6849FE"/>
<path d="M257.349 191.891H255.093V172.49H257.349V191.891ZM255.651 182.019H252.203V180.096H255.651V182.019ZM252.891 190.935H250.71V172.855H252.891V190.935ZM242.567 185.359C244.043 185.359 245.292 185.327 246.316 185.263C247.348 185.198 248.4 185.066 249.475 184.865L249.657 186.82C248.569 187.035 247.502 187.178 246.456 187.25C245.41 187.322 244.114 187.361 242.567 187.368H241.246V185.359H242.567ZM248.497 176.723H243.642V186.326H241.246V174.789H248.497V176.723ZM273.57 178.549H267.973V176.604H273.57V178.549ZM273.57 184.586H267.973V182.663H273.57V184.586ZM264.525 173.908C265.484 173.908 266.34 174.188 267.092 174.746C267.851 175.305 268.439 176.103 268.854 177.142C269.276 178.18 269.488 179.387 269.488 180.762C269.488 182.151 269.276 183.365 268.854 184.403C268.439 185.435 267.851 186.233 267.092 186.799C266.34 187.357 265.484 187.637 264.525 187.637C263.551 187.637 262.688 187.357 261.936 186.799C261.184 186.233 260.597 185.435 260.174 184.403C259.752 183.365 259.54 182.151 259.54 180.762C259.54 179.387 259.752 178.18 260.174 177.142C260.597 176.103 261.184 175.305 261.936 174.746C262.688 174.188 263.551 173.908 264.525 173.908ZM264.525 176.057C263.988 176.057 263.519 176.246 263.118 176.626C262.717 176.998 262.401 177.539 262.172 178.248C261.943 178.957 261.829 179.795 261.829 180.762C261.829 181.743 261.943 182.588 262.172 183.297C262.401 184.006 262.717 184.547 263.118 184.919C263.519 185.291 263.988 185.474 264.525 185.467C265.055 185.474 265.524 185.291 265.932 184.919C266.347 184.547 266.666 184.006 266.888 183.297C267.11 182.588 267.221 181.743 267.221 180.762C267.221 179.795 267.11 178.957 266.888 178.248C266.666 177.532 266.347 176.988 265.932 176.615C265.524 176.243 265.055 176.057 264.525 176.057ZM275.493 191.944H273.129V172.49H275.493V191.944ZM298.761 186.702H296.366V172.512H298.761V186.702ZM299.309 191.547H285.913V189.592H299.309V191.547ZM288.32 190.602H285.913V185.349H288.32V190.602ZM289.372 175.487C289.365 176.776 289.147 177.99 288.717 179.129C288.295 180.26 287.672 181.252 286.848 182.104C286.024 182.95 285.029 183.58 283.862 183.995L282.605 182.126C283.629 181.761 284.499 181.238 285.215 180.558C285.931 179.87 286.468 179.09 286.826 178.216C287.192 177.342 287.374 176.433 287.374 175.487V173.586H289.372V175.487ZM289.845 175.487C289.838 176.404 290.01 177.278 290.361 178.108C290.712 178.932 291.238 179.662 291.94 180.3C292.642 180.937 293.497 181.424 294.507 181.761L293.272 183.662C292.119 183.254 291.138 182.649 290.328 181.847C289.519 181.045 288.903 180.103 288.481 179.021C288.058 177.933 287.847 176.755 287.847 175.487V173.586H289.845V175.487ZM307.688 176.626C307.688 177.772 307.477 178.839 307.054 179.827C306.639 180.815 306.02 181.678 305.196 182.416C304.372 183.146 303.384 183.684 302.231 184.027L301.103 182.18C302.092 181.879 302.933 181.442 303.628 180.869C304.33 180.296 304.863 179.648 305.228 178.925C305.594 178.194 305.776 177.428 305.776 176.626V175.853H307.688V176.626ZM308.139 176.626C308.139 177.356 308.326 178.055 308.698 178.721C309.07 179.387 309.608 179.981 310.309 180.504C311.018 181.027 311.871 181.421 312.866 181.686L311.727 183.522C310.567 183.207 309.572 182.713 308.741 182.04C307.91 181.367 307.276 180.565 306.84 179.634C306.41 178.703 306.195 177.7 306.195 176.626V175.853H308.139V176.626ZM312.211 176.529H301.705V174.639H312.211V176.529ZM308.172 175.369H305.776V172.404H308.172V175.369ZM315.648 179.752H311.62V177.818H315.648V179.752ZM317.431 184.242H315.047V172.49H317.431V184.242ZM310.868 184.629C312.229 184.629 313.407 184.769 314.402 185.048C315.398 185.32 316.16 185.732 316.69 186.283C317.227 186.827 317.496 187.479 317.496 188.238C317.496 188.997 317.227 189.653 316.69 190.204C316.16 190.756 315.398 191.171 314.402 191.45C313.407 191.737 312.229 191.88 310.868 191.88C309.507 191.88 308.329 191.737 307.334 191.45C306.345 191.171 305.583 190.756 305.046 190.204C304.516 189.653 304.251 188.997 304.251 188.238C304.251 187.479 304.516 186.827 305.046 186.283C305.583 185.732 306.345 185.32 307.334 185.048C308.329 184.769 309.507 184.629 310.868 184.629ZM310.868 186.455C309.966 186.462 309.196 186.534 308.558 186.67C307.928 186.799 307.448 186.996 307.119 187.261C306.789 187.526 306.625 187.852 306.625 188.238C306.625 188.625 306.789 188.954 307.119 189.227C307.448 189.492 307.928 189.696 308.558 189.839C309.196 189.975 309.966 190.047 310.868 190.054C311.77 190.047 312.54 189.975 313.178 189.839C313.815 189.696 314.295 189.492 314.617 189.227C314.946 188.954 315.111 188.625 315.111 188.238C315.111 187.852 314.946 187.526 314.617 187.261C314.295 186.996 313.815 186.799 313.178 186.67C312.547 186.534 311.777 186.462 310.868 186.455ZM334.845 180.697H329.581V178.774H334.845V180.697ZM326.434 177.152C326.427 178.728 326.215 180.228 325.8 181.653C325.385 183.071 324.772 184.332 323.963 185.435C323.154 186.53 322.187 187.365 321.063 187.938L319.548 185.993C320.572 185.521 321.457 184.822 322.201 183.898C322.953 182.967 323.519 181.922 323.899 180.762C324.285 179.602 324.482 178.398 324.489 177.152V174.048H326.434V177.152ZM326.917 177.152C326.917 178.384 327.103 179.562 327.476 180.687C327.855 181.811 328.407 182.813 329.13 183.694C329.861 184.568 330.727 185.227 331.73 185.671L330.29 187.583C329.159 187.024 328.196 186.222 327.401 185.177C326.613 184.124 326.015 182.917 325.607 181.557C325.198 180.189 324.994 178.721 324.994 177.152V174.048H326.917V177.152ZM336.016 191.944H333.653V172.49H336.016V191.944Z" fill="#232323"/>
<circle cx="166" cy="247" r="14" fill="#6849FE"/>
<circle cx="166" cy="307" r="14" fill="#6849FE"/>
<circle cx="166" cy="367" r="14" fill="#6849FE"/>
<circle cx="166" cy="427" r="14" fill="#F3F3F5"/>
<circle cx="166" cy="487" r="14" fill="#F3F3F5"/>
<path d="M160 247.294L164.444 252L172 244" stroke="white" stroke-width="3" stroke-linecap="round" stroke-linejoin="round"/>
<path d="M160 307.294L164.444 312L172 304" stroke="white" stroke-width="3" stroke-linecap="round" stroke-linejoin="round"/>
<path d="M160 367.294L164.444 372L172 364" stroke="white" stroke-width="3" stroke-linecap="round" stroke-linejoin="round"/>
<rect x="200" y="237" width="200" height="20" rx="8" fill="#F3F3F5"/>
<rect x="200" y="297" width="200" height="20" rx="8" fill="#F3F3F5"/>
<rect x="200" y="357" width="200" height="20" rx="8" fill="#F3F3F5"/>
<rect x="200" y="417" width="200" height="20" rx="8" fill="#F3F3F5"/>
<rect x="200" y="477" width="200" height="20" rx="8" fill="#F3F3F5"/>
</g>
<defs>
<clipPath id="clip0_916_2160">
<rect width="580" height="540" rx="24" fill="white"/>
</clipPath>
</defs>
</svg>
