<svg width="580" height="480" viewBox="0 0 580 480" fill="none" xmlns="http://www.w3.org/2000/svg">
<rect width="580" height="480" rx="16" fill="#232323"/>
<rect x="63" y="60" width="454.369" height="360" rx="9.32039" fill="white"/>
<path d="M63 69.3204C63 64.1729 67.1729 60 72.3204 60H508.049C513.196 60 517.369 64.1729 517.369 69.3204V87.9612H63V69.3204Z" fill="#6849FE"/>
<rect x="121.25" y="152.621" width="80.3884" height="166.602" fill="#F9F9FA"/>
<path d="M269.965 128.746H268.737V116.513H269.965V128.746ZM269.051 122.431H266.764V121.373H269.051V122.431ZM267.139 128.131H265.951V116.765H267.139V128.131ZM260.695 124.711C261.655 124.711 262.463 124.691 263.119 124.65C263.774 124.604 264.441 124.516 265.119 124.384L265.221 125.455C264.538 125.596 263.863 125.69 263.194 125.735C262.529 125.776 261.696 125.801 260.695 125.81H259.883V124.711H260.695ZM264.463 119.045H261.173V125.23H259.883V117.987H264.463V119.045ZM280.458 120.247H276.813V119.175H280.458V120.247ZM280.458 124.083H276.813V123.025H280.458V124.083ZM274.587 117.434C275.183 117.434 275.716 117.609 276.185 117.96C276.658 118.31 277.024 118.811 277.284 119.462C277.548 120.113 277.68 120.868 277.68 121.728C277.68 122.593 277.548 123.351 277.284 124.001C277.024 124.648 276.658 125.146 276.185 125.496C275.716 125.847 275.183 126.022 274.587 126.022C273.982 126.022 273.443 125.847 272.969 125.496C272.501 125.146 272.134 124.648 271.87 124.001C271.611 123.351 271.481 122.593 271.481 121.728C271.481 120.868 271.611 120.113 271.87 119.462C272.134 118.811 272.501 118.31 272.969 117.96C273.443 117.609 273.982 117.434 274.587 117.434ZM274.587 118.595C274.219 118.595 273.893 118.722 273.611 118.977C273.333 119.232 273.115 119.596 272.956 120.069C272.796 120.543 272.719 121.096 272.724 121.728C272.719 122.365 272.796 122.92 272.956 123.394C273.115 123.863 273.333 124.224 273.611 124.479C273.893 124.729 274.219 124.855 274.587 124.855C274.951 124.855 275.277 124.729 275.563 124.479C275.85 124.224 276.071 123.86 276.226 123.387C276.38 122.914 276.458 122.361 276.458 121.728C276.458 121.096 276.38 120.543 276.226 120.069C276.071 119.596 275.85 119.232 275.563 118.977C275.277 118.722 274.951 118.595 274.587 118.595ZM281.475 128.78H280.185V116.513H281.475V128.78ZM296.351 125.489H295.06V116.526H296.351V125.489ZM296.719 128.507H288.357V127.435H296.719V128.507ZM289.654 127.974H288.357V124.643H289.654V127.974ZM290.412 118.417C290.407 119.218 290.266 119.976 289.988 120.69C289.715 121.4 289.319 122.022 288.8 122.554C288.282 123.082 287.67 123.48 286.964 123.749L286.275 122.732C286.903 122.5 287.447 122.163 287.906 121.721C288.366 121.275 288.716 120.768 288.957 120.199C289.203 119.63 289.328 119.036 289.333 118.417V117.209H290.412V118.417ZM290.664 118.417C290.66 119.013 290.776 119.582 291.012 120.124C291.253 120.665 291.602 121.143 292.057 121.557C292.512 121.967 293.049 122.281 293.668 122.5L292.999 123.53C292.298 123.271 291.69 122.891 291.176 122.39C290.662 121.89 290.266 121.3 289.988 120.622C289.711 119.94 289.572 119.205 289.572 118.417V117.209H290.664V118.417ZM302.065 119.134C302.065 119.839 301.926 120.504 301.648 121.127C301.375 121.746 300.979 122.283 300.46 122.738C299.942 123.194 299.329 123.533 298.624 123.756L298.01 122.759C298.619 122.563 299.15 122.281 299.6 121.912C300.055 121.539 300.403 121.114 300.645 120.636C300.89 120.158 301.013 119.657 301.013 119.134V118.622H302.065V119.134ZM302.29 119.134C302.29 119.612 302.415 120.072 302.665 120.513C302.92 120.95 303.277 121.337 303.737 121.674C304.197 122.01 304.731 122.265 305.341 122.438L304.727 123.442C304.017 123.237 303.398 122.925 302.87 122.506C302.347 122.083 301.944 121.582 301.662 121.005C301.38 120.422 301.239 119.799 301.239 119.134V118.622H302.29V119.134ZM304.959 118.97H298.351V117.939H304.959V118.97ZM302.317 118.322H301.013V116.458H302.317V118.322ZM307.259 121.005H304.584V119.946H307.259V121.005ZM308.208 123.926H306.911V116.513H308.208V123.926ZM304.106 124.213C304.957 124.213 305.692 124.299 306.311 124.472C306.934 124.645 307.412 124.902 307.744 125.244C308.081 125.585 308.249 125.992 308.249 126.466C308.249 126.939 308.081 127.346 307.744 127.688C307.412 128.029 306.934 128.288 306.311 128.466C305.692 128.643 304.957 128.732 304.106 128.732C303.255 128.732 302.52 128.643 301.901 128.466C301.282 128.288 300.806 128.029 300.474 127.688C300.142 127.346 299.976 126.939 299.976 126.466C299.976 125.992 300.142 125.585 300.474 125.244C300.806 124.902 301.282 124.645 301.901 124.472C302.52 124.299 303.255 124.213 304.106 124.213ZM304.106 125.21C303.509 125.214 302.997 125.264 302.57 125.36C302.146 125.455 301.821 125.599 301.594 125.79C301.371 125.976 301.259 126.202 301.259 126.466C301.259 126.73 301.371 126.955 301.594 127.141C301.821 127.328 302.146 127.471 302.57 127.572C302.997 127.672 303.509 127.722 304.106 127.722C304.702 127.722 305.214 127.672 305.642 127.572C306.074 127.471 306.402 127.328 306.625 127.141C306.848 126.955 306.959 126.73 306.959 126.466C306.959 126.197 306.848 125.97 306.625 125.783C306.402 125.596 306.076 125.455 305.648 125.36C305.221 125.264 304.706 125.214 304.106 125.21ZM319.377 121.633H315.998V120.588H319.377V121.633ZM313.977 119.626C313.972 120.568 313.829 121.473 313.547 122.342C313.269 123.212 312.873 123.985 312.359 124.663C311.845 125.342 311.249 125.856 310.571 126.206L309.745 125.155C310.364 124.864 310.914 124.427 311.397 123.844C311.879 123.262 312.252 122.604 312.516 121.871C312.78 121.134 312.912 120.386 312.912 119.626V117.53H313.977V119.626ZM314.23 119.626C314.23 120.376 314.359 121.107 314.619 121.817C314.883 122.522 315.249 123.15 315.718 123.701C316.191 124.252 316.733 124.663 317.342 124.937L316.564 125.988C315.882 125.642 315.285 125.146 314.776 124.5C314.271 123.853 313.877 123.112 313.595 122.274C313.317 121.437 313.178 120.554 313.178 119.626V117.53H314.23V119.626ZM320.018 128.78H318.728V116.513H320.018V128.78Z" fill="#232323"/>
<path d="M223.753 182.262H222.616V175.98H222.575L220.809 177.137V176.057L222.647 174.848H223.753V182.262ZM225.156 174.848H230.905V175.816H228.601V182.262H227.47V175.816H225.156V174.848ZM231.842 174.848H234.556C235.068 174.848 235.5 174.932 235.851 175.099C236.203 175.267 236.465 175.497 236.64 175.79C236.814 176.084 236.901 176.419 236.901 176.794C236.901 177.091 236.846 177.345 236.737 177.557C236.628 177.768 236.479 177.941 236.291 178.074C236.104 178.204 235.889 178.299 235.646 178.361V178.432C235.902 178.446 236.148 178.528 236.384 178.678C236.622 178.828 236.817 179.04 236.967 179.313C237.117 179.586 237.192 179.905 237.192 180.27C237.189 180.656 237.095 180.999 236.911 181.299C236.73 181.596 236.452 181.832 236.076 182.006C235.704 182.177 235.24 182.262 234.684 182.262H231.842V174.848ZM234.571 181.294C234.916 181.294 235.199 181.248 235.421 181.156C235.646 181.061 235.81 180.933 235.913 180.772C236.018 180.612 236.07 180.426 236.066 180.214C236.07 179.975 236.012 179.758 235.892 179.564C235.776 179.369 235.607 179.216 235.385 179.103C235.163 178.987 234.909 178.929 234.622 178.929H232.969V181.294H234.571ZM234.459 178.048C234.708 178.048 234.933 178.001 235.134 177.905C235.339 177.806 235.5 177.669 235.616 177.495C235.735 177.321 235.795 177.117 235.795 176.881C235.795 176.673 235.745 176.488 235.646 176.328C235.551 176.164 235.404 176.038 235.206 175.949C235.011 175.857 234.773 175.811 234.489 175.811H232.969V178.048H234.459ZM246.429 174.848V179.723C246.429 180.238 246.306 180.697 246.06 181.1C245.818 181.503 245.473 181.818 245.026 182.047C244.579 182.272 244.064 182.385 243.48 182.385C242.893 182.385 242.378 182.272 241.934 182.047C241.49 181.818 241.145 181.503 240.9 181.1C240.657 180.697 240.536 180.238 240.536 179.723V174.848H241.663V179.635C241.663 179.967 241.736 180.262 241.883 180.521C242.029 180.781 242.239 180.985 242.512 181.136C242.789 181.286 243.111 181.361 243.48 181.361C243.845 181.361 244.166 181.286 244.443 181.136C244.722 180.985 244.934 180.781 245.077 180.521C245.221 180.262 245.294 179.967 245.298 179.635V174.848H246.429ZM251.764 176.799C251.74 176.574 251.662 176.379 251.529 176.215C251.399 176.052 251.223 175.929 251.001 175.847C250.779 175.765 250.527 175.724 250.244 175.724C249.947 175.724 249.686 175.77 249.46 175.862C249.235 175.954 249.061 176.084 248.938 176.251C248.815 176.415 248.754 176.603 248.754 176.814C248.754 177.128 248.882 177.371 249.138 177.541C249.397 177.709 249.72 177.838 250.105 177.931L250.817 178.12C251.435 178.274 251.945 178.509 252.348 178.827C252.754 179.144 252.957 179.606 252.957 180.214C252.957 180.634 252.848 181.009 252.629 181.34C252.414 181.668 252.099 181.924 251.682 182.108C251.269 182.293 250.778 182.385 250.208 182.385C249.655 182.385 249.175 182.296 248.769 182.119C248.366 181.941 248.049 181.69 247.817 181.366C247.588 181.042 247.46 180.656 247.433 180.209H248.559C248.58 180.465 248.665 180.683 248.815 180.864C248.965 181.042 249.16 181.175 249.399 181.264C249.641 181.352 249.909 181.395 250.203 181.392C250.517 181.392 250.798 181.342 251.047 181.243C251.297 181.144 251.491 181.004 251.631 180.823C251.771 180.642 251.841 180.432 251.841 180.194C251.841 179.989 251.783 179.815 251.667 179.671C251.551 179.528 251.392 179.412 251.191 179.323C250.989 179.234 250.74 179.151 250.443 179.072L249.563 178.842C248.941 178.671 248.464 178.427 248.129 178.11C247.798 177.789 247.634 177.378 247.638 176.876C247.638 176.456 247.75 176.084 247.976 175.76C248.204 175.436 248.518 175.186 248.918 175.012C249.32 174.835 249.771 174.746 250.269 174.746C250.764 174.746 251.206 174.835 251.595 175.012C251.988 175.186 252.293 175.43 252.512 175.744C252.734 176.055 252.848 176.407 252.855 176.799H251.764ZM253.971 174.848H256.685C257.197 174.848 257.628 174.932 257.98 175.099C258.331 175.267 258.594 175.497 258.768 175.79C258.942 176.084 259.029 176.419 259.029 176.794C259.029 177.091 258.975 177.345 258.866 177.557C258.756 177.768 258.608 177.941 258.42 178.074C258.232 178.204 258.017 178.299 257.775 178.361V178.432C258.031 178.446 258.277 178.528 258.512 178.678C258.751 178.828 258.946 179.04 259.096 179.313C259.246 179.586 259.321 179.905 259.321 180.27C259.318 180.656 259.224 180.999 259.04 181.299C258.859 181.596 258.581 181.832 258.205 182.006C257.833 182.177 257.369 182.262 256.813 182.262H253.971V174.848ZM256.7 181.294C257.045 181.294 257.328 181.248 257.55 181.156C257.775 181.061 257.939 180.933 258.041 180.772C258.147 180.612 258.198 180.426 258.195 180.214C258.198 179.975 258.14 179.758 258.021 179.564C257.905 179.369 257.736 179.216 257.514 179.103C257.292 178.987 257.038 178.929 256.751 178.929H255.097V181.294H256.7ZM256.587 178.048C256.836 178.048 257.062 178.001 257.263 177.905C257.468 177.806 257.628 177.669 257.744 177.495C257.864 177.321 257.924 177.117 257.924 176.881C257.924 176.673 257.874 176.488 257.775 176.328C257.68 176.164 257.533 176.038 257.335 175.949C257.14 175.857 256.901 175.811 256.618 175.811H255.097V178.048H256.587ZM269.843 178.724H268.886V173.952H269.843V178.724ZM269.853 181.422H264.8V182.636H263.848V180.716H268.891V179.927H263.827V179.175H269.853V181.422ZM270.16 183.04H263.848V182.272H270.16V183.04ZM263.689 175.586H266.126V174.331H267.094V178.356H262.726V174.331H263.689V175.586ZM266.126 177.582V176.333H263.689V177.582H266.126ZM278.736 183.153H277.774V173.952H278.736V183.153ZM277.999 176.804H276.038V176H277.999V176.804ZM272.137 180.219C272.895 180.223 273.579 180.207 274.19 180.173C274.804 180.136 275.444 180.066 276.11 179.963L276.192 180.767C275.516 180.873 274.871 180.944 274.256 180.982C273.642 181.016 272.936 181.033 272.137 181.033H271.441V180.219H272.137ZM275.475 178.115H272.408V180.419H271.441V177.342H274.523V175.555H271.41V174.767H275.475V178.115ZM277.948 179.308H275.982V178.499H277.948V179.308ZM287.384 179.108H280.994V178.315H287.384V179.108ZM288.346 181.924H279.95V181.115H288.346V181.924ZM287.297 175.575H281.957V178.658H280.994V174.782H287.297V175.575ZM296.441 183.153H295.479V173.952H296.441V183.153ZM295.704 176.804H293.743V176H295.704V176.804ZM289.842 180.219C290.599 180.223 291.284 180.207 291.895 180.173C292.509 180.136 293.149 180.066 293.815 179.963L293.897 180.767C293.221 180.873 292.576 180.944 291.961 180.982C291.347 181.016 290.64 181.033 289.842 181.033H289.145V180.219H289.842ZM293.18 178.115H290.113V180.419H289.145V177.342H292.228V175.555H289.115V174.767H293.18V178.115ZM295.653 179.308H293.687V178.499H295.653V179.308ZM300.624 181.356H299.667V178.668H300.624V181.356ZM304.044 181.356H303.066V178.668H304.044V181.356ZM306.051 181.985H297.655V181.182H306.051V181.985ZM301.838 174.485C302.49 174.488 303.072 174.589 303.584 174.787C304.099 174.985 304.5 175.267 304.787 175.632C305.077 175.994 305.222 176.41 305.222 176.881C305.222 177.359 305.077 177.777 304.787 178.135C304.5 178.494 304.099 178.774 303.584 178.975C303.072 179.173 302.49 179.272 301.838 179.272C301.182 179.272 300.599 179.173 300.087 178.975C299.575 178.774 299.174 178.494 298.884 178.135C298.593 177.777 298.448 177.359 298.448 176.881C298.448 176.41 298.593 175.994 298.884 175.632C299.174 175.267 299.575 174.985 300.087 174.787C300.599 174.589 301.182 174.488 301.838 174.485ZM301.838 175.273C301.356 175.27 300.931 175.335 300.563 175.468C300.194 175.598 299.907 175.785 299.703 176.031C299.501 176.273 299.401 176.557 299.401 176.881C299.401 177.205 299.501 177.49 299.703 177.736C299.907 177.982 300.194 178.173 300.563 178.309C300.935 178.443 301.36 178.511 301.838 178.514C302.312 178.511 302.734 178.443 303.102 178.309C303.471 178.173 303.758 177.982 303.962 177.736C304.171 177.49 304.275 177.205 304.275 176.881C304.275 176.557 304.171 176.273 303.962 176.031C303.758 175.785 303.471 175.598 303.102 175.468C302.734 175.335 302.312 175.27 301.838 175.273Z" fill="#232323"/>
<path d="M223.461 298.287C222.996 298.287 222.577 298.2 222.201 298.026C221.826 297.848 221.527 297.606 221.305 297.299C221.083 296.988 220.966 296.636 220.952 296.244H222.042C222.063 296.452 222.138 296.64 222.268 296.807C222.397 296.971 222.566 297.102 222.775 297.201C222.986 297.297 223.215 297.345 223.461 297.345C223.758 297.345 224.022 297.278 224.254 297.145C224.486 297.012 224.669 296.829 224.802 296.597C224.935 296.362 225.002 296.101 225.002 295.814C225.002 295.513 224.933 295.246 224.797 295.01C224.664 294.775 224.474 294.588 224.229 294.452C223.986 294.315 223.713 294.247 223.409 294.247C223.102 294.24 222.838 294.292 222.616 294.401C222.397 294.507 222.227 294.672 222.104 294.897H221.044L221.525 290.771H225.724V291.738H222.462L222.206 293.807H222.273C222.433 293.66 222.636 293.541 222.882 293.448C223.131 293.356 223.394 293.31 223.671 293.31C224.131 293.31 224.546 293.416 224.915 293.628C225.287 293.836 225.577 294.129 225.785 294.508C225.993 294.887 226.097 295.312 226.097 295.783C226.097 296.264 225.985 296.694 225.759 297.073C225.534 297.452 225.222 297.749 224.823 297.964C224.423 298.179 223.969 298.287 223.461 298.287ZM229.666 298.287C229.096 298.287 228.608 298.138 228.202 297.841C227.796 297.544 227.485 297.111 227.27 296.541C227.055 295.971 226.947 295.283 226.947 294.478C226.947 293.682 227.055 293 227.27 292.43C227.485 291.856 227.796 291.419 228.202 291.119C228.611 290.819 229.1 290.668 229.666 290.668C230.229 290.668 230.716 290.819 231.125 291.119C231.535 291.419 231.847 291.856 232.062 292.43C232.277 293 232.385 293.682 232.385 294.478C232.385 295.283 232.277 295.971 232.062 296.541C231.851 297.111 231.54 297.544 231.13 297.841C230.724 298.138 230.236 298.287 229.666 298.287ZM229.666 297.319C230.001 297.319 230.287 297.21 230.526 296.991C230.769 296.773 230.951 296.452 231.074 296.029C231.2 295.606 231.262 295.089 231.258 294.478C231.258 293.87 231.195 293.353 231.069 292.926C230.943 292.5 230.76 292.175 230.521 291.953C230.282 291.732 229.997 291.621 229.666 291.621C229.332 291.621 229.045 291.732 228.806 291.953C228.57 292.175 228.388 292.5 228.258 292.926C228.128 293.353 228.064 293.87 228.064 294.478C228.064 295.089 228.128 295.606 228.258 296.029C228.388 296.452 228.57 296.773 228.806 296.991C229.042 297.21 229.328 297.319 229.666 297.319ZM233.578 300.304H232.713L233.255 297.478H234.407L233.578 300.304ZM237.971 298.287C237.401 298.287 236.913 298.138 236.507 297.841C236.1 297.544 235.79 297.111 235.575 296.541C235.36 295.971 235.252 295.283 235.252 294.478C235.252 293.682 235.36 293 235.575 292.43C235.79 291.856 236.1 291.419 236.507 291.119C236.916 290.819 237.404 290.668 237.971 290.668C238.534 290.668 239.02 290.819 239.43 291.119C239.84 291.419 240.152 291.856 240.367 292.43C240.582 293 240.69 293.682 240.69 294.478C240.69 295.283 240.582 295.971 240.367 296.541C240.155 297.111 239.845 297.544 239.435 297.841C239.029 298.138 238.541 298.287 237.971 298.287ZM237.971 297.319C238.305 297.319 238.592 297.21 238.831 296.991C239.073 296.773 239.256 296.452 239.379 296.029C239.505 295.606 239.567 295.089 239.563 294.478C239.563 293.87 239.5 293.353 239.374 292.926C239.247 292.5 239.065 292.175 238.826 291.953C238.587 291.732 238.302 291.621 237.971 291.621C237.636 291.621 237.35 291.732 237.111 291.953C236.875 292.175 236.693 292.5 236.563 292.926C236.433 293.353 236.368 293.87 236.368 294.478C236.368 295.089 236.433 295.606 236.563 296.029C236.693 296.452 236.875 296.773 237.111 296.991C237.346 297.21 237.633 297.319 237.971 297.319ZM244.233 298.287C243.663 298.287 243.175 298.138 242.768 297.841C242.362 297.544 242.052 297.111 241.837 296.541C241.622 295.971 241.514 295.283 241.514 294.478C241.514 293.682 241.622 293 241.837 292.43C242.052 291.856 242.362 291.419 242.768 291.119C243.178 290.819 243.666 290.668 244.233 290.668C244.796 290.668 245.282 290.819 245.692 291.119C246.101 291.419 246.414 291.856 246.629 292.43C246.844 293 246.951 293.682 246.951 294.478C246.951 295.283 246.844 295.971 246.629 296.541C246.417 297.111 246.107 297.544 245.697 297.841C245.291 298.138 244.803 298.287 244.233 298.287ZM244.233 297.319C244.567 297.319 244.854 297.21 245.093 296.991C245.335 296.773 245.518 296.452 245.641 296.029C245.767 295.606 245.828 295.089 245.825 294.478C245.825 293.87 245.762 293.353 245.636 292.926C245.509 292.5 245.327 292.175 245.088 291.953C244.849 291.732 244.564 291.621 244.233 291.621C243.898 291.621 243.611 291.732 243.373 291.953C243.137 292.175 242.954 292.5 242.825 292.926C242.695 293.353 242.63 293.87 242.63 294.478C242.63 295.089 242.695 295.606 242.825 296.029C242.954 296.452 243.137 296.773 243.373 296.991C243.608 297.21 243.895 297.319 244.233 297.319ZM250.494 298.287C249.924 298.287 249.436 298.138 249.03 297.841C248.624 297.544 248.313 297.111 248.098 296.541C247.883 295.971 247.776 295.283 247.776 294.478C247.776 293.682 247.883 293 248.098 292.43C248.313 291.856 248.624 291.419 249.03 291.119C249.44 290.819 249.928 290.668 250.494 290.668C251.058 290.668 251.544 290.819 251.954 291.119C252.363 291.419 252.676 291.856 252.891 292.43C253.106 293 253.213 293.682 253.213 294.478C253.213 295.283 253.106 295.971 252.891 296.541C252.679 297.111 252.368 297.544 251.959 297.841C251.553 298.138 251.064 298.287 250.494 298.287ZM250.494 297.319C250.829 297.319 251.116 297.21 251.355 296.991C251.597 296.773 251.78 296.452 251.902 296.029C252.029 295.606 252.09 295.089 252.087 294.478C252.087 293.87 252.024 293.353 251.897 292.926C251.771 292.5 251.588 292.175 251.349 291.953C251.111 291.732 250.826 291.621 250.494 291.621C250.16 291.621 249.873 291.732 249.634 291.953C249.399 292.175 249.216 292.5 249.087 292.926C248.957 293.353 248.892 293.87 248.892 294.478C248.892 295.089 248.957 295.606 249.087 296.029C249.216 296.452 249.399 296.773 249.634 296.991C249.87 297.21 250.157 297.319 250.494 297.319ZM257.401 296.556H256.423V294.519H257.401V296.556ZM261.492 296.843H260.519V289.885H261.492V296.843ZM261.712 298.87H255.082V298.067H261.712V298.87ZM256.06 298.292H255.082V296.167H256.06V298.292ZM253.812 294.078C255.038 294.068 256.12 294.047 257.058 294.017C258 293.983 258.901 293.911 259.762 293.802L259.818 294.503C258.927 294.647 257.994 294.742 257.017 294.79C256.045 294.838 255.019 294.86 253.94 294.856L253.812 294.078ZM260.76 295.967H258.666V295.281H260.76V295.967ZM256.818 290.238C257.258 290.238 257.652 290.305 258 290.438C258.349 290.571 258.618 290.761 258.809 291.006C259 291.252 259.096 291.534 259.096 291.851C259.096 292.175 259 292.457 258.809 292.696C258.618 292.935 258.349 293.121 258 293.254C257.656 293.387 257.261 293.454 256.818 293.454C256.367 293.454 255.969 293.387 255.625 293.254C255.28 293.121 255.012 292.935 254.821 292.696C254.63 292.457 254.534 292.175 254.534 291.851C254.534 291.534 254.63 291.252 254.821 291.006C255.012 290.757 255.28 290.568 255.625 290.438C255.973 290.305 256.371 290.238 256.818 290.238ZM256.818 290.965C256.548 290.962 256.311 290.996 256.106 291.068C255.901 291.139 255.741 291.244 255.625 291.38C255.512 291.517 255.457 291.674 255.461 291.851C255.457 292.032 255.512 292.189 255.625 292.322C255.741 292.455 255.901 292.559 256.106 292.634C256.311 292.706 256.548 292.742 256.818 292.742C257.08 292.742 257.313 292.706 257.514 292.634C257.719 292.559 257.879 292.455 257.995 292.322C258.111 292.189 258.169 292.032 258.169 291.851C258.169 291.674 258.111 291.517 257.995 291.38C257.879 291.244 257.719 291.139 257.514 291.068C257.313 290.996 257.08 290.962 256.818 290.965Z" fill="#232323"/>
<path d="M150.439 183.127H149.517V173.952H150.439V183.127ZM149.753 178.391H148.038V177.598H149.753V178.391ZM148.319 182.666H147.428V174.142H148.319V182.666ZM143.486 180.101C144.206 180.101 144.812 180.086 145.304 180.055C145.795 180.021 146.295 179.955 146.804 179.856L146.88 180.659C146.369 180.765 145.862 180.835 145.36 180.869C144.862 180.9 144.237 180.919 143.486 180.926H142.877V180.101H143.486ZM146.312 175.852H143.844V180.49H142.877V175.058H146.312V175.852ZM158.308 176.753H155.574V175.949H158.308V176.753ZM158.308 179.63H155.574V178.837H158.308V179.63ZM153.905 174.644C154.352 174.644 154.752 174.775 155.103 175.038C155.458 175.301 155.733 175.676 155.927 176.164C156.125 176.652 156.224 177.219 156.224 177.864C156.224 178.513 156.125 179.081 155.927 179.569C155.733 180.054 155.458 180.427 155.103 180.69C154.752 180.953 154.352 181.084 153.905 181.084C153.451 181.084 153.047 180.953 152.692 180.69C152.34 180.427 152.065 180.054 151.867 179.569C151.673 179.081 151.576 178.513 151.576 177.864C151.576 177.219 151.673 176.652 151.867 176.164C152.065 175.676 152.34 175.301 152.692 175.038C153.047 174.775 153.451 174.644 153.905 174.644ZM153.905 175.514C153.629 175.514 153.385 175.61 153.173 175.801C152.965 175.992 152.801 176.265 152.681 176.62C152.562 176.975 152.504 177.39 152.507 177.864C152.504 178.342 152.562 178.758 152.681 179.113C152.801 179.465 152.965 179.736 153.173 179.927C153.385 180.115 153.629 180.209 153.905 180.209C154.178 180.209 154.422 180.115 154.637 179.927C154.852 179.736 155.018 179.463 155.134 179.108C155.25 178.753 155.308 178.338 155.308 177.864C155.308 177.39 155.25 176.975 155.134 176.62C155.018 176.265 154.852 175.992 154.637 175.801C154.422 175.61 154.178 175.514 153.905 175.514ZM159.071 183.153H158.103V173.952H159.071V183.153ZM167.273 179.682H166.306V178.304H167.273V179.682ZM170.985 178.535H162.62V177.757H170.985V178.535ZM169.905 177.081H163.684V174.249H169.905V177.081ZM164.647 176.313H168.937V175.017H164.647V176.313ZM169.926 181.489H164.591V182.523H163.633V180.777H168.973V180.076H163.618V179.333H169.926V181.489ZM170.192 183.04H163.633V182.288H170.192V183.04ZM179.121 180.721H178.148V173.963H179.121V180.721ZM178.317 177.541H176.249V176.733H178.317V177.541ZM176.305 174.654C176.302 175.442 176.128 176.166 175.783 176.825C175.438 177.483 174.945 178.057 174.303 178.545C173.662 179.033 172.9 179.419 172.02 179.702L171.605 178.924C172.346 178.681 172.991 178.369 173.54 177.987C174.093 177.601 174.518 177.161 174.815 176.666C175.116 176.171 175.266 175.639 175.266 175.069V174.654H176.305ZM175.895 175.463H172.076V174.654H175.895V175.463ZM179.356 182.948H173.208V182.144H179.356V182.948ZM174.196 182.564H173.208V180.03H174.196V182.564Z" fill="#ADAEB2"/>
<path d="M155.587 295.374H147.221V294.58H155.587V295.374ZM151.875 294.938H150.917V293.525H151.875V294.938ZM151.875 291.175H150.917V289.87H151.875V291.175ZM151.716 291.395C151.716 291.873 151.554 292.295 151.23 292.66C150.909 293.022 150.467 293.314 149.904 293.536C149.34 293.757 148.694 293.902 147.963 293.971L147.661 293.228C148.292 293.174 148.851 293.061 149.335 292.89C149.823 292.72 150.199 292.506 150.462 292.25C150.728 291.994 150.861 291.709 150.861 291.395V291.232H151.716V291.395ZM151.936 291.395C151.933 291.709 152.064 291.994 152.33 292.25C152.597 292.506 152.972 292.72 153.457 292.89C153.941 293.061 154.499 293.174 155.131 293.228L154.834 293.971C154.103 293.902 153.457 293.757 152.894 293.536C152.33 293.314 151.887 293.022 151.562 292.66C151.242 292.295 151.081 291.873 151.081 291.395V291.232H151.936V291.395ZM154.752 291.529H148.065V290.745H154.752V291.529ZM151.399 295.973C152.064 295.973 152.632 296.032 153.103 296.152C153.578 296.271 153.94 296.445 154.189 296.674C154.438 296.899 154.564 297.176 154.568 297.503C154.564 297.834 154.438 298.114 154.189 298.343C153.94 298.572 153.578 298.744 153.103 298.86C152.632 298.98 152.064 299.039 151.399 299.039C150.73 299.039 150.158 298.98 149.683 298.86C149.209 298.744 148.845 298.572 148.593 298.343C148.34 298.114 148.214 297.834 148.214 297.503C148.214 297.176 148.34 296.899 148.593 296.674C148.845 296.445 149.209 296.271 149.683 296.152C150.158 296.032 150.73 295.973 151.399 295.973ZM151.399 296.7C150.924 296.7 150.523 296.732 150.195 296.797C149.868 296.858 149.619 296.949 149.448 297.068C149.281 297.184 149.199 297.329 149.202 297.503C149.199 297.681 149.281 297.828 149.448 297.944C149.619 298.06 149.868 298.148 150.195 298.21C150.523 298.271 150.924 298.3 151.399 298.297C151.866 298.3 152.262 298.271 152.586 298.21C152.914 298.148 153.163 298.06 153.334 297.944C153.504 297.828 153.59 297.681 153.59 297.503C153.59 297.329 153.504 297.184 153.334 297.068C153.163 296.949 152.914 296.858 152.586 296.797C152.262 296.732 151.866 296.7 151.399 296.7ZM165.571 299.044H164.603V289.875H165.571V299.044ZM166.994 294.35H165.32V293.541H166.994V294.35ZM163.169 290.848C163.166 291.762 163.023 292.619 162.739 293.418C162.456 294.216 162.002 294.952 161.377 295.624C160.756 296.297 159.956 296.874 158.976 297.355L158.434 296.597C159.273 296.177 159.973 295.689 160.533 295.133C161.096 294.577 161.516 293.955 161.792 293.269C162.072 292.583 162.214 291.832 162.217 291.017V290.848H163.169ZM162.709 291.657H158.884V290.848H162.709V291.657ZM172.14 290.489C172.14 291.271 171.967 291.976 171.623 292.604C171.278 293.232 170.778 293.771 170.122 294.222C169.47 294.669 168.691 295.015 167.783 295.261L167.409 294.488C168.187 294.276 168.854 293.996 169.411 293.648C169.967 293.297 170.39 292.892 170.68 292.435C170.971 291.974 171.116 291.476 171.116 290.94V290.489H172.14ZM171.715 291.278H167.885V290.489H171.715V291.278ZM174.925 299.034H173.952V296.51H168.709V295.742H174.925V299.034ZM174.925 295.348H173.952V289.885H174.925V295.348ZM174.141 292.261H171.735V291.472H174.141V292.261ZM174.065 294.206H171.633V293.413H174.065V294.206Z" fill="#ADAEB2"/>
<path d="M150.439 240.797H149.517V231.622H150.439V240.797ZM149.753 236.061H148.038V235.268H149.753V236.061ZM148.319 240.336H147.428V231.812H148.319V240.336ZM143.486 237.771C144.206 237.771 144.812 237.756 145.304 237.725C145.795 237.691 146.295 237.625 146.804 237.526L146.88 238.329C146.369 238.435 145.862 238.505 145.36 238.539C144.862 238.57 144.237 238.589 143.486 238.596H142.877V237.771H143.486ZM146.312 233.522H143.844V238.16H142.877V232.728H146.312V233.522ZM158.308 234.423H155.574V233.619H158.308V234.423ZM158.308 237.3H155.574V236.507H158.308V237.3ZM153.905 232.314C154.352 232.314 154.752 232.445 155.103 232.708C155.458 232.971 155.733 233.346 155.927 233.834C156.125 234.322 156.224 234.889 156.224 235.534C156.224 236.182 156.125 236.751 155.927 237.239C155.733 237.724 155.458 238.097 155.103 238.36C154.752 238.623 154.352 238.754 153.905 238.754C153.451 238.754 153.047 238.623 152.692 238.36C152.34 238.097 152.065 237.724 151.867 237.239C151.673 236.751 151.576 236.182 151.576 235.534C151.576 234.889 151.673 234.322 151.867 233.834C152.065 233.346 152.34 232.971 152.692 232.708C153.047 232.445 153.451 232.314 153.905 232.314ZM153.905 233.184C153.629 233.184 153.385 233.28 153.173 233.471C152.965 233.662 152.801 233.935 152.681 234.29C152.562 234.645 152.504 235.06 152.507 235.534C152.504 236.012 152.562 236.428 152.681 236.783C152.801 237.135 152.965 237.406 153.173 237.597C153.385 237.785 153.629 237.879 153.905 237.879C154.178 237.879 154.422 237.785 154.637 237.597C154.852 237.406 155.018 237.133 155.134 236.778C155.25 236.423 155.308 236.008 155.308 235.534C155.308 235.06 155.25 234.645 155.134 234.29C155.018 233.935 154.852 233.662 154.637 233.471C154.422 233.28 154.178 233.184 153.905 233.184ZM159.071 240.823H158.103V231.622H159.071V240.823ZM170.248 240.797H169.265V231.622H170.248V240.797ZM167.524 232.611C167.521 233.546 167.376 234.411 167.089 235.206C166.802 235.998 166.342 236.729 165.707 237.398C165.072 238.067 164.246 238.643 163.229 239.128L162.707 238.34C163.587 237.923 164.312 237.439 164.882 236.886C165.452 236.329 165.872 235.711 166.142 235.032C166.415 234.35 166.553 233.595 166.557 232.769V232.611H167.524ZM166.976 233.389H163.152V232.611H166.976V233.389ZM178.681 238.294H177.698V231.622H178.681V238.294ZM180.017 235.155H178.384V234.346H180.017V235.155ZM176.192 232.324C176.192 233.116 176.02 233.836 175.675 234.484C175.334 235.133 174.839 235.694 174.191 236.169C173.542 236.643 172.769 237.017 171.871 237.29L171.457 236.512C172.228 236.28 172.89 235.979 173.443 235.611C173.996 235.239 174.419 234.812 174.713 234.331C175.006 233.85 175.153 233.332 175.153 232.779V232.324H176.192ZM175.675 233.133H171.846V232.324H175.675V233.133ZM179.065 240.618H172.859V239.814H179.065V240.618ZM173.832 240.147H172.859V237.618H173.832V240.147Z" fill="#ADAEB2"/>
<rect x="229.668" y="347.184" width="120.97" height="30.8738" rx="4.66019" fill="#6849FE"/>
<path d="M251.079 366.422H250.123V358.203H251.079V366.422ZM250.36 362.24H248.899V361.425H250.36V362.24ZM249.19 366.017H248.266V358.358H249.19V366.017ZM244.817 363.655C245.442 363.655 245.971 363.642 246.405 363.614C246.842 363.587 247.288 363.531 247.743 363.446L247.82 364.274C247.359 364.365 246.907 364.426 246.464 364.456C246.021 364.487 245.472 364.503 244.817 364.506H244.257V363.655H244.817ZM247.329 359.996H245.272V364.065H244.257V359.177H247.329V359.996ZM257.951 360.77H255.58V359.946H257.951V360.77ZM257.951 363.328H255.58V362.513H257.951V363.328ZM254.119 358.804C254.526 358.804 254.888 358.922 255.207 359.159C255.528 359.396 255.777 359.734 255.953 360.174C256.132 360.614 256.222 361.125 256.222 361.708C256.222 362.296 256.132 362.81 255.953 363.25C255.777 363.687 255.528 364.025 255.207 364.265C254.888 364.502 254.526 364.62 254.119 364.62C253.706 364.62 253.341 364.502 253.022 364.265C252.704 364.025 252.455 363.687 252.276 363.25C252.097 362.81 252.007 362.296 252.007 361.708C252.007 361.125 252.097 360.614 252.276 360.174C252.455 359.734 252.704 359.396 253.022 359.159C253.341 358.922 253.706 358.804 254.119 358.804ZM254.119 359.714C253.891 359.714 253.693 359.795 253.523 359.955C253.353 360.113 253.219 360.342 253.122 360.643C253.025 360.943 252.977 361.298 252.977 361.708C252.977 362.123 253.025 362.481 253.122 362.782C253.219 363.082 253.353 363.311 253.523 363.469C253.693 363.626 253.891 363.704 254.119 363.701C254.344 363.704 254.542 363.626 254.715 363.469C254.891 363.311 255.026 363.082 255.12 362.782C255.214 362.481 255.261 362.123 255.261 361.708C255.261 361.298 255.214 360.943 255.12 360.643C255.026 360.339 254.891 360.109 254.715 359.951C254.542 359.793 254.344 359.714 254.119 359.714ZM258.766 366.445H257.764V358.203H258.766V366.445ZM268.173 361.68H265.943V360.866H268.173V361.68ZM264.609 360.178C264.606 360.846 264.517 361.481 264.341 362.085C264.165 362.686 263.905 363.22 263.563 363.687C263.22 364.151 262.81 364.505 262.334 364.748L261.692 363.924C262.126 363.724 262.501 363.428 262.816 363.036C263.135 362.642 263.375 362.199 263.535 361.708C263.699 361.216 263.783 360.706 263.786 360.178V358.863H264.609V360.178ZM264.814 360.178C264.814 360.7 264.893 361.199 265.051 361.676C265.212 362.152 265.445 362.577 265.752 362.95C266.061 363.32 266.428 363.599 266.853 363.787L266.243 364.597C265.764 364.361 265.356 364.021 265.019 363.578C264.685 363.132 264.432 362.621 264.259 362.044C264.086 361.465 264 360.843 264 360.178V358.863H264.814V360.178ZM268.669 366.445H267.668V358.203H268.669V366.445ZM276.488 366.445H275.464V358.203H276.488V366.445ZM271.086 360.934H273.083V358.877H274.08V364.502H270.08V358.877H271.086V360.934ZM273.083 363.674V361.726H271.086V363.674H273.083ZM281.576 359.327C281.579 359.916 281.433 360.467 281.139 360.979C280.848 361.489 280.444 361.923 279.928 362.281C279.413 362.639 278.83 362.886 278.181 363.023L277.744 362.181C278.296 362.081 278.797 361.885 279.246 361.594C279.695 361.302 280.047 360.958 280.301 360.561C280.556 360.163 280.685 359.752 280.688 359.327V358.727H281.576V359.327ZM281.758 359.327C281.758 359.755 281.885 360.168 282.14 360.565C282.398 360.963 282.753 361.307 283.205 361.598C283.657 361.89 284.164 362.084 284.725 362.181L284.274 363.023C283.628 362.889 283.047 362.643 282.531 362.285C282.019 361.927 281.617 361.494 281.325 360.984C281.034 360.474 280.89 359.922 280.893 359.327V358.727H281.758V359.327ZM285.035 365.38H277.516V364.547H285.035V365.38ZM294.26 366.445H293.236V358.203H294.26V366.445ZM289.827 358.804C290.24 358.804 290.608 358.922 290.933 359.159C291.258 359.396 291.511 359.735 291.693 360.178C291.875 360.618 291.966 361.128 291.966 361.708C291.966 362.293 291.875 362.806 291.693 363.246C291.511 363.686 291.258 364.025 290.933 364.265C290.608 364.502 290.24 364.62 289.827 364.62C289.411 364.62 289.041 364.502 288.717 364.265C288.392 364.025 288.137 363.686 287.952 363.246C287.767 362.806 287.676 362.293 287.679 361.708C287.676 361.128 287.767 360.618 287.952 360.178C288.137 359.735 288.392 359.396 288.717 359.159C289.041 358.922 289.411 358.804 289.827 358.804ZM289.827 359.714C289.593 359.714 289.387 359.793 289.208 359.951C289.032 360.109 288.896 360.339 288.799 360.643C288.704 360.943 288.657 361.298 288.657 361.708C288.657 362.123 288.704 362.481 288.799 362.782C288.896 363.082 289.032 363.311 289.208 363.469C289.387 363.626 289.593 363.704 289.827 363.701C290.058 363.704 290.261 363.626 290.437 363.469C290.613 363.311 290.749 363.082 290.846 362.782C290.944 362.481 290.992 362.123 290.992 361.708C290.992 361.295 290.944 360.94 290.846 360.643C290.749 360.342 290.613 360.113 290.437 359.955C290.261 359.795 290.058 359.714 289.827 359.714ZM298.046 362.495H297.031V360.975H298.046V362.495ZM301.009 362.495H299.999V360.975H301.009V362.495ZM302.779 362.977H295.288V362.158H302.779V362.977ZM299.025 363.469C299.613 363.469 300.122 363.525 300.549 363.637C300.98 363.749 301.308 363.916 301.532 364.138C301.76 364.359 301.874 364.626 301.874 364.939C301.874 365.254 301.76 365.521 301.532 365.74C301.308 365.958 300.982 366.125 300.554 366.24C300.126 366.356 299.616 366.413 299.025 366.413C298.424 366.413 297.91 366.356 297.482 366.24C297.054 366.125 296.726 365.958 296.499 365.74C296.271 365.521 296.158 365.254 296.158 364.939C296.158 364.626 296.271 364.359 296.499 364.138C296.726 363.916 297.054 363.749 297.482 363.637C297.91 363.525 298.424 363.469 299.025 363.469ZM299.025 364.233C298.624 364.236 298.287 364.264 298.014 364.315C297.744 364.367 297.538 364.446 297.395 364.552C297.256 364.658 297.188 364.787 297.191 364.939C297.188 365.093 297.256 365.224 297.395 365.33C297.538 365.433 297.744 365.514 298.014 365.571C298.287 365.626 298.624 365.653 299.025 365.653C299.416 365.653 299.748 365.626 300.021 365.571C300.294 365.514 300.502 365.433 300.645 365.33C300.787 365.224 300.859 365.093 300.859 364.939C300.859 364.787 300.787 364.658 300.645 364.552C300.502 364.446 300.294 364.367 300.021 364.315C299.751 364.264 299.419 364.236 299.025 364.233ZM299.034 358.335C299.632 358.335 300.153 358.399 300.599 358.526C301.045 358.651 301.388 358.831 301.628 359.068C301.868 359.302 301.987 359.579 301.987 359.901C301.987 360.222 301.868 360.5 301.628 360.734C301.388 360.964 301.045 361.14 300.599 361.262C300.156 361.383 299.635 361.444 299.034 361.444C298.427 361.444 297.901 361.383 297.455 361.262C297.009 361.14 296.664 360.964 296.422 360.734C296.182 360.5 296.062 360.222 296.062 359.901C296.062 359.579 296.182 359.302 296.422 359.068C296.664 358.831 297.009 358.651 297.455 358.526C297.901 358.399 298.427 358.335 299.034 358.335ZM299.034 359.118C298.624 359.118 298.275 359.15 297.987 359.214C297.702 359.274 297.485 359.364 297.336 359.482C297.188 359.597 297.113 359.737 297.113 359.901C297.113 360.068 297.188 360.209 297.336 360.324C297.485 360.439 297.702 360.527 297.987 360.588C298.275 360.646 298.624 360.674 299.034 360.674C299.437 360.674 299.782 360.646 300.067 360.588C300.352 360.527 300.571 360.439 300.722 360.324C300.874 360.209 300.95 360.068 300.95 359.901C300.95 359.737 300.874 359.597 300.722 359.482C300.571 359.364 300.351 359.274 300.062 359.214C299.777 359.15 299.434 359.118 299.034 359.118ZM312.696 362.95H305.192V362.149H312.696V362.95ZM309.433 362.472H308.446V360.879H309.433V362.472ZM311.832 361.362H306.116V360.556H311.832V361.362ZM311.781 359.368H307.112V361.075H306.116V358.576H311.781V359.368ZM308.928 363.423C309.52 363.423 310.028 363.482 310.453 363.601C310.877 363.716 311.203 363.887 311.431 364.115C311.662 364.339 311.777 364.611 311.777 364.93C311.777 365.248 311.663 365.518 311.436 365.74C311.211 365.961 310.885 366.131 310.457 366.249C310.029 366.371 309.52 366.433 308.928 366.436C308.33 366.433 307.818 366.371 307.39 366.249C306.962 366.131 306.633 365.96 306.402 365.735C306.175 365.514 306.061 365.245 306.061 364.93C306.061 364.611 306.175 364.339 306.402 364.115C306.633 363.887 306.962 363.716 307.39 363.601C307.818 363.482 308.33 363.423 308.928 363.423ZM308.928 364.201C308.528 364.201 308.191 364.229 307.918 364.283C307.648 364.338 307.441 364.42 307.299 364.529C307.159 364.638 307.091 364.772 307.094 364.93C307.091 365.087 307.159 365.221 307.299 365.33C307.441 365.436 307.648 365.517 307.918 365.571C308.191 365.626 308.528 365.653 308.928 365.653C309.322 365.653 309.655 365.626 309.925 365.571C310.198 365.517 310.406 365.436 310.548 365.33C310.691 365.221 310.762 365.087 310.762 364.93C310.762 364.775 310.691 364.643 310.548 364.534C310.406 364.421 310.198 364.338 309.925 364.283C309.652 364.229 309.319 364.201 308.928 364.201ZM315.727 358.768C316.155 358.768 316.54 358.853 316.883 359.022C317.229 359.192 317.499 359.429 317.693 359.732C317.888 360.036 317.985 360.379 317.985 360.761C317.985 361.146 317.888 361.491 317.693 361.794C317.499 362.094 317.229 362.329 316.883 362.499C316.54 362.669 316.155 362.754 315.727 362.754C315.3 362.754 314.913 362.669 314.567 362.499C314.224 362.329 313.954 362.094 313.757 361.794C313.563 361.491 313.466 361.146 313.466 360.761C313.466 360.379 313.563 360.036 313.757 359.732C313.954 359.429 314.224 359.192 314.567 359.022C314.913 358.853 315.3 358.768 315.727 358.768ZM315.727 359.646C315.488 359.649 315.272 359.696 315.081 359.787C314.89 359.875 314.74 360.004 314.631 360.174C314.521 360.344 314.467 360.539 314.467 360.761C314.467 360.985 314.521 361.181 314.631 361.348C314.74 361.515 314.89 361.644 315.081 361.735C315.272 361.826 315.488 361.873 315.727 361.876C315.97 361.873 316.187 361.826 316.378 361.735C316.572 361.644 316.722 361.515 316.829 361.348C316.938 361.181 316.993 360.985 316.993 360.761C316.993 360.539 316.938 360.344 316.829 360.174C316.722 360.004 316.572 359.875 316.378 359.787C316.187 359.696 315.97 359.649 315.727 359.646ZM319.905 366.445H318.904V358.203H319.905V366.445ZM313.092 363.892C314.091 363.892 315.03 363.875 315.909 363.842C316.789 363.806 317.622 363.731 318.408 363.619L318.485 364.356C317.918 364.462 317.328 364.543 316.715 364.597C316.102 364.649 315.526 364.682 314.986 364.697C314.449 364.713 313.86 364.72 313.22 364.72L313.092 363.892ZM327.369 366.422H326.368V358.203H327.369V366.422ZM328.639 362.317H327.141V361.485H328.639V362.317ZM325.731 360.278H320.884V359.464H325.731V360.278ZM323.332 360.811C323.724 360.811 324.077 360.894 324.393 361.061C324.708 361.225 324.955 361.454 325.134 361.748C325.313 362.043 325.404 362.376 325.407 362.75C325.404 363.123 325.313 363.457 325.134 363.751C324.955 364.045 324.708 364.274 324.393 364.438C324.077 364.602 323.724 364.684 323.332 364.684C322.938 364.684 322.583 364.602 322.267 364.438C321.952 364.274 321.704 364.045 321.525 363.751C321.349 363.457 321.262 363.123 321.262 362.75C321.262 362.376 321.349 362.043 321.525 361.748C321.704 361.454 321.952 361.225 322.267 361.061C322.583 360.894 322.938 360.811 323.332 360.811ZM323.332 361.644C323.12 361.644 322.93 361.689 322.763 361.78C322.596 361.871 322.464 362.002 322.367 362.172C322.273 362.339 322.226 362.531 322.226 362.75C322.226 362.971 322.273 363.165 322.367 363.332C322.464 363.496 322.596 363.623 322.763 363.714C322.93 363.806 323.12 363.849 323.332 363.846C323.545 363.849 323.734 363.806 323.901 363.714C324.071 363.623 324.201 363.496 324.292 363.332C324.387 363.165 324.435 362.971 324.438 362.75C324.435 362.531 324.387 362.339 324.292 362.172C324.201 362.002 324.071 361.871 323.901 361.78C323.734 361.689 323.545 361.644 323.332 361.644ZM323.833 359.792H322.827V358.322H323.833V359.792ZM335.666 366.422H334.642V358.203H335.666V366.422ZM333.213 359.077C333.209 359.936 333.085 360.723 332.839 361.439C332.594 362.152 332.187 362.809 331.62 363.41C331.055 364.01 330.309 364.531 329.381 364.971L328.844 364.16C329.635 363.784 330.279 363.356 330.773 362.877C331.268 362.395 331.63 361.856 331.861 361.262C332.091 360.667 332.207 359.996 332.207 359.25V359.077H333.213ZM332.662 359.878H329.262V359.077H332.662V359.878Z" fill="white"/>
<path d="M497.69 69.7932C497.462 69.5657 497.093 69.5657 496.866 69.7932C496.638 70.0207 496.638 70.3895 496.866 70.617L500.23 73.9809L496.866 77.3448C496.638 77.5723 496.638 77.9411 496.866 78.1686C497.093 78.3961 497.462 78.3961 497.69 78.1686L501.054 74.8047L504.418 78.1686C504.645 78.3961 505.014 78.3961 505.241 78.1686C505.469 77.9411 505.469 77.5723 505.241 77.3448L501.877 73.9809L505.241 70.617C505.469 70.3895 505.469 70.0207 505.241 69.7932C505.014 69.5657 504.645 69.5657 504.418 69.7932L501.054 73.1571L497.69 69.7932Z" fill="white"/>
<path d="M327.465 222.233H364.455V249.612H327.465C325.052 249.612 323.096 247.656 323.096 245.243V226.602C323.096 224.189 325.052 222.233 327.465 222.233Z" fill="#F0EDFF" stroke="#6849FE" stroke-width="0.582524"/>
<path d="M364.742 221.942H402.024C404.597 221.942 406.684 224.028 406.684 226.602V245.243C406.684 247.817 404.597 249.903 402.024 249.903H364.742V221.942Z" fill="#F3F3F5"/>
<path d="M342.525 231.94C342.982 231.94 343.394 232.027 343.759 232.201C344.127 232.375 344.414 232.619 344.619 232.933C344.824 233.247 344.926 233.6 344.926 233.993C344.926 234.389 344.824 234.742 344.619 235.053C344.414 235.363 344.127 235.606 343.759 235.78C343.394 235.954 342.982 236.041 342.525 236.041C342.064 236.041 341.649 235.954 341.281 235.78C340.916 235.606 340.629 235.363 340.421 235.053C340.216 234.742 340.113 234.389 340.113 233.993C340.113 233.6 340.216 233.247 340.421 232.933C340.629 232.619 340.917 232.375 341.286 232.201C341.655 232.027 342.068 231.94 342.525 231.94ZM342.525 232.749C342.245 232.749 341.992 232.8 341.767 232.902C341.545 233.005 341.371 233.152 341.245 233.343C341.122 233.53 341.062 233.747 341.066 233.993C341.062 234.242 341.122 234.462 341.245 234.653C341.371 234.841 341.545 234.988 341.767 235.094C341.992 235.199 342.245 235.252 342.525 235.252C342.805 235.252 343.056 235.199 343.278 235.094C343.499 234.988 343.673 234.841 343.8 234.653C343.926 234.462 343.989 234.242 343.989 233.993C343.989 233.747 343.926 233.53 343.8 233.343C343.673 233.152 343.499 233.005 343.278 232.902C343.056 232.8 342.805 232.749 342.525 232.749ZM347.532 236.302H346.564V231.622H347.532V236.302ZM347.532 239.026H342.479V240.326H341.527V238.309H346.57V237.49H341.506V236.722H347.532V239.026ZM347.839 240.685H341.527V239.911H347.839V240.685Z" fill="#232323"/>
<path d="M380.552 233.957C380.552 234.681 380.441 235.372 380.219 236.031C379.997 236.689 379.685 237.271 379.282 237.776C378.88 238.282 378.415 238.664 377.89 238.923L377.28 238.109C377.758 237.898 378.183 237.577 378.555 237.147C378.931 236.717 379.223 236.223 379.431 235.667C379.639 235.111 379.745 234.541 379.748 233.957V232.385H380.552V233.957ZM380.726 233.957C380.723 234.513 380.825 235.058 381.033 235.59C381.241 236.123 381.53 236.599 381.899 237.019C382.267 237.435 382.685 237.746 383.153 237.951L382.569 238.724C382.047 238.474 381.584 238.109 381.182 237.628C380.782 237.143 380.47 236.585 380.245 235.954C380.023 235.319 379.914 234.653 379.917 233.957V232.385H380.726V233.957ZM384.96 240.823H383.982V231.622H384.96V240.823ZM393.418 238.294H392.435V231.622H393.418V238.294ZM394.755 235.155H393.121V234.346H394.755V235.155ZM390.93 232.324C390.93 233.116 390.758 233.836 390.413 234.484C390.072 235.133 389.577 235.694 388.928 236.169C388.28 236.643 387.507 237.017 386.609 237.29L386.194 236.512C386.966 236.28 387.628 235.979 388.181 235.611C388.734 235.239 389.157 234.812 389.45 234.331C389.744 233.85 389.891 233.332 389.891 232.779V232.324H390.93ZM390.413 233.133H386.583V232.324H390.413V233.133ZM393.802 240.618H387.597V239.814H393.802V240.618ZM388.57 240.147H387.597V237.618H388.57V240.147Z" fill="#ADAEB2"/>
<line x1="121.25" y1="152.33" x2="459.114" y2="152.33" stroke="#D8D9DF" stroke-width="0.582524"/>
<line x1="121.25" y1="203.01" x2="459.114" y2="203.01" stroke="#F3F3F5" stroke-width="0.582524"/>
<line x1="121.25" y1="268.252" x2="459.114" y2="268.252" stroke="#F3F3F5" stroke-width="0.582524"/>
<line x1="121.25" y1="318.932" x2="459.114" y2="318.932" stroke="#D8D9DF" stroke-width="0.582524"/>
<rect x="220.281" y="221.942" width="93.2039" height="27.9612" rx="4.66019" fill="#F3F3F5"/>
<path d="M229.215 235.922C229.215 235.654 229.432 235.437 229.7 235.437H236.496C236.765 235.437 236.982 235.654 236.982 235.922C236.982 236.19 236.765 236.408 236.496 236.408H229.7C229.432 236.408 229.215 236.19 229.215 235.922Z" fill="#ADAEB2"/>
<path d="M266.887 240.025C266.423 240.025 266.003 239.938 265.627 239.764C265.252 239.586 264.953 239.344 264.731 239.037C264.509 238.726 264.392 238.374 264.378 237.982H265.469C265.489 238.19 265.564 238.378 265.694 238.545C265.823 238.709 265.992 238.84 266.201 238.939C266.412 239.035 266.641 239.083 266.887 239.083C267.184 239.083 267.448 239.016 267.68 238.883C267.912 238.75 268.095 238.567 268.228 238.335C268.361 238.1 268.428 237.839 268.428 237.552C268.428 237.252 268.36 236.984 268.223 236.748C268.09 236.513 267.9 236.327 267.655 236.19C267.412 236.053 267.139 235.985 266.836 235.985C266.528 235.978 266.264 236.03 266.042 236.139C265.823 236.245 265.653 236.41 265.53 236.635H264.47L264.951 232.509H269.15V233.476H265.888L265.632 235.545H265.699C265.859 235.398 266.062 235.279 266.308 235.187C266.557 235.094 266.82 235.048 267.097 235.048C267.557 235.048 267.972 235.154 268.341 235.366C268.713 235.574 269.003 235.867 269.211 236.246C269.419 236.625 269.523 237.05 269.523 237.521C269.523 238.002 269.411 238.432 269.186 238.811C268.96 239.19 268.648 239.487 268.249 239.702C267.849 239.917 267.395 240.025 266.887 240.025Z" fill="#232323"/>
<path d="M300.684 232.039C300.416 232.039 300.199 232.256 300.199 232.524V235.437H297.286C297.018 235.437 296.801 235.654 296.801 235.922C296.801 236.19 297.018 236.408 297.286 236.408H300.199V239.32C300.199 239.588 300.416 239.806 300.684 239.806C300.952 239.806 301.17 239.588 301.17 239.32V236.408H304.082C304.35 236.408 304.568 236.19 304.568 235.922C304.568 235.654 304.35 235.437 304.082 235.437H301.17V232.524C301.17 232.256 300.952 232.039 300.684 232.039Z" fill="#ADAEB2"/>
</svg>
