<svg width="146" height="220" viewBox="0 0 146 220" fill="none" xmlns="http://www.w3.org/2000/svg">
<g clip-path="url(#clip0_916_2121)">
<circle cx="110" cy="110" r="110" fill="white"/>
<path d="M110.208 64C115.329 64 120.241 66.0345 123.862 69.6559C127.484 73.2773 129.518 78.1889 129.518 83.3103C129.518 88.4318 127.484 93.3434 123.862 96.9648C120.241 100.586 115.329 102.621 110.208 102.621C105.086 102.621 100.175 100.586 96.5533 96.9648C92.9319 93.3434 90.8974 88.4318 90.8974 83.3103C90.8974 78.1889 92.9319 73.2773 96.5533 69.6559C100.175 66.0345 105.086 64 110.208 64ZM74.3457 134.345C74.3457 122.924 90.4009 113.655 110.208 113.655C130.015 113.655 146.07 122.924 146.07 134.345V144H74.3457V134.345Z" fill="#6849FE"/>
<path d="M71.5862 77.7932C74.6759 77.7932 77.5448 78.6208 80.0276 80.1105C79.2 88.0001 81.5172 95.8346 86.2621 101.959C83.5034 107.255 77.9862 110.897 71.5862 110.897C67.1964 110.897 62.9864 109.153 59.8824 106.049C56.7783 102.945 55.0345 98.7347 55.0345 94.3449C55.0345 89.9551 56.7783 85.7451 59.8824 82.6411C62.9864 79.537 67.1964 77.7932 71.5862 77.7932ZM44 144V135.724C44 128.055 54.4276 121.6 68.5517 119.724C65.2966 123.476 63.3103 128.662 63.3103 134.345V144H44Z" fill="#D0C7FF"/>
<path d="M148.828 77.7932C153.218 77.7932 157.428 79.537 160.532 82.6411C163.636 85.7451 165.38 89.9551 165.38 94.3449C165.38 98.7347 163.636 102.945 160.532 106.049C157.428 109.153 153.218 110.897 148.828 110.897C142.428 110.897 136.911 107.255 134.152 101.959C138.961 95.7476 141.193 87.9238 140.387 80.1105C142.87 78.6208 145.739 77.7932 148.828 77.7932ZM176.414 144H157.104V134.345C157.104 128.662 155.118 123.476 151.863 119.724C165.987 121.6 176.414 128.055 176.414 135.724V144Z" fill="#D0C7FF"/>
</g>
<defs>
<clipPath id="clip0_916_2121">
<rect width="146" height="220" rx="24" fill="white"/>
</clipPath>
</defs>
</svg>
