<svg width="64" height="32" viewBox="0 0 64 32" fill="none" xmlns="http://www.w3.org/2000/svg">
<path d="M33.7788 22.0034V18.4567H63.9257V22.0034H51.2167V26.4737H47.5222V22.0034H33.7788ZM34.5177 9.10967V5.56299H62.8543V16.8311H59.1598V9.10967H34.5177Z" fill="#8769FF"/>
<path d="M26.3785 26.4737V5.52612H30.073V26.4737H26.3785ZM0 22.9271C5.72642 20.5995 8.53422 16.3509 9.53172 12.6564V9.4792H1.25612V5.93251H21.4279V9.4792H13.1892V12.6195C14.2237 15.9815 17.0315 19.8607 22.7579 22.1882L21.5018 25.3654C16.5512 23.3704 13.3001 20.1932 11.4528 17.0529C9.64256 20.5257 6.35448 24.0723 1.25612 26.1043L0 22.9271Z" fill="#8769FF"/>
</svg>
