<svg width="1512" height="352" viewBox="0 0 1512 352" fill="none" xmlns="http://www.w3.org/2000/svg">
<g clip-path="url(#clip0_1631_3116)">
<rect width="1512" height="352" fill="url(#paint0_linear_1631_3116)"/>
<path opacity="0.05" d="M1870.02 484.491L-372.981 27.9016L-357.023 -50.4907L1885.98 406.099L1870.02 484.491ZM-331.627 -18.3124L-323.548 -6.07414L-337.916 -8.99881L-339.174 -2.81891L-324.806 0.10576L-337.026 8.212L-333.542 13.4787L-321.298 5.37731L-317.579 2.91636L-321.065 -2.35052L-315.798 -5.83579L-318.259 -9.55474L-326.361 -21.7979L-331.627 -18.3124ZM-315.798 -5.83579L-312.312 -0.568915L-317.579 2.91636L-307.017 18.8782L-301.75 15.393L-309.851 3.15003L-295.484 6.0747L-294.226 -0.105202L-308.593 -3.02987L-296.35 -11.1314L-299.836 -16.3983L-315.798 -5.83579ZM-260.5 -3.83359L-252.421 8.40465L-266.789 5.47999L-268.047 11.6599L-253.679 14.5846L-265.899 22.6908L-262.415 27.9575L-250.171 19.8561L-246.452 17.3952L-249.937 12.1283L-244.67 8.643L-247.131 4.92406L-255.234 -7.31906L-260.5 -3.83359ZM-244.67 8.643L-241.185 13.9099L-246.452 17.3952L-235.889 33.357L-230.623 29.8717L-238.724 17.6288L-224.357 20.5535L-223.099 14.3736L-237.466 11.4489L-225.223 3.34736L-228.709 -1.91951L-244.67 8.643ZM-189.373 10.6452L-181.294 22.8834L-195.661 19.9588L-196.919 26.1387L-182.552 29.0633L-194.772 37.1696L-191.288 42.4363L-179.044 34.3349L-175.325 31.8739L-178.81 26.6071L-173.543 23.1218L-176.004 19.4029L-184.107 7.15973L-189.373 10.6452ZM-173.543 23.1218L-170.058 28.3887L-175.325 31.8739L-164.762 47.8358L-159.495 44.3505L-167.597 32.1076L-153.229 35.0323L-151.972 28.8524L-166.339 25.9277L-154.096 17.8262L-157.581 12.5593L-173.543 23.1218ZM-118.245 25.124L-110.167 37.3622L-124.534 34.4376L-125.792 40.6175L-111.425 43.5421L-123.645 51.6484L-120.16 56.9151L-107.916 48.8137L-104.198 46.3527L-107.683 41.0859L-102.416 37.6006L-104.877 33.8816L-112.979 21.6385L-118.245 25.124ZM-102.416 37.6006L-98.9307 42.8675L-104.198 46.3527L-93.635 62.3146L-88.3682 58.8293L-96.4697 46.5864L-82.1023 49.5111L-80.8443 43.3312L-95.2117 40.4065L-82.9688 32.305L-86.4541 27.0381L-102.416 37.6006ZM-47.1181 39.6028L-39.0395 51.841L-53.407 48.9164L-54.665 55.0963L-40.2975 58.0209L-52.5175 66.1272L-49.0331 71.3939L-36.7893 63.2925L-33.0703 60.8315L-36.5556 55.5647L-31.2887 52.0794L-33.7497 48.3604L-41.8522 36.1173L-47.1181 39.6028ZM-31.2887 52.0794L-27.8034 57.3463L-33.0703 60.8315L-22.5078 76.7934L-17.2409 73.3081L-25.3425 61.0652L-10.975 63.9899L-9.71704 57.81L-24.0845 54.8853L-11.8416 46.7837L-15.3268 41.5169L-31.2887 52.0794ZM24.0091 54.0816L32.0877 66.3198L17.7203 63.3952L16.4623 69.5751L30.8297 72.4997L18.6098 80.606L22.0941 85.8726L34.338 77.7713L38.0569 75.3103L34.5716 70.0434L39.8385 66.5582L37.3776 62.8392L29.275 50.5961L24.0091 54.0816ZM39.8385 66.5582L43.3238 71.8251L38.0569 75.3103L48.6194 91.2722L53.8863 87.7869L45.7847 75.544L60.1522 78.4687L61.4102 72.2888L47.0427 69.3641L59.2857 61.2625L55.8004 55.9957L39.8385 66.5582ZM95.1363 68.5604L103.215 80.7986L88.8475 77.874L87.5895 84.0539L101.957 86.9785L89.737 95.0848L93.2213 100.351L105.465 92.2501L109.184 89.7891L105.699 84.5222L110.966 81.037L108.505 77.318L100.402 65.0749L95.1363 68.5604ZM110.966 81.037L114.451 86.3038L109.184 89.7891L119.747 105.751L125.014 102.266L116.912 90.0228L131.279 92.9475L132.537 86.7676L118.17 83.8429L130.413 75.7413L126.928 70.4745L110.966 81.037ZM166.264 83.0392L174.342 95.2774L159.975 92.3527L158.717 98.5326L173.084 101.457L160.864 109.564L164.349 114.83L176.592 106.729L180.311 104.268L176.826 99.001L182.093 95.5158L179.632 91.7968L171.529 79.5537L166.264 83.0392ZM182.093 95.5158L185.578 100.783L180.311 104.268L190.874 120.23L196.141 116.745L188.039 104.502L202.407 107.426L203.665 101.246L189.297 98.3217L201.54 90.2201L198.055 84.9532L182.093 95.5158ZM237.391 97.518L245.469 109.756L231.102 106.832L229.844 113.011L244.211 115.936L231.991 124.042L235.476 129.309L247.72 121.208L251.439 118.747L247.953 113.48L253.22 109.995L250.759 106.276L242.657 94.0325L237.391 97.518ZM253.22 109.995L256.705 115.261L251.439 118.747L262.001 134.709L267.268 131.223L259.166 118.98L273.534 121.905L274.792 115.725L260.424 112.8L272.667 104.699L269.182 99.432L253.22 109.995ZM308.518 111.997L316.597 124.235L302.229 121.31L300.971 127.49L315.339 130.415L303.119 138.521L306.603 143.788L318.847 135.686L322.566 133.225L319.081 127.959L324.347 124.473L321.886 120.754L313.784 108.511L308.518 111.997ZM324.347 124.473L327.833 129.74L322.566 133.225L333.128 149.187L338.395 145.702L330.294 133.459L344.661 136.384L345.919 130.204L331.552 127.279L343.795 119.178L340.309 113.911L324.347 124.473ZM379.645 126.476L387.724 138.714L373.356 135.789L372.098 141.969L386.466 144.894L374.246 153L377.73 158.267L389.974 150.165L393.693 147.704L390.208 142.437L395.475 138.952L393.014 135.233L384.911 122.99L379.645 126.476ZM395.475 138.952L398.96 144.219L393.693 147.704L404.256 163.666L409.522 160.181L401.421 147.938L415.788 150.863L417.046 144.683L402.679 141.758L414.922 133.657L411.437 128.39L395.475 138.952ZM450.772 140.954L458.851 153.193L444.484 150.268L443.226 156.448L457.593 159.372L445.373 167.479L448.857 172.745L461.101 164.644L464.82 162.183L461.335 156.916L466.602 153.431L464.141 149.712L456.038 137.469L450.772 140.954ZM466.602 153.431L470.087 158.698L464.82 162.183L475.383 178.145L480.65 174.66L472.548 162.417L486.916 165.341L488.174 159.162L473.806 156.237L486.049 148.135L482.564 142.868L466.602 153.431ZM521.9 155.433L529.978 167.671L515.611 164.747L514.353 170.927L528.72 173.851L516.5 181.958L519.985 187.224L532.229 179.123L535.948 176.662L532.462 171.395L537.729 167.91L535.268 164.191L527.166 151.948L521.9 155.433ZM537.729 167.91L541.214 173.177L535.948 176.662L546.51 192.624L551.777 189.138L543.675 176.896L558.043 179.82L559.301 173.64L544.933 170.716L557.176 162.614L553.691 157.347L537.729 167.91ZM593.027 169.912L601.106 182.15L586.738 179.226L585.48 185.405L599.848 188.33L587.628 196.436L591.112 201.703L603.356 193.602L607.075 191.141L603.589 185.874L608.856 182.389L606.395 178.67L598.293 166.426L593.027 169.912ZM608.856 182.389L612.342 187.655L607.075 191.141L617.637 207.103L622.904 203.617L614.803 191.374L629.17 194.299L630.428 188.119L616.061 185.194L628.303 177.093L624.818 171.826L608.856 182.389ZM664.154 184.391L672.233 196.629L657.865 193.704L656.607 199.884L670.975 202.809L658.755 210.915L662.239 216.182L674.483 208.08L678.202 205.619L674.717 200.353L679.984 196.867L677.523 193.148L669.42 180.905L664.154 184.391ZM679.984 196.867L683.469 202.134L678.202 205.619L688.764 221.581L694.031 218.096L685.93 205.853L700.297 208.778L701.555 202.598L687.188 199.673L699.431 191.572L695.945 186.305L679.984 196.867ZM735.281 198.87L743.36 211.108L728.993 208.183L727.735 214.363L742.102 217.288L729.882 225.394L733.366 230.661L745.61 222.559L749.329 220.098L745.844 214.831L751.111 211.346L748.65 207.627L740.547 195.384L735.281 198.87ZM751.111 211.346L754.596 216.613L749.329 220.098L759.892 236.06L765.159 232.575L757.057 220.332L771.424 223.257L772.682 217.077L758.315 214.152L770.558 206.05L767.073 200.784L751.111 211.346ZM806.409 213.348L814.487 225.587L800.12 222.662L798.862 228.842L813.229 231.766L801.009 239.873L804.494 245.139L816.737 237.038L820.456 234.577L816.971 229.31L822.238 225.825L819.777 222.106L811.675 209.863L806.409 213.348ZM822.238 225.825L825.723 231.092L820.456 234.577L831.019 250.539L836.286 247.054L828.184 234.811L842.552 237.735L843.81 231.555L829.442 228.631L841.685 220.529L838.2 215.262L822.238 225.825ZM877.536 227.827L885.614 240.065L871.247 237.141L869.989 243.321L884.356 246.245L872.137 254.351L875.621 259.618L887.865 251.517L891.584 249.056L888.098 243.789L893.365 240.304L890.904 236.585L882.802 224.342L877.536 227.827ZM893.365 240.304L896.851 245.571L891.584 249.056L902.146 265.018L907.413 261.532L899.311 249.29L913.679 252.214L914.937 246.034L900.569 243.11L912.812 235.008L909.327 229.741L893.365 240.304ZM948.663 242.306L956.742 254.544L942.374 251.619L941.116 257.799L955.484 260.724L943.264 268.83L946.748 274.097L958.992 265.996L962.711 263.535L959.226 258.268L964.492 254.782L962.032 251.064L953.929 238.82L948.663 242.306ZM964.492 254.782L967.978 260.049L962.711 263.535L973.273 279.497L978.54 276.011L970.439 263.768L984.806 266.693L986.064 260.513L971.697 257.588L983.94 249.487L980.454 244.22L964.492 254.782ZM1019.79 256.785L1027.87 269.023L1013.5 266.098L1012.24 272.278L1026.61 275.203L1014.39 283.309L1017.88 288.576L1030.12 280.474L1033.84 278.013L1030.35 272.747L1035.62 269.261L1033.16 265.542L1025.06 253.299L1019.79 256.785ZM1035.62 269.261L1039.1 274.528L1033.84 278.013L1044.4 293.975L1049.67 290.49L1041.57 278.247L1055.93 281.172L1057.19 274.992L1042.82 272.067L1055.07 263.966L1051.58 258.699L1035.62 269.261ZM1090.92 271.263L1099 283.502L1084.63 280.577L1083.37 286.757L1097.74 289.682L1085.52 297.788L1089 303.055L1101.25 294.953L1104.97 292.492L1101.48 287.225L1106.75 283.74L1104.29 280.021L1096.18 267.778L1090.92 271.263ZM1106.75 283.74L1110.23 289.007L1104.97 292.492L1115.53 308.454L1120.79 304.969L1112.69 292.726L1127.06 295.651L1128.32 289.471L1113.95 286.546L1126.19 278.444L1122.71 273.178L1106.75 283.74ZM1162.04 285.742L1170.12 297.981L1155.76 295.056L1154.5 301.236L1168.87 304.16L1156.65 312.267L1160.13 317.533L1172.37 309.432L1176.09 306.971L1172.61 301.704L1177.87 298.219L1175.41 294.5L1167.31 282.257L1162.04 285.742ZM1177.87 298.219L1181.36 303.486L1176.09 306.971L1186.66 322.933L1191.92 319.448L1183.82 307.205L1198.19 310.129L1199.45 303.949L1185.08 301.025L1197.32 292.923L1193.84 287.656L1177.87 298.219ZM1233.28 300.243L1241.36 312.481L1226.99 309.556L1225.73 315.736L1240.1 318.661L1227.88 326.767L1231.36 332.034L1243.61 323.933L1247.33 321.472L1243.84 316.205L1249.11 312.719L1246.65 309.001L1238.55 296.757L1233.28 300.243ZM1249.11 312.719L1252.59 317.986L1247.33 321.472L1257.89 337.434L1263.16 333.948L1255.05 321.705L1269.42 324.63L1270.68 318.45L1256.31 315.525L1268.56 307.424L1265.07 302.157L1249.11 312.719ZM1304.51 314.743L1312.59 326.982L1298.22 324.057L1296.97 330.237L1311.33 333.162L1299.11 341.268L1302.6 346.535L1314.84 338.433L1318.56 335.972L1315.08 330.705L1320.34 327.22L1317.88 323.501L1309.78 311.258L1304.51 314.743ZM1320.34 327.22L1323.83 332.487L1318.56 335.972L1329.12 351.934L1334.39 348.449L1326.29 336.206L1340.66 339.131L1341.91 332.951L1327.55 330.026L1339.79 321.924L1336.3 316.658L1320.34 327.22ZM1375.75 329.244L1383.83 341.482L1369.46 338.558L1368.2 344.738L1382.57 347.662L1370.35 355.768L1373.83 361.035L1386.08 352.934L1389.8 350.473L1386.31 345.206L1391.58 341.721L1389.12 338.002L1381.01 325.759L1375.75 329.244ZM1391.58 341.721L1395.06 346.988L1389.8 350.473L1400.36 366.435L1405.63 362.949L1397.52 350.707L1411.89 353.631L1413.15 347.451L1398.78 344.527L1411.02 336.425L1407.54 331.158L1391.58 341.721ZM1446.98 343.745L1455.06 355.983L1440.69 353.058L1439.44 359.238L1453.8 362.163L1441.58 370.269L1445.07 375.536L1457.31 367.434L1461.03 364.973L1457.54 359.707L1462.81 356.221L1460.35 352.502L1452.25 340.259L1446.98 343.745ZM1462.81 356.221L1466.3 361.488L1461.03 364.973L1471.59 380.935L1476.86 377.45L1468.76 365.207L1483.13 368.132L1484.38 361.952L1470.02 359.027L1482.26 350.926L1478.77 345.659L1462.81 356.221ZM1518.22 358.245L1526.3 370.484L1511.93 367.559L1510.67 373.739L1525.04 376.663L1512.82 384.77L1516.3 390.036L1528.55 381.935L1532.26 379.474L1528.78 374.207L1534.05 370.722L1531.59 367.003L1523.48 354.76L1518.22 358.245ZM1534.05 370.722L1537.53 375.989L1532.26 379.474L1542.83 395.436L1548.09 391.951L1539.99 379.708L1554.36 382.632L1555.62 376.453L1541.25 373.528L1553.49 365.426L1550.01 360.159L1534.05 370.722ZM1589.45 372.746L1597.53 384.984L1583.16 382.06L1581.9 388.239L1596.27 391.164L1584.05 399.27L1587.54 404.537L1599.78 396.436L1603.5 393.975L1600.01 388.708L1605.28 385.223L1602.82 381.504L1594.72 369.26L1589.45 372.746ZM1605.28 385.223L1608.77 390.489L1603.5 393.975L1614.06 409.937L1619.33 406.451L1611.23 394.208L1625.59 397.133L1626.85 390.953L1612.48 388.028L1624.73 379.927L1621.24 374.66L1605.28 385.223ZM1660.69 387.247L1668.76 399.485L1654.4 396.56L1653.14 402.74L1667.51 405.665L1655.29 413.771L1658.77 419.038L1671.01 410.936L1674.73 408.475L1671.25 403.208L1676.52 399.723L1674.05 396.004L1665.95 383.761L1660.69 387.247ZM1676.52 399.723L1680 404.99L1674.73 408.475L1685.3 424.437L1690.56 420.952L1682.46 408.709L1696.83 411.634L1698.09 405.454L1683.72 402.529L1695.96 394.428L1692.48 389.161L1676.52 399.723ZM1731.92 401.747L1740 413.985L1725.63 411.061L1724.37 417.241L1738.74 420.165L1726.52 428.272L1730 433.538L1742.25 425.437L1745.97 422.976L1742.48 417.709L1747.75 414.224L1745.29 410.505L1737.19 398.262L1731.92 401.747ZM1747.75 414.224L1751.23 419.491L1745.97 422.976L1756.53 438.938L1761.8 435.453L1753.7 423.21L1768.06 426.134L1769.32 419.954L1754.95 417.03L1767.2 408.928L1763.71 403.661L1747.75 414.224ZM1803.15 416.248L1811.23 428.486L1796.87 425.561L1795.61 431.741L1809.98 434.666L1797.76 442.772L1801.24 448.039L1813.48 439.937L1817.2 437.477L1813.72 432.21L1818.98 428.724L1816.52 425.005L1808.42 412.762L1803.15 416.248ZM1818.98 428.724L1822.47 433.991L1817.2 437.477L1827.76 453.438L1833.03 449.953L1824.93 437.71L1839.3 440.635L1840.56 434.455L1826.19 431.53L1838.43 423.429L1834.95 418.162L1818.98 428.724Z" fill="white"/>
<path opacity="0.08" d="M1971.12 -44.5482L-244.97 528.57L-265 451.118L1951.09 -122L1971.12 -44.5482ZM-228.066 468.902L-215.439 476.359L-229.634 480.03L-228.055 486.136L-213.86 482.465L-221.289 495.109L-215.848 498.314L-208.396 485.665L-206.132 481.822L-211.574 478.617L-208.369 473.175L-212.211 470.912L-224.861 463.461L-228.066 468.902ZM-208.369 473.175L-202.927 476.381L-206.132 481.822L-189.641 491.537L-186.435 486.095L-199.085 478.644L-184.89 474.973L-186.469 468.867L-200.664 472.538L-193.213 459.889L-198.654 456.683L-208.369 473.175ZM-157.792 450.728L-145.165 458.185L-159.36 461.856L-157.781 467.962L-143.586 464.291L-151.015 476.935L-145.574 480.14L-138.122 467.491L-135.859 463.648L-141.3 460.443L-138.095 455.001L-141.937 452.738L-154.588 445.287L-157.792 450.728ZM-138.095 455.001L-132.653 458.207L-135.859 463.648L-119.367 473.363L-116.161 467.921L-128.811 460.47L-114.616 456.799L-116.195 450.693L-130.39 454.364L-122.939 441.715L-128.38 438.509L-138.095 455.001ZM-87.5181 432.554L-74.8914 440.011L-89.0865 443.682L-87.5075 449.788L-73.3124 446.117L-80.7407 458.761L-75.3 461.966L-67.848 449.317L-65.5846 445.474L-71.0263 442.269L-67.8209 436.827L-71.6633 434.564L-84.3136 427.113L-87.5181 432.554ZM-67.8209 436.827L-62.3792 440.033L-65.5846 445.474L-49.0928 455.189L-45.8874 449.747L-58.5368 442.296L-44.3417 438.625L-45.9207 432.519L-60.1158 436.19L-52.6648 423.541L-58.1065 420.335L-67.8209 436.827ZM-17.2442 414.38L-4.6175 421.837L-18.8126 425.508L-17.2335 431.614L-3.03845 427.943L-10.4668 440.587L-5.02604 443.792L2.42596 431.143L4.68932 427.3L-0.752404 424.095L2.45302 418.653L-1.38938 416.39L-14.0397 408.939L-17.2442 414.38ZM2.45302 418.653L7.89475 421.859L4.68932 427.3L21.1811 437.015L24.3865 431.573L11.7372 424.122L25.9322 420.451L24.3532 414.345L10.1581 418.016L17.6092 405.367L12.1674 402.161L2.45302 418.653ZM53.0298 396.206L65.6564 403.663L51.4613 407.334L53.0404 413.44L67.2355 409.769L59.8071 422.413L65.2479 425.618L72.6999 412.969L74.9632 409.126L69.5215 405.921L72.7269 400.479L68.8845 398.216L56.2342 390.765L53.0298 396.206ZM72.7269 400.479L78.1687 403.685L74.9632 409.126L91.455 418.841L94.6604 413.399L82.0111 405.948L96.2062 402.277L94.6271 396.171L80.432 399.842L87.8831 387.193L82.4414 383.987L72.7269 400.479ZM123.304 378.032L135.93 385.489L121.735 389.16L123.314 395.266L137.509 391.595L130.081 404.239L135.522 407.444L142.974 394.795L145.237 390.952L139.795 387.747L143.001 382.305L139.158 380.042L126.508 372.591L123.304 378.032ZM143.001 382.305L148.443 385.511L145.237 390.952L161.729 400.667L164.934 395.225L152.285 387.774L166.48 384.103L164.901 377.997L150.706 381.668L158.157 369.019L152.715 365.813L143.001 382.305ZM193.578 359.858L206.204 367.315L192.009 370.986L193.588 377.092L207.783 373.421L200.355 386.065L205.796 389.27L213.248 376.621L215.511 372.778L210.069 369.573L213.275 364.131L209.432 361.868L196.782 354.417L193.578 359.858ZM213.275 364.131L218.717 367.337L215.511 372.778L232.003 382.493L235.208 377.051L222.559 369.6L236.754 365.929L235.175 359.823L220.98 363.494L228.431 350.845L222.989 347.639L213.275 364.131ZM263.852 341.684L276.478 349.141L262.283 352.812L263.862 358.918L278.057 355.247L270.629 367.891L276.07 371.096L283.522 358.447L285.785 354.604L280.343 351.399L283.549 345.957L279.706 343.694L267.056 336.243L263.852 341.684ZM283.549 345.957L288.99 349.163L285.785 354.604L302.277 364.319L305.482 358.877L292.833 351.426L307.028 347.755L305.449 341.649L291.254 345.32L298.705 332.671L293.263 329.465L283.549 345.957ZM334.125 323.51L346.752 330.967L332.557 334.638L334.136 340.744L348.331 337.073L340.903 349.717L346.344 352.922L353.796 340.273L356.059 336.43L350.617 333.225L353.823 327.783L349.98 325.52L337.33 318.069L334.125 323.51ZM353.823 327.783L359.264 330.989L356.059 336.43L372.551 346.145L375.756 340.703L363.107 333.252L377.302 329.581L375.723 323.475L361.528 327.146L368.979 314.497L363.537 311.291L353.823 327.783ZM404.399 305.336L417.026 312.793L402.831 316.464L404.41 322.57L418.605 318.899L411.177 331.543L416.618 334.748L424.07 322.099L426.333 318.256L420.891 315.051L424.097 309.609L420.254 307.346L407.604 299.895L404.399 305.336ZM424.097 309.609L429.538 312.815L426.333 318.256L442.825 327.971L446.03 322.529L433.381 315.078L447.576 311.407L445.997 305.301L431.802 308.972L439.253 296.323L433.811 293.117L424.097 309.609ZM474.673 287.162L487.3 294.619L473.105 298.29L474.684 304.396L488.879 300.725L481.451 313.369L486.891 316.574L494.343 303.925L496.607 300.082L491.165 296.877L494.371 291.435L490.528 289.172L477.878 281.721L474.673 287.162ZM494.371 291.435L499.812 294.641L496.607 300.082L513.099 309.797L516.304 304.355L503.655 296.904L517.85 293.233L516.271 287.127L502.076 290.798L509.527 278.149L504.085 274.943L494.371 291.435ZM544.947 268.988L557.574 276.445L543.379 280.116L544.958 286.222L559.153 282.551L551.725 295.195L557.165 298.4L564.617 285.751L566.881 281.908L561.439 278.703L564.644 273.261L560.802 270.998L548.152 263.547L544.947 268.988ZM564.644 273.261L570.086 276.467L566.881 281.908L583.372 291.623L586.578 286.181L573.929 278.73L588.124 275.059L586.545 268.953L572.35 272.624L579.801 259.975L574.359 256.769L564.644 273.261ZM615.221 250.814L627.848 258.271L613.653 261.942L615.232 268.048L629.427 264.377L621.999 277.021L627.439 280.226L634.891 267.577L637.155 263.734L631.713 260.529L634.918 255.087L631.076 252.824L618.426 245.373L615.221 250.814ZM634.918 255.087L640.36 258.293L637.155 263.734L653.646 273.449L656.852 268.007L644.202 260.556L658.398 256.885L656.819 250.779L642.623 254.45L650.074 241.801L644.633 238.595L634.918 255.087ZM685.495 232.64L698.122 240.097L683.927 243.768L685.506 249.874L699.701 246.203L692.272 258.847L697.713 262.052L705.165 249.403L707.429 245.56L701.987 242.355L705.192 236.913L701.35 234.65L688.7 227.199L685.495 232.64ZM705.192 236.913L710.634 240.119L707.429 245.56L723.92 255.275L727.126 249.833L714.476 242.382L728.671 238.711L727.092 232.605L712.897 236.276L720.348 223.627L714.907 220.421L705.192 236.913ZM755.769 214.466L768.396 221.923L754.201 225.594L755.78 231.7L769.975 228.029L762.546 240.673L767.987 243.878L775.439 231.229L777.702 227.386L772.261 224.181L775.466 218.739L771.624 216.476L758.973 209.025L755.769 214.466ZM775.466 218.739L780.908 221.945L777.702 227.386L794.194 237.101L797.4 231.659L784.75 224.208L798.945 220.537L797.366 214.431L783.171 218.102L790.622 205.453L785.181 202.247L775.466 218.739ZM826.043 196.292L838.67 203.749L824.475 207.42L826.054 213.526L840.249 209.855L832.82 222.499L838.261 225.704L845.713 213.055L847.976 209.212L842.535 206.007L845.74 200.565L841.898 198.302L829.247 190.851L826.043 196.292ZM845.74 200.565L851.182 203.771L847.976 209.212L864.468 218.927L867.674 213.485L855.024 206.034L869.219 202.363L867.64 196.257L853.445 199.928L860.896 187.279L855.455 184.073L845.74 200.565ZM896.317 178.118L908.944 185.575L894.748 189.246L896.327 195.352L910.523 191.681L903.094 204.325L908.535 207.53L915.987 194.881L918.25 191.038L912.809 187.833L916.014 182.391L912.172 180.128L899.521 172.677L896.317 178.118ZM916.014 182.391L921.456 185.597L918.25 191.038L934.742 200.753L937.948 195.311L925.298 187.86L939.493 184.189L937.914 178.083L923.719 181.754L931.17 169.105L925.728 165.899L916.014 182.391ZM966.591 159.944L979.217 167.401L965.022 171.072L966.601 177.178L980.797 173.507L973.368 186.151L978.809 189.356L986.261 176.707L988.524 172.864L983.083 169.659L986.288 164.217L982.446 161.954L969.795 154.503L966.591 159.944ZM986.288 164.217L991.73 167.423L988.524 172.864L1005.02 182.579L1008.22 177.137L995.572 169.686L1009.77 166.015L1008.19 159.909L993.993 163.58L1001.44 150.931L996.002 147.725L986.288 164.217ZM1036.86 141.77L1049.49 149.227L1035.3 152.898L1036.88 159.004L1051.07 155.333L1043.64 167.977L1049.08 171.182L1056.53 158.533L1058.8 154.69L1053.36 151.485L1056.56 146.043L1052.72 143.78L1040.07 136.329L1036.86 141.77ZM1056.56 146.043L1062 149.249L1058.8 154.69L1075.29 164.405L1078.5 158.963L1065.85 151.512L1080.04 147.841L1078.46 141.735L1064.27 145.406L1071.72 132.757L1066.28 129.551L1056.56 146.043ZM1107.14 123.596L1119.77 131.053L1105.57 134.724L1107.15 140.83L1121.34 137.159L1113.92 149.803L1119.36 153.008L1126.81 140.359L1129.07 136.516L1123.63 133.311L1126.84 127.869L1122.99 125.606L1110.34 118.155L1107.14 123.596ZM1126.84 127.869L1132.28 131.075L1129.07 136.516L1145.56 146.231L1148.77 140.789L1136.12 133.338L1150.32 129.667L1148.74 123.561L1134.54 127.232L1141.99 114.583L1136.55 111.377L1126.84 127.869ZM1177.41 105.422L1190.04 112.879L1175.84 116.55L1177.42 122.656L1191.62 118.985L1184.19 131.629L1189.63 134.834L1197.08 122.185L1199.35 118.342L1193.9 115.137L1197.11 109.695L1193.27 107.432L1180.62 99.981L1177.41 105.422ZM1197.11 109.695L1202.55 112.901L1199.35 118.342L1215.84 128.057L1219.04 122.615L1206.39 115.164L1220.59 111.493L1219.01 105.387L1204.81 109.058L1212.27 96.4088L1206.82 93.2034L1197.11 109.695ZM1247.69 87.2485L1260.31 94.7054L1246.12 98.3765L1247.7 104.482L1261.89 100.811L1254.46 113.455L1259.9 116.66L1267.36 104.011L1269.62 100.168L1264.18 96.9629L1267.38 91.5211L1263.54 89.2578L1250.89 81.807L1247.69 87.2485ZM1267.38 91.5211L1272.83 94.7266L1269.62 100.168L1286.11 109.883L1289.32 104.441L1276.67 96.9899L1290.86 93.3188L1289.28 87.2131L1275.09 90.8842L1282.54 78.2348L1277.1 75.0294L1267.38 91.5211ZM1318.07 69.0471L1330.69 76.504L1316.5 80.1751L1318.08 86.2808L1332.27 82.6098L1324.84 95.2532L1330.28 98.4589L1337.74 85.8093L1340 81.9669L1334.56 78.7615L1337.76 73.3198L1333.92 71.0564L1321.27 63.6056L1318.07 69.0471ZM1337.76 73.3198L1343.21 76.5252L1340 81.9669L1356.49 91.6813L1359.7 86.2396L1347.05 78.7885L1361.24 75.1175L1359.66 69.0117L1345.47 72.6828L1352.92 60.0334L1347.48 56.828L1337.76 73.3198ZM1388.45 50.8457L1401.07 58.3026L1386.88 61.9737L1388.46 68.0795L1402.65 64.4084L1395.22 77.0519L1400.66 80.2575L1408.12 67.6079L1410.38 63.7655L1404.94 60.5601L1408.14 55.1184L1404.3 52.855L1391.65 45.4042L1388.45 50.8457ZM1408.14 55.1184L1413.59 58.3238L1410.38 63.7655L1426.87 73.4799L1430.08 68.0382L1417.43 60.5872L1431.62 56.9161L1430.04 50.8103L1415.85 54.4814L1423.3 41.832L1417.86 38.6266L1408.14 55.1184ZM1458.83 32.6443L1471.45 40.1012L1457.26 43.7723L1458.84 49.8781L1473.03 46.207L1465.6 58.8505L1471.04 62.0561L1478.5 49.4065L1480.76 45.5641L1475.32 42.3587L1478.52 36.917L1474.68 34.6536L1462.03 27.2028L1458.83 32.6443ZM1478.52 36.917L1483.96 40.1224L1480.76 45.5641L1497.25 55.2785L1500.46 49.8368L1487.81 42.3858L1502 38.7147L1500.42 32.6089L1486.23 36.28L1493.68 23.6306L1488.24 20.4252L1478.52 36.917ZM1529.21 14.4429L1541.83 21.8998L1527.64 25.5709L1529.22 31.6767L1543.41 28.0056L1535.98 40.6491L1541.42 43.8548L1548.88 31.2052L1551.14 27.3627L1545.7 24.1573L1548.9 18.7156L1545.06 16.4522L1532.41 9.00143L1529.21 14.4429ZM1548.9 18.7156L1554.34 21.921L1551.14 27.3627L1567.63 37.0772L1570.84 31.6354L1558.19 24.1844L1572.38 20.5133L1570.8 14.4075L1556.61 18.0786L1564.06 5.42926L1558.62 2.22384L1548.9 18.7156ZM1599.59 -3.75848L1612.21 3.69845L1598.02 7.36953L1599.6 13.4753L1613.79 9.80421L1606.36 22.4477L1611.8 25.6534L1619.26 13.0038L1621.52 9.16136L1616.08 5.95594L1619.28 0.514213L1615.44 -1.74914L1602.79 -9.19996L1599.59 -3.75848ZM1619.28 0.514213L1624.72 3.71964L1621.52 9.16136L1638.01 18.8758L1641.22 13.4341L1628.57 5.98299L1642.76 2.31191L1641.18 -3.79385L1626.99 -0.122767L1634.44 -12.7721L1629 -15.9776L1619.28 0.514213ZM1669.97 -21.9599L1682.59 -14.5029L1668.4 -10.8319L1669.98 -4.72609L1684.17 -8.39718L1676.74 4.24631L1682.18 7.45198L1689.64 -5.19762L1691.9 -9.04002L1686.46 -12.2455L1689.66 -17.6872L1685.82 -19.9505L1673.17 -27.4013L1669.97 -21.9599ZM1689.66 -17.6872L1695.1 -14.4817L1691.9 -9.04002L1708.39 0.674389L1711.6 -4.76733L1698.95 -12.2184L1713.14 -15.8895L1711.56 -21.9952L1697.37 -18.3242L1704.82 -30.9735L1699.38 -34.1789L1689.66 -17.6872ZM1740.35 -40.1612L1752.97 -32.7043L1738.78 -29.0332L1740.36 -22.9275L1754.55 -26.5986L1747.12 -13.9551L1752.56 -10.7494L1760.02 -23.399L1762.28 -27.2414L1756.84 -30.4468L1760.04 -35.8886L1756.2 -38.1519L1743.55 -45.6027L1740.35 -40.1612ZM1760.04 -35.8886L1765.48 -32.6831L1762.28 -27.2414L1778.77 -17.527L1781.98 -22.9687L1769.33 -30.4198L1783.52 -34.0909L1781.94 -40.1966L1767.75 -36.5255L1775.2 -49.1749L1769.76 -52.3803L1760.04 -35.8886ZM1810.73 -58.3626L1823.35 -50.9057L1809.16 -47.2346L1810.74 -41.1289L1824.93 -44.7999L1817.5 -32.1565L1822.94 -28.9508L1830.4 -41.6004L1832.66 -45.4428L1827.22 -48.6482L1830.42 -54.0899L1826.58 -56.3533L1813.93 -63.8041L1810.73 -58.3626ZM1830.42 -54.0899L1835.86 -50.8845L1832.66 -45.4428L1849.15 -35.7284L1852.36 -41.1701L1839.71 -48.6212L1853.9 -52.2922L1852.32 -58.398L1838.13 -54.7269L1845.58 -67.3763L1840.14 -70.5817L1830.42 -54.0899ZM1881.1 -76.564L1893.73 -69.1071L1879.54 -65.436L1881.12 -59.3302L1895.31 -63.0013L1887.88 -50.3578L1893.32 -47.1522L1900.77 -59.8018L1903.04 -63.6442L1897.6 -66.8496L1900.8 -72.2913L1896.96 -74.5547L1884.31 -82.0055L1881.1 -76.564ZM1900.8 -72.2913L1906.24 -69.0859L1903.04 -63.6442L1919.53 -53.9298L1922.74 -59.3715L1910.09 -66.8225L1924.28 -70.4936L1922.7 -76.5994L1908.51 -72.9283L1915.96 -85.5777L1910.52 -88.7831L1900.8 -72.2913Z" fill="white"/>
<path opacity="0.08" d="M1323.24 -668.388L278.267 1368.17L207.09 1331.64L1252.07 -704.91L1323.24 -668.388ZM244.928 1315.87L258.892 1311.4L252.199 1324.44L257.81 1327.32L264.504 1314.28L269.011 1328.23L275.023 1326.3L270.526 1312.32L269.16 1308.08L263.148 1310.01L261.214 1304L256.969 1305.36L242.993 1309.86L244.928 1315.87ZM261.214 1304L267.226 1302.06L269.16 1308.08L287.38 1302.21L285.446 1296.2L271.471 1300.7L278.164 1287.65L272.553 1284.77L265.86 1297.82L261.363 1283.84L255.351 1285.78L261.214 1304ZM278.065 1251.29L292.029 1246.82L285.336 1259.86L290.947 1262.74L297.64 1249.7L302.148 1263.65L308.16 1261.72L303.663 1247.74L302.297 1243.5L296.285 1245.43L294.351 1239.42L290.106 1240.78L276.13 1245.28L278.065 1251.29ZM294.351 1239.42L300.363 1237.48L302.297 1243.5L320.517 1237.63L318.583 1231.62L304.608 1236.12L311.301 1223.07L305.69 1220.19L298.997 1233.24L294.5 1219.26L288.488 1221.2L294.351 1239.42ZM311.202 1186.71L325.166 1182.24L318.473 1195.28L324.084 1198.16L330.777 1185.12L335.285 1199.07L341.297 1197.14L336.8 1183.16L335.434 1178.91L329.422 1180.85L327.488 1174.84L323.242 1176.2L309.267 1180.7L311.202 1186.71ZM327.488 1174.84L333.5 1172.9L335.434 1178.91L353.654 1173.05L351.72 1167.04L337.745 1171.54L344.438 1158.49L338.827 1155.61L332.134 1168.66L327.637 1154.68L321.625 1156.62L327.488 1174.84ZM344.339 1122.13L358.303 1117.66L351.61 1130.7L357.221 1133.58L363.914 1120.53L368.422 1134.49L374.434 1132.56L369.937 1118.58L368.571 1114.33L362.559 1116.27L360.625 1110.26L356.379 1111.62L342.404 1116.12L344.339 1122.13ZM360.625 1110.26L366.637 1108.32L368.571 1114.33L386.791 1108.47L384.857 1102.46L370.882 1106.96L377.575 1093.91L371.964 1091.03L365.271 1104.08L360.774 1090.1L354.762 1092.04L360.625 1110.26ZM377.476 1057.55L391.44 1053.07L384.747 1066.12L390.358 1069L397.051 1055.95L401.559 1069.91L407.571 1067.97L403.074 1054L401.708 1049.75L395.696 1051.69L393.762 1045.68L389.516 1047.04L375.541 1051.54L377.476 1057.55ZM393.762 1045.68L399.774 1043.74L401.708 1049.75L419.928 1043.89L417.994 1037.88L404.019 1042.38L410.712 1029.33L405.101 1026.45L398.408 1039.5L393.911 1025.52L387.899 1027.46L393.762 1045.68ZM410.613 992.97L424.577 988.494L417.884 1001.54L423.495 1004.42L430.188 991.373L434.696 1005.33L440.708 1003.39L436.211 989.418L434.845 985.173L428.833 987.107L426.898 981.095L422.653 982.461L408.678 986.959L410.613 992.97ZM426.898 981.095L432.911 979.161L434.845 985.173L453.065 979.31L451.131 973.298L437.156 977.795L443.849 964.75L438.238 961.871L431.545 974.916L427.048 960.941L421.036 962.875L426.898 981.095ZM443.75 928.39L457.714 923.914L451.021 936.959L456.632 939.838L463.325 926.793L467.833 940.747L473.845 938.813L469.348 924.837L467.982 920.592L461.97 922.527L460.035 916.515L455.79 917.881L441.815 922.378L443.75 928.39ZM460.035 916.515L466.047 914.58L467.982 920.592L486.202 914.729L484.268 908.717L470.293 913.214L476.986 900.169L471.375 897.29L464.681 910.335L460.185 896.36L454.173 898.295L460.035 916.515ZM476.887 863.809L490.851 859.333L484.158 872.378L489.769 875.257L496.462 862.212L500.97 876.166L506.981 874.233L502.485 860.257L501.119 856.011L495.107 857.946L493.172 851.934L488.927 853.3L474.952 857.798L476.887 863.809ZM493.172 851.934L499.184 849.999L501.119 856.011L519.339 850.149L517.405 844.137L503.43 848.633L510.123 835.588L504.512 832.709L497.818 845.754L493.322 831.779L487.31 833.714L493.172 851.934ZM510.024 799.228L523.988 794.752L517.295 807.797L522.906 810.676L529.599 797.631L534.107 811.586L540.118 809.652L535.622 795.676L534.256 791.431L528.244 793.365L526.309 787.353L522.064 788.719L508.089 793.217L510.024 799.228ZM526.309 787.353L532.321 785.419L534.256 791.431L552.476 785.568L550.542 779.556L536.567 784.053L543.26 771.008L537.649 768.129L530.955 781.174L526.459 767.199L520.446 769.133L526.309 787.353ZM543.161 734.648L557.125 730.172L550.432 743.217L556.043 746.096L562.736 733.051L567.244 747.005L573.255 745.071L568.759 731.095L567.393 726.85L561.381 728.785L559.446 722.773L555.201 724.139L541.226 728.636L543.161 734.648ZM559.446 722.773L565.458 720.838L567.393 726.85L585.613 720.987L583.679 714.975L569.703 719.472L576.397 706.427L570.786 703.548L564.092 716.593L559.595 702.618L553.583 704.553L559.446 722.773ZM576.298 670.067L590.262 665.591L583.569 678.636L589.18 681.515L595.873 668.47L600.381 682.424L606.392 680.491L601.896 666.515L600.53 662.27L594.518 664.204L592.583 658.192L588.338 659.558L574.363 664.056L576.298 670.067ZM592.583 658.192L598.595 656.257L600.53 662.27L618.75 656.407L616.816 650.395L602.84 654.891L609.534 641.846L603.923 638.967L597.229 652.012L592.732 638.037L586.72 639.972L592.583 658.192ZM609.435 605.486L623.399 601.01L616.705 614.055L622.317 616.934L629.01 603.889L633.518 617.844L639.529 615.91L635.033 601.934L633.667 597.689L627.655 599.623L625.72 593.611L621.475 594.977L607.5 599.475L609.435 605.486ZM625.72 593.611L631.732 591.677L633.667 597.689L651.887 591.826L649.952 585.814L635.977 590.311L642.671 577.266L637.06 574.387L630.366 587.432L625.869 573.457L619.857 575.391L625.72 593.611ZM642.572 540.906L656.536 536.43L649.842 549.475L655.454 552.354L662.147 539.309L666.655 553.263L672.666 551.329L668.17 537.353L666.804 533.108L660.792 535.043L658.857 529.031L654.612 530.397L640.637 534.895L642.572 540.906ZM658.857 529.031L664.869 527.096L666.804 533.108L685.024 527.245L683.089 521.233L669.114 525.73L675.808 512.685L670.197 509.806L663.503 522.851L659.006 508.876L652.994 510.811L658.857 529.031ZM675.709 476.325L689.673 471.849L682.979 484.894L688.59 487.773L695.284 474.728L699.792 488.682L705.803 486.749L701.307 472.773L699.941 468.528L693.929 470.462L691.994 464.45L687.749 465.816L673.774 470.314L675.709 476.325ZM691.994 464.45L698.006 462.516L699.941 468.528L718.161 462.665L716.226 456.653L702.251 461.15L708.945 448.104L703.334 445.225L696.64 458.27L692.143 444.295L686.131 446.23L691.994 464.45ZM708.846 411.744L722.81 407.268L716.116 420.313L721.727 423.192L728.421 410.147L732.929 424.102L738.94 422.168L734.444 408.192L733.078 403.947L727.066 405.881L725.131 399.869L720.886 401.235L706.911 405.733L708.846 411.744ZM725.131 399.869L731.143 397.935L733.078 403.947L751.298 398.084L749.363 392.072L735.388 396.569L742.082 383.524L736.471 380.645L729.777 393.69L725.28 379.715L719.268 381.649L725.131 399.869ZM741.983 347.164L755.947 342.688L749.253 355.733L754.864 358.612L761.558 345.567L766.066 359.521L772.077 357.587L767.581 343.611L766.215 339.366L760.203 341.301L758.268 335.289L754.023 336.655L740.048 341.153L741.983 347.164ZM758.268 335.289L764.28 333.354L766.215 339.366L784.435 333.503L782.5 327.491L768.525 331.988L775.219 318.943L769.608 316.064L762.914 329.109L758.417 315.134L752.405 317.069L758.268 335.289ZM775.119 282.583L789.084 278.107L782.39 291.152L788.001 294.031L794.695 280.986L799.203 294.94L805.214 293.007L800.718 279.031L799.352 274.786L793.34 276.72L791.405 270.708L787.16 272.074L773.184 276.572L775.119 282.583ZM791.405 270.708L797.417 268.774L799.352 274.786L817.572 268.923L815.637 262.911L801.662 267.408L808.356 254.362L802.745 251.483L796.051 264.528L791.554 250.553L785.542 252.488L791.405 270.708ZM808.256 218.002L822.221 213.526L815.527 226.571L821.138 229.451L827.832 216.405L832.34 230.36L838.351 228.426L833.855 214.45L832.489 210.205L826.477 212.139L824.542 206.127L820.297 207.493L806.321 211.991L808.256 218.002ZM824.542 206.127L830.554 204.193L832.489 210.205L850.709 204.342L848.774 198.33L834.799 202.827L841.493 189.782L835.882 186.903L829.188 199.948L824.691 185.973L818.679 187.907L824.542 206.127ZM841.393 153.422L855.358 148.946L848.664 161.991L854.275 164.87L860.969 151.825L865.476 165.779L871.488 163.845L866.992 149.869L865.626 145.624L859.614 147.559L857.679 141.547L853.434 142.913L839.458 147.411L841.393 153.422ZM857.679 141.547L863.691 139.612L865.626 145.624L883.846 139.761L881.911 133.749L867.936 138.246L874.63 125.201L869.019 122.322L862.325 135.367L857.828 121.392L851.816 123.327L857.679 141.547ZM874.53 88.8411L888.495 84.365L881.801 97.4101L887.412 100.289L894.106 87.2441L898.613 101.198L904.625 99.2647L900.129 85.2887L898.763 81.0436L892.751 82.9782L890.816 76.9662L886.571 78.3321L872.595 82.8299L874.53 88.8411ZM890.816 76.9662L896.828 75.0316L898.763 81.0436L916.983 75.1807L915.048 69.1687L901.073 73.6656L907.767 60.6205L902.156 57.7414L895.462 70.7865L890.965 56.8114L884.953 58.746L890.816 76.9662ZM907.667 24.2604L921.632 19.7844L914.938 32.8294L920.549 35.7086L927.243 22.6635L931.75 36.6177L937.762 34.684L933.266 20.7081L931.9 16.463L925.888 18.3975L923.953 12.3855L919.708 13.7515L905.732 18.2493L907.667 24.2604ZM923.953 12.3855L929.965 10.4509L931.9 16.463L950.12 10.6001L948.185 4.58803L934.21 9.08494L940.904 -3.96013L935.293 -6.83924L928.599 6.20583L924.102 -7.76923L918.09 -5.83467L923.953 12.3855ZM940.804 -40.3202L954.769 -44.7963L948.075 -31.7512L953.686 -28.8721L960.38 -41.9172L964.887 -27.963L970.899 -29.8966L966.403 -43.8726L965.037 -48.1177L959.024 -46.1831L957.09 -52.1952L952.845 -50.8292L938.869 -46.3314L940.804 -40.3202ZM957.09 -52.1952L963.102 -54.1297L965.037 -48.1177L983.257 -53.9806L981.322 -59.9926L967.347 -55.4957L974.041 -68.5408L968.43 -71.4199L961.736 -58.3748L957.239 -72.3499L951.227 -70.4153L957.09 -52.1952ZM973.991 -104.998L987.956 -109.474L981.262 -96.4292L986.873 -93.5501L993.567 -106.595L998.074 -92.6409L1004.09 -94.5746L999.589 -108.551L998.223 -112.796L992.211 -110.861L990.277 -116.873L986.032 -115.507L972.056 -111.009L973.991 -104.998ZM990.277 -116.873L996.289 -118.808L998.223 -112.796L1016.44 -118.659L1014.51 -124.671L1000.53 -120.174L1007.23 -133.219L1001.62 -136.098L994.923 -123.053L990.426 -137.028L984.414 -135.093L990.277 -116.873ZM1007.18 -169.676L1021.14 -174.152L1014.45 -161.107L1020.06 -158.228L1026.75 -171.273L1031.26 -157.319L1037.27 -159.253L1032.78 -173.229L1031.41 -177.474L1025.4 -175.539L1023.46 -181.551L1019.22 -180.185L1005.24 -175.687L1007.18 -169.676ZM1023.46 -181.551L1029.48 -183.486L1031.41 -177.474L1049.63 -183.337L1047.7 -189.349L1033.72 -184.852L1040.41 -197.897L1034.8 -200.776L1028.11 -187.731L1023.61 -201.706L1017.6 -199.771L1023.46 -181.551ZM1040.36 -234.354L1054.33 -238.83L1047.64 -225.785L1053.25 -222.906L1059.94 -235.951L1064.45 -221.997L1070.46 -223.931L1065.96 -237.906L1064.6 -242.152L1058.59 -240.217L1056.65 -246.229L1052.41 -244.863L1038.43 -240.365L1040.36 -234.354ZM1056.65 -246.229L1062.66 -248.164L1064.6 -242.152L1082.82 -248.014L1080.88 -254.027L1066.91 -249.53L1073.6 -262.575L1067.99 -265.454L1061.3 -252.409L1056.8 -266.384L1050.79 -264.449L1056.65 -246.229ZM1073.55 -299.032L1087.52 -303.508L1080.82 -290.463L1086.43 -287.584L1093.13 -300.629L1097.63 -286.675L1103.65 -288.609L1099.15 -302.584L1097.78 -306.83L1091.77 -304.895L1089.84 -310.907L1085.59 -309.541L1071.62 -305.043L1073.55 -299.032ZM1089.84 -310.907L1095.85 -312.842L1097.78 -306.83L1116 -312.692L1114.07 -318.705L1100.09 -314.208L1106.79 -327.253L1101.18 -330.132L1094.48 -317.087L1089.99 -331.062L1083.97 -329.127L1089.84 -310.907ZM1106.74 -363.71L1120.7 -368.186L1114.01 -355.141L1119.62 -352.262L1126.31 -365.307L1130.82 -351.353L1136.83 -353.286L1132.34 -367.262L1130.97 -371.508L1124.96 -369.573L1123.02 -375.585L1118.78 -374.219L1104.8 -369.721L1106.74 -363.71ZM1123.02 -375.585L1129.04 -377.52L1130.97 -371.508L1149.19 -377.37L1147.26 -383.382L1133.28 -378.886L1139.98 -391.931L1134.36 -394.81L1127.67 -381.765L1123.17 -395.74L1117.16 -393.805L1123.02 -375.585ZM1139.93 -428.388L1153.89 -432.864L1147.2 -419.819L1152.81 -416.94L1159.5 -429.985L1164.01 -416.031L1170.02 -417.964L1165.52 -431.94L1164.16 -436.185L1158.15 -434.251L1156.21 -440.263L1151.97 -438.897L1137.99 -434.399L1139.93 -428.388ZM1156.21 -440.263L1162.22 -442.198L1164.16 -436.185L1182.38 -442.048L1180.44 -448.06L1166.47 -443.564L1173.16 -456.609L1167.55 -459.488L1160.86 -446.443L1156.36 -460.418L1150.35 -458.483L1156.21 -440.263ZM1173.11 -493.066L1187.08 -497.542L1180.38 -484.497L1185.99 -481.618L1192.69 -494.663L1197.2 -480.709L1203.21 -482.642L1198.71 -496.618L1197.34 -500.863L1191.33 -498.929L1189.4 -504.941L1185.15 -503.575L1171.18 -499.077L1173.11 -493.066ZM1189.4 -504.941L1195.41 -506.875L1197.34 -500.863L1215.56 -506.726L1213.63 -512.738L1199.66 -508.241L1206.35 -521.287L1200.74 -524.166L1194.04 -511.121L1189.55 -525.096L1183.54 -523.161L1189.4 -504.941ZM1206.3 -557.744L1220.26 -562.22L1213.57 -549.175L1219.18 -546.296L1225.87 -559.341L1230.38 -545.387L1236.39 -547.32L1231.9 -561.296L1230.53 -565.541L1224.52 -563.607L1222.59 -569.619L1218.34 -568.253L1204.36 -563.755L1206.3 -557.744ZM1222.59 -569.619L1228.6 -571.553L1230.53 -565.541L1248.75 -571.404L1246.82 -577.416L1232.84 -572.919L1239.54 -585.965L1233.92 -588.844L1227.23 -575.799L1222.73 -589.774L1216.72 -587.839L1222.59 -569.619ZM1239.49 -622.422L1253.45 -626.898L1246.76 -613.853L1252.37 -610.974L1259.06 -624.019L1263.57 -610.065L1269.58 -611.998L1265.08 -625.974L1263.72 -630.219L1257.71 -628.285L1255.77 -634.297L1251.53 -632.931L1237.55 -628.433L1239.49 -622.422ZM1255.77 -634.297L1261.78 -636.231L1263.72 -630.219L1281.94 -636.082L1280 -642.094L1266.03 -637.597L1272.72 -650.642L1267.11 -653.522L1260.42 -640.477L1255.92 -654.452L1249.91 -652.517L1255.77 -634.297Z" fill="white"/>
<path d="M225.793 200.77L203.036 177.977L195.309 185.714L212.612 203.032H170.672V213.968H212.612L195.309 231.285L203.036 239.023L233.513 208.5L225.793 200.77Z" fill="#6849FE" stroke="white" stroke-width="7.18182"/>
<path d="M225.793 200.77L203.036 177.977L195.309 185.714L212.612 203.032H170.672V213.968H212.612L195.309 231.285L203.036 239.023L233.513 208.5L225.793 200.77Z" fill="#6849FE"/>
<path d="M118.922 169C129.829 169 138.672 177.842 138.672 188.75C138.672 195.292 135.49 201.091 130.59 204.685V236.33C130.59 242.775 125.364 248 118.919 248C112.474 248 107.249 242.775 107.249 236.33V204.681C105.927 203.71 104.729 202.581 103.687 201.318H70.4434L52.6855 207.001C50.3686 207.742 48.0003 206.014 48 203.581V173.919C48.0003 171.486 50.3686 169.758 52.6855 170.499L70.4434 176.182H103.687C107.309 171.795 112.789 169 118.922 169Z" fill="#6849FE"/>
<path d="M118.922 169V165.409V169ZM138.672 188.75H142.263H138.672ZM130.59 204.685L128.466 201.789L126.999 202.865V204.685H130.59ZM130.59 236.33L134.181 236.33V236.33H130.59ZM118.919 248L118.919 251.591H118.919V248ZM107.249 236.33H103.658V236.33L107.249 236.33ZM107.249 204.681H110.84V202.862L109.374 201.786L107.249 204.681ZM103.687 201.318L106.455 199.032L105.378 197.727H103.687V201.318ZM70.4434 201.318V197.727H69.8828L69.3489 197.898L70.4434 201.318ZM52.6855 207.001L53.78 210.421L53.78 210.421L52.6855 207.001ZM48 203.581H44.4091V203.581L48 203.581ZM48 173.919L44.4091 173.919V173.919H48ZM52.6855 170.499L53.78 167.079L53.78 167.079L52.6855 170.499ZM70.4434 176.182L69.3489 179.602L69.8828 179.773H70.4434V176.182ZM103.687 176.182V179.773H105.378L106.455 178.468L103.687 176.182ZM118.922 169V172.591C127.846 172.591 135.081 179.826 135.081 188.75H138.672H142.263C142.263 175.859 131.813 165.409 118.922 165.409V169ZM138.672 188.75H135.081C135.081 194.1 132.484 198.842 128.466 201.789L130.59 204.685L132.714 207.58C138.496 203.339 142.263 196.485 142.263 188.75H138.672ZM130.59 204.685H126.999V236.33H130.59H134.181V204.685H130.59ZM130.59 236.33L126.999 236.33C126.999 240.792 123.381 244.409 118.919 244.409V248V251.591C127.347 251.591 134.18 244.759 134.181 236.33L130.59 236.33ZM118.919 248L118.919 244.409C114.457 244.409 110.84 240.792 110.84 236.33L107.249 236.33L103.658 236.33C103.658 244.758 110.491 251.591 118.919 251.591L118.919 248ZM107.249 236.33H110.84V204.681H107.249H103.658V236.33H107.249ZM107.249 204.681L109.374 201.786C108.289 200.99 107.308 200.064 106.455 199.032L103.687 201.318L100.918 203.605C102.151 205.098 103.565 206.431 105.124 207.576L107.249 204.681ZM103.687 201.318V197.727H70.4434V201.318V204.909H103.687V201.318ZM70.4434 201.318L69.3489 197.898L51.5911 203.581L52.6855 207.001L53.78 210.421L71.5378 204.738L70.4434 201.318ZM52.6855 207.001L51.5911 203.581L51.5909 203.581L48 203.581L44.4091 203.581C44.4097 208.447 49.1459 211.904 53.78 210.421L52.6855 207.001ZM48 203.581H51.5909V173.919H48H44.4091V203.581H48ZM48 173.919L51.5909 173.919L51.5911 173.919L52.6855 170.499L53.78 167.079C49.1459 165.596 44.4096 169.053 44.4091 173.919L48 173.919ZM52.6855 170.499L51.5911 173.919L69.3489 179.602L70.4434 176.182L71.5378 172.762L53.78 167.079L52.6855 170.499ZM70.4434 176.182V179.773H103.687V176.182V172.591H70.4434V176.182ZM103.687 176.182L106.455 178.468C109.425 174.873 113.905 172.591 118.922 172.591V169V165.409C111.673 165.409 105.193 168.718 100.918 173.895L103.687 176.182Z" fill="white"/>
<path d="M106.35 176.182H70.4414V201.318H106.35V176.182Z" fill="#533ACB"/>
<path d="M130.59 236.33L130.59 201.318L107.249 201.318L107.249 236.33C107.249 242.775 112.474 248 118.919 248C125.365 248 130.59 242.775 130.59 236.33Z" fill="#533ACB"/>
<path d="M70.4432 176.182L52.6853 170.499C50.3682 169.758 48 171.487 48 173.919V203.581C48 206.013 50.3682 207.742 52.6853 207.001L70.4432 201.318V176.182Z" fill="#6849FE"/>
<path d="M118.922 208.5C129.829 208.5 138.672 199.658 138.672 188.75C138.672 177.842 129.829 169 118.922 169C108.014 169 99.1719 177.842 99.1719 188.75C99.1719 199.658 108.014 208.5 118.922 208.5Z" fill="#6849FE"/>
<path d="M126.1 179.773H111.737C110.745 179.773 109.941 180.577 109.941 181.568C109.941 182.56 110.745 183.364 111.737 183.364H126.1C127.092 183.364 127.896 182.56 127.896 181.568C127.896 180.577 127.092 179.773 126.1 179.773Z" fill="#937EFF"/>
<path d="M126.1 186.955H111.737C110.745 186.955 109.941 187.758 109.941 188.75C109.941 189.742 110.745 190.545 111.737 190.545H126.1C127.092 190.545 127.896 189.742 127.896 188.75C127.896 187.758 127.092 186.955 126.1 186.955Z" fill="#937EFF"/>
<path d="M126.1 194.136H111.737C110.745 194.136 109.941 194.94 109.941 195.932C109.941 196.923 110.745 197.727 111.737 197.727H126.1C127.092 197.727 127.896 196.923 127.896 195.932C127.896 194.94 127.092 194.136 126.1 194.136Z" fill="#937EFF"/>
<path d="M265.512 179.773C265.512 175.806 268.727 172.591 272.694 172.591H322.966C326.933 172.591 330.148 175.806 330.148 179.773V240.818C330.148 242.801 328.54 244.409 326.557 244.409H272.694C268.727 244.409 265.512 241.194 265.512 237.227V179.773Z" fill="#6849FE" stroke="white" stroke-width="7.18182"/>
<path d="M265.512 179.773C265.512 175.806 268.727 172.591 272.694 172.591H322.966C326.933 172.591 330.148 175.806 330.148 179.773V239.023C330.148 241.997 327.737 244.409 324.762 244.409H272.694C268.727 244.409 265.512 241.194 265.512 237.227V179.773Z" fill="#6849FE"/>
<path d="M270.898 231.841C270.898 227.875 274.114 224.659 278.08 224.659H330.148V239.023H278.08C274.114 239.023 270.898 235.807 270.898 231.841Z" fill="#937EFF"/>
<path d="M276.285 172.591H290.649V194.136L283.467 188.75L276.285 194.136V172.591Z" fill="#533ACB"/>
<path d="M1318.65 203.88L1341.82 196.353L1345.22 206.827L1323.93 213.743L1338.72 234.095L1329.81 240.569L1313.54 218.172L1297.27 240.57L1288.36 234.096L1302.81 214.204L1280.1 206.827L1283.5 196.352L1307.63 204.191V177.079H1318.65V203.88Z" fill="#6849FE"/>
<path d="M1318.65 203.88H1315.06V208.823L1319.76 207.296L1318.65 203.88ZM1341.82 196.353L1345.23 195.243L1344.12 191.828L1340.71 192.938L1341.82 196.353ZM1345.22 206.827L1346.33 210.242L1349.74 209.132L1348.63 205.717L1345.22 206.827ZM1323.93 213.743L1322.82 210.327L1318.12 211.855L1321.03 215.853L1323.93 213.743ZM1338.72 234.095L1340.83 237L1343.73 234.89L1341.62 231.985L1338.72 234.095ZM1329.81 240.569L1326.9 242.679L1329.01 245.585L1331.92 243.474L1329.81 240.569ZM1313.54 218.172L1316.44 216.062L1313.54 212.063L1310.63 216.062L1313.54 218.172ZM1297.27 240.57L1295.15 243.475L1298.06 245.586L1300.17 242.68L1297.27 240.57ZM1288.36 234.096L1285.45 231.985L1283.34 234.891L1286.24 237.001L1288.36 234.096ZM1302.81 214.204L1305.71 216.314L1308.62 212.316L1303.92 210.788L1302.81 214.204ZM1280.1 206.827L1276.69 205.717L1275.58 209.132L1278.99 210.242L1280.1 206.827ZM1283.5 196.352L1284.61 192.937L1281.2 191.827L1280.09 195.242L1283.5 196.352ZM1307.63 204.191L1306.52 207.606L1311.22 209.133V204.191H1307.63ZM1307.63 177.079V173.488H1304.04V177.079H1307.63ZM1318.65 177.079H1322.24V173.488H1318.65V177.079ZM1318.65 203.88L1319.76 207.296L1342.93 199.768L1341.82 196.353L1340.71 192.938L1317.54 200.465L1318.65 203.88ZM1341.82 196.353L1338.4 197.463L1341.8 207.936L1345.22 206.827L1348.63 205.717L1345.23 195.243L1341.82 196.353ZM1345.22 206.827L1344.11 203.411L1322.82 210.327L1323.93 213.743L1325.04 217.158L1346.33 210.242L1345.22 206.827ZM1323.93 213.743L1321.03 215.853L1335.81 236.206L1338.72 234.095L1341.62 231.985L1326.84 211.632L1323.93 213.743ZM1338.72 234.095L1336.61 231.19L1327.7 237.664L1329.81 240.569L1331.92 243.474L1340.83 237L1338.72 234.095ZM1329.81 240.569L1332.71 238.458L1316.44 216.062L1313.54 218.172L1310.63 220.283L1326.9 242.679L1329.81 240.569ZM1313.54 218.172L1310.63 216.062L1294.36 238.459L1297.27 240.57L1300.17 242.68L1316.44 220.283L1313.54 218.172ZM1297.27 240.57L1299.38 237.665L1290.47 231.191L1288.36 234.096L1286.24 237.001L1295.15 243.475L1297.27 240.57ZM1288.36 234.096L1291.26 236.207L1305.71 216.314L1302.81 214.204L1299.9 212.093L1285.45 231.985L1288.36 234.096ZM1302.81 214.204L1303.92 210.788L1281.21 203.411L1280.1 206.827L1278.99 210.242L1301.7 217.619L1302.81 214.204ZM1280.1 206.827L1283.52 207.936L1286.92 197.462L1283.5 196.352L1280.09 195.242L1276.69 205.717L1280.1 206.827ZM1283.5 196.352L1282.4 199.767L1306.52 207.606L1307.63 204.191L1308.74 200.776L1284.61 192.937L1283.5 196.352ZM1307.63 204.191H1311.22V177.079H1307.63H1304.04V204.191H1307.63ZM1307.63 177.079V180.67H1318.65V177.079V173.488H1307.63V177.079ZM1318.65 177.079H1315.06V203.88H1318.65H1322.24V177.079H1318.65Z" fill="white"/>
<path d="M1318.65 203.88L1341.82 196.353L1345.22 206.827L1323.93 213.743L1338.72 234.095L1329.81 240.569L1313.54 218.172L1297.27 240.57L1288.36 234.096L1302.81 214.204L1280.1 206.827L1283.5 196.352L1307.63 204.191V177.079H1318.65V203.88Z" fill="#6849FE"/>
<path d="M1416.6 177.201C1418.28 176.546 1420.14 176.546 1421.82 177.201L1456.02 190.546H1456.02L1461.96 199.462C1462.6 200.416 1462.19 201.713 1461.12 202.13L1456.02 204.121V222.775C1456.02 224.994 1454.66 226.986 1452.59 227.793L1421.82 239.799C1420.14 240.455 1418.28 240.455 1416.6 239.799L1386.97 228.239C1384.22 227.163 1382.4 224.507 1382.4 221.549V204.121L1377.3 202.13C1376.23 201.713 1375.82 200.416 1376.46 199.462L1382.4 190.546H1382.4L1416.6 177.201Z" fill="#937EFF"/>
<path d="M1416.6 177.201L1417.91 180.546L1417.91 180.546L1416.6 177.201ZM1421.82 177.201L1423.13 173.856L1423.13 173.856L1421.82 177.201ZM1456.02 190.546L1454.71 193.891L1455.34 194.136H1456.02V190.546ZM1456.02 190.546L1459.01 188.554L1457.94 186.955H1456.02V190.546ZM1461.96 199.462L1464.95 197.47L1464.95 197.47L1461.96 199.462ZM1461.12 202.13L1462.43 205.475L1462.43 205.475L1461.12 202.13ZM1456.02 204.121L1454.71 200.775L1452.43 201.667V204.121H1456.02ZM1456.02 222.775L1459.61 222.775V222.775H1456.02ZM1452.59 227.793L1453.89 231.138L1452.59 227.793ZM1421.82 239.799L1423.13 243.145L1423.13 243.145L1421.82 239.799ZM1416.6 239.799L1417.91 236.454L1417.91 236.454L1416.6 239.799ZM1386.97 228.239L1385.67 231.584L1385.67 231.584L1386.97 228.239ZM1382.4 221.549H1378.81V221.549L1382.4 221.549ZM1382.4 204.121H1385.99V201.667L1383.71 200.775L1382.4 204.121ZM1377.3 202.13L1375.99 205.475L1375.99 205.475L1377.3 202.13ZM1376.46 199.462L1373.47 197.47L1373.47 197.47L1376.46 199.462ZM1382.4 190.546V186.955H1380.48L1379.41 188.554L1382.4 190.546ZM1382.4 190.546V194.136H1383.08L1383.71 193.891L1382.4 190.546ZM1416.6 177.201L1417.91 180.546C1418.74 180.218 1419.68 180.218 1420.52 180.546L1421.82 177.201L1423.13 173.856C1420.61 172.873 1417.81 172.873 1415.29 173.856L1416.6 177.201ZM1421.82 177.201L1420.52 180.546L1454.71 193.891L1456.02 190.546L1457.32 187.2L1423.13 173.856L1421.82 177.201ZM1456.02 190.546V194.136H1456.02V190.546V186.955H1456.02V190.546ZM1456.02 190.546L1453.03 192.538L1458.98 201.454L1461.96 199.462L1464.95 197.47L1459.01 188.554L1456.02 190.546ZM1461.96 199.462L1458.97 201.453C1458.34 200.497 1458.75 199.201 1459.82 198.784L1461.12 202.13L1462.43 205.475C1465.63 204.225 1466.86 200.334 1464.95 197.47L1461.96 199.462ZM1461.12 202.13L1459.82 198.784L1454.71 200.775L1456.02 204.121L1457.32 207.466L1462.43 205.475L1461.12 202.13ZM1456.02 204.121H1452.43V222.775H1456.02H1459.61V204.121H1456.02ZM1456.02 222.775L1452.43 222.775C1452.43 223.514 1451.97 224.178 1451.28 224.447L1452.59 227.793L1453.89 231.138C1457.34 229.794 1459.61 226.474 1459.61 222.775L1456.02 222.775ZM1452.59 227.793L1451.28 224.447L1420.52 236.454L1421.82 239.799L1423.13 243.145L1453.89 231.138L1452.59 227.793ZM1421.82 239.799L1420.52 236.454C1419.68 236.782 1418.74 236.782 1417.91 236.454L1416.6 239.799L1415.29 243.145C1417.81 244.127 1420.61 244.127 1423.13 243.145L1421.82 239.799ZM1416.6 239.799L1417.91 236.454L1388.28 224.894L1386.97 228.239L1385.67 231.584L1415.29 243.145L1416.6 239.799ZM1386.97 228.239L1388.28 224.894C1386.9 224.356 1385.99 223.028 1385.99 221.548L1382.4 221.549L1378.81 221.549C1378.81 225.987 1381.54 229.971 1385.67 231.584L1386.97 228.239ZM1382.4 221.549H1385.99V204.121H1382.4H1378.81V221.549H1382.4ZM1382.4 204.121L1383.71 200.775L1378.61 198.784L1377.3 202.13L1375.99 205.475L1381.1 207.466L1382.4 204.121ZM1377.3 202.13L1378.61 198.784C1379.67 199.201 1380.08 200.497 1379.45 201.453L1376.46 199.462L1373.47 197.47C1371.56 200.334 1372.79 204.225 1375.99 205.475L1377.3 202.13ZM1376.46 199.462L1379.45 201.454L1385.39 192.538L1382.4 190.546L1379.41 188.554L1373.47 197.47L1376.46 199.462ZM1382.4 190.546V194.136H1382.4V190.546V186.955H1382.4V190.546ZM1382.4 190.546L1383.71 193.891L1417.91 180.546L1416.6 177.201L1415.29 173.856L1381.1 187.2L1382.4 190.546Z" fill="white"/>
<path d="M1382.4 190.545H1456.02V222.775C1456.02 224.994 1454.66 226.986 1452.59 227.792L1421.82 239.799C1420.14 240.454 1418.28 240.454 1416.6 239.799L1386.97 228.238C1384.22 227.163 1382.4 224.507 1382.4 221.548V190.545Z" fill="#6849FE"/>
<path d="M1416.6 177.201C1418.28 176.545 1420.14 176.545 1421.82 177.201L1456.02 190.545L1419.21 204.909L1382.4 190.545L1416.6 177.201Z" fill="#533ACB"/>
<path d="M1382.4 190.545L1419.21 204.909L1413.63 213.278C1412.69 214.682 1410.91 215.245 1409.33 214.632L1377.3 202.13C1376.23 201.713 1375.82 200.415 1376.46 199.461L1382.4 190.545Z" fill="#937EFF"/>
<path d="M1456.02 190.545L1419.21 204.909L1424.79 213.278C1425.73 214.682 1427.51 215.245 1429.08 214.632L1461.12 202.13C1462.19 201.713 1462.6 200.415 1461.96 199.461L1456.02 190.545Z" fill="#937EFF"/>
<path d="M1183.26 178.875C1183.26 174.909 1186.48 171.693 1190.44 171.693H1238.92C1242.89 171.693 1246.1 174.909 1246.1 178.875V241.716C1246.1 243.699 1244.49 245.307 1242.51 245.307H1190.44C1186.48 245.307 1183.26 242.092 1183.26 238.125V178.875Z" fill="#6849FE" stroke="white" stroke-width="7.18182"/>
<path d="M1183.26 178.875C1183.26 174.909 1186.48 171.693 1190.44 171.693H1238.92C1242.89 171.693 1246.1 174.909 1246.1 178.875V239.921C1246.1 242.895 1243.69 245.307 1240.72 245.307H1190.44C1186.48 245.307 1183.26 242.092 1183.26 238.125V178.875Z" fill="#6849FE"/>
<path d="M1193.14 186.057C1193.14 184.074 1194.74 182.466 1196.73 182.466H1232.64C1234.62 182.466 1236.23 184.074 1236.23 186.057V193.239C1236.23 195.222 1234.62 196.829 1232.64 196.829H1196.73C1194.74 196.829 1193.14 195.222 1193.14 193.239V186.057Z" fill="#937EFF"/>
<path d="M1198.52 209.398C1198.52 205.431 1201.74 202.216 1205.71 202.216C1209.67 202.216 1212.89 205.431 1212.89 209.398C1212.89 213.364 1209.67 216.579 1205.71 216.579C1201.74 216.579 1198.52 213.364 1198.52 209.398Z" fill="#937EFF"/>
<path d="M1198.52 227.352C1198.52 223.386 1201.74 220.17 1205.71 220.17C1209.67 220.17 1212.89 223.386 1212.89 227.352C1212.89 231.319 1209.67 234.534 1205.71 234.534C1201.74 234.534 1198.52 231.319 1198.52 227.352Z" fill="#937EFF"/>
<path d="M1216.48 209.398C1216.48 205.431 1219.69 202.216 1223.66 202.216C1227.62 202.216 1230.84 205.431 1230.84 209.398C1230.84 213.364 1227.62 216.579 1223.66 216.579C1219.69 216.579 1216.48 213.364 1216.48 209.398Z" fill="#937EFF"/>
<path d="M1216.48 227.352C1216.48 223.386 1219.69 220.17 1223.66 220.17C1227.62 220.17 1230.84 223.386 1230.84 227.352C1230.84 231.319 1227.62 234.534 1223.66 234.534C1219.69 234.534 1216.48 231.319 1216.48 227.352Z" fill="#937EFF"/>
<path d="M1201.21 209.398C1201.21 208.902 1201.62 208.5 1202.11 208.5H1209.29C1209.79 208.5 1210.19 208.902 1210.19 209.398C1210.19 209.894 1209.79 210.295 1209.29 210.295H1202.11C1201.62 210.295 1201.21 209.894 1201.21 209.398Z" fill="#6849FE"/>
<path d="M1220.49 224.178C1220.84 223.828 1221.41 223.828 1221.76 224.178L1226.83 229.257C1227.18 229.607 1227.18 230.176 1226.83 230.526C1226.48 230.877 1225.92 230.877 1225.56 230.526L1220.49 225.448C1220.14 225.097 1220.14 224.529 1220.49 224.178Z" fill="#6849FE"/>
<path d="M1201.21 227.352C1201.21 226.857 1201.62 226.455 1202.11 226.455H1209.29C1209.79 226.455 1210.19 226.857 1210.19 227.352C1210.19 227.848 1209.79 228.25 1209.29 228.25H1202.11C1201.62 228.25 1201.21 227.848 1201.21 227.352Z" fill="#6849FE"/>
<path d="M1219.17 209.398C1219.17 208.902 1219.57 208.5 1220.07 208.5H1227.25C1227.75 208.5 1228.15 208.902 1228.15 209.398C1228.15 209.894 1227.75 210.295 1227.25 210.295H1220.07C1219.57 210.295 1219.17 209.894 1219.17 209.398Z" fill="#6849FE"/>
<path d="M1205.7 204.909C1206.2 204.909 1206.6 205.311 1206.6 205.807L1206.6 212.989C1206.6 213.485 1206.2 213.886 1205.7 213.886C1205.21 213.886 1204.81 213.485 1204.81 212.989L1204.81 205.807C1204.81 205.311 1205.21 204.909 1205.7 204.909Z" fill="#6849FE"/>
<path d="M1226.83 224.178C1227.18 224.529 1227.18 225.097 1226.83 225.448L1221.76 230.526C1221.41 230.877 1220.84 230.877 1220.49 230.526C1220.14 230.176 1220.14 229.607 1220.49 229.257L1225.56 224.178C1225.91 223.828 1226.48 223.828 1226.83 224.178Z" fill="#6849FE"/>
<path d="M1205.71 222.864C1206.33 222.864 1206.83 223.366 1206.83 223.986C1206.83 224.606 1206.33 225.108 1205.71 225.108C1205.09 225.108 1204.58 224.606 1204.58 223.986C1204.58 223.366 1205.09 222.864 1205.71 222.864Z" fill="#6849FE"/>
<path d="M1205.71 229.597C1206.33 229.597 1206.83 230.099 1206.83 230.719C1206.83 231.339 1206.33 231.841 1205.71 231.841C1205.09 231.841 1204.58 231.339 1204.58 230.719C1204.58 230.099 1205.09 229.597 1205.71 229.597Z" fill="#6849FE"/>
</g>
<defs>
<linearGradient id="paint0_linear_1631_3116" x1="-68.5" y1="-22.6286" x2="1463.91" y2="494.497" gradientUnits="userSpaceOnUse">
<stop stop-color="#856CFF"/>
<stop offset="1" stop-color="#6849FE"/>
</linearGradient>
<clipPath id="clip0_1631_3116">
<rect width="1512" height="352" fill="white"/>
</clipPath>
</defs>
</svg>
