<svg width="1512" height="352" viewBox="0 0 1512 352" fill="none" xmlns="http://www.w3.org/2000/svg">
<g clip-path="url(#clip0_750_2127)">
<rect width="1512" height="352" fill="url(#paint0_linear_750_2127)"/>
<path opacity="0.05" d="M1870.02 484.491L-372.979 27.9016L-357.021 -50.4907L1885.98 406.099L1870.02 484.491ZM-331.625 -18.3124L-323.546 -6.07414L-337.914 -8.99881L-339.172 -2.81891L-324.804 0.10576L-337.024 8.212L-333.54 13.4787L-321.296 5.37731L-317.577 2.91636L-321.063 -2.35052L-315.796 -5.83579L-318.257 -9.55474L-326.359 -21.7979L-331.625 -18.3124ZM-315.796 -5.83579L-312.31 -0.568915L-317.577 2.91636L-307.015 18.8782L-301.748 15.393L-309.849 3.15003L-295.482 6.0747L-294.224 -0.105202L-308.591 -3.02987L-296.349 -11.1314L-299.834 -16.3983L-315.796 -5.83579ZM-260.498 -3.83359L-252.419 8.40465L-266.787 5.47999L-268.045 11.6599L-253.677 14.5846L-265.897 22.6908L-262.413 27.9575L-250.169 19.8561L-246.45 17.3952L-249.935 12.1283L-244.668 8.643L-247.129 4.92406L-255.232 -7.31906L-260.498 -3.83359ZM-244.668 8.643L-241.183 13.9099L-246.45 17.3952L-235.888 33.357L-230.621 29.8717L-238.722 17.6288L-224.355 20.5535L-223.097 14.3736L-237.464 11.4489L-225.221 3.34736L-228.707 -1.91951L-244.668 8.643ZM-189.371 10.6452L-181.292 22.8834L-195.659 19.9588L-196.917 26.1387L-182.55 29.0633L-194.77 37.1696L-191.286 42.4363L-179.042 34.3349L-175.323 31.8739L-178.808 26.6071L-173.541 23.1218L-176.002 19.4029L-184.105 7.15973L-189.371 10.6452ZM-173.541 23.1218L-170.056 28.3887L-175.323 31.8739L-164.76 47.8358L-159.493 44.3505L-167.595 32.1076L-153.228 35.0323L-151.97 28.8524L-166.337 25.9277L-154.094 17.8262L-157.579 12.5593L-173.541 23.1218ZM-118.243 25.124L-110.165 37.3622L-124.532 34.4376L-125.79 40.6175L-111.423 43.5421L-123.643 51.6484L-120.158 56.9151L-107.915 48.8137L-104.196 46.3527L-107.681 41.0859L-102.414 37.6006L-104.875 33.8816L-112.977 21.6385L-118.243 25.124ZM-102.414 37.6006L-98.9287 42.8675L-104.196 46.3527L-93.6331 62.3146L-88.3662 58.8293L-96.4678 46.5864L-82.1003 49.5111L-80.8423 43.3312L-95.2098 40.4065L-82.9669 32.305L-86.4521 27.0381L-102.414 37.6006ZM-47.1162 39.6028L-39.0376 51.841L-53.405 48.9164L-54.663 55.0963L-40.2956 58.0209L-52.5155 66.1272L-49.0312 71.3939L-36.7873 63.2925L-33.0684 60.8315L-36.5536 55.5647L-31.2868 52.0794L-33.7477 48.3604L-41.8502 36.1173L-47.1162 39.6028ZM-31.2868 52.0794L-27.8015 57.3463L-33.0684 60.8315L-22.5059 76.7934L-17.239 73.3081L-25.3405 61.0652L-10.9731 63.9899L-9.71509 57.81L-24.0825 54.8853L-11.8396 46.7837L-15.3249 41.5169L-31.2868 52.0794ZM24.0111 54.0816L32.0897 66.3198L17.7222 63.3952L16.4642 69.5751L30.8317 72.4997L18.6117 80.606L22.096 85.8726L34.3399 77.7713L38.0589 75.3103L34.5736 70.0434L39.8405 66.5582L37.3795 62.8392L29.277 50.5961L24.0111 54.0816ZM39.8405 66.5582L43.3257 71.8251L38.0589 75.3103L48.6214 91.2722L53.8883 87.7869L45.7867 75.544L60.1541 78.4687L61.4121 72.2888L47.0447 69.3641L59.2876 61.2625L55.8023 55.9957L39.8405 66.5582ZM95.1383 68.5604L103.217 80.7986L88.8494 77.874L87.5914 84.0539L101.959 86.9785L89.7389 95.0848L93.2233 100.351L105.467 92.2501L109.186 89.7891L105.701 84.5222L110.968 81.037L108.507 77.318L100.404 65.0749L95.1383 68.5604ZM110.968 81.037L114.453 86.3038L109.186 89.7891L119.749 105.751L125.015 102.266L116.914 90.0228L131.281 92.9475L132.539 86.7676L118.172 83.8429L130.415 75.7413L126.93 70.4745L110.968 81.037ZM166.266 83.0392L174.344 95.2774L159.977 92.3527L158.719 98.5326L173.086 101.457L160.866 109.564L164.35 114.83L176.594 106.729L180.313 104.268L176.828 99.001L182.095 95.5158L179.634 91.7968L171.531 79.5537L166.266 83.0392ZM182.095 95.5158L185.58 100.783L180.313 104.268L190.876 120.23L196.143 116.745L188.041 104.502L202.409 107.426L203.667 101.246L189.299 98.3217L201.542 90.2201L198.057 84.9532L182.095 95.5158ZM237.393 97.518L245.471 109.756L231.104 106.832L229.846 113.011L244.213 115.936L231.993 124.042L235.478 129.309L247.722 121.208L251.441 118.747L247.955 113.48L253.222 109.995L250.761 106.276L242.659 94.0325L237.393 97.518ZM253.222 109.995L256.707 115.261L251.441 118.747L262.003 134.709L267.27 131.223L259.168 118.98L273.536 121.905L274.794 115.725L260.426 112.8L272.669 104.699L269.184 99.432L253.222 109.995ZM308.52 111.997L316.599 124.235L302.231 121.31L300.973 127.49L315.341 130.415L303.121 138.521L306.605 143.788L318.849 135.686L322.568 133.225L319.083 127.959L324.349 124.473L321.888 120.754L313.786 108.511L308.52 111.997ZM324.349 124.473L327.835 129.74L322.568 133.225L333.13 149.187L338.397 145.702L330.296 133.459L344.663 136.384L345.921 130.204L331.554 127.279L343.797 119.178L340.311 113.911L324.349 124.473ZM379.647 126.476L387.726 138.714L373.358 135.789L372.1 141.969L386.468 144.894L374.248 153L377.732 158.267L389.976 150.165L393.695 147.704L390.21 142.437L395.477 138.952L393.016 135.233L384.913 122.99L379.647 126.476ZM395.477 138.952L398.962 144.219L393.695 147.704L404.258 163.666L409.524 160.181L401.423 147.938L415.79 150.863L417.048 144.683L402.681 141.758L414.924 133.657L411.438 128.39L395.477 138.952ZM450.774 140.954L458.853 153.193L444.486 150.268L443.228 156.448L457.595 159.372L445.375 167.479L448.859 172.745L461.103 164.644L464.822 162.183L461.337 156.916L466.604 153.431L464.143 149.712L456.04 137.469L450.774 140.954ZM466.604 153.431L470.089 158.698L464.822 162.183L475.385 178.145L480.652 174.66L472.55 162.417L486.918 165.341L488.176 159.162L473.808 156.237L486.051 148.135L482.566 142.868L466.604 153.431ZM521.902 155.433L529.98 167.671L515.613 164.747L514.355 170.927L528.722 173.851L516.502 181.958L519.987 187.224L532.231 179.123L535.949 176.662L532.464 171.395L537.731 167.91L535.27 164.191L527.168 151.948L521.902 155.433ZM537.731 167.91L541.216 173.177L535.949 176.662L546.512 192.624L551.779 189.138L543.677 176.896L558.045 179.82L559.303 173.64L544.935 170.716L557.178 162.614L553.693 157.347L537.731 167.91ZM593.029 169.912L601.107 182.15L586.74 179.226L585.482 185.405L599.85 188.33L587.63 196.436L591.114 201.703L603.358 193.602L607.077 191.141L603.591 185.874L608.858 182.389L606.397 178.67L598.295 166.426L593.029 169.912ZM608.858 182.389L612.344 187.655L607.077 191.141L617.639 207.103L622.906 203.617L614.805 191.374L629.172 194.299L630.43 188.119L616.063 185.194L628.305 177.093L624.82 171.826L608.858 182.389ZM664.156 184.391L672.235 196.629L657.867 193.704L656.609 199.884L670.977 202.809L658.757 210.915L662.241 216.182L674.485 208.08L678.204 205.619L674.719 200.353L679.986 196.867L677.525 193.148L669.422 180.905L664.156 184.391ZM679.986 196.867L683.471 202.134L678.204 205.619L688.766 221.581L694.033 218.096L685.932 205.853L700.299 208.778L701.557 202.598L687.19 199.673L699.433 191.572L695.947 186.305L679.986 196.867ZM735.283 198.87L743.362 211.108L728.994 208.183L727.737 214.363L742.104 217.288L729.884 225.394L733.368 230.661L745.612 222.559L749.331 220.098L745.846 214.831L751.113 211.346L748.652 207.627L740.549 195.384L735.283 198.87ZM751.113 211.346L754.598 216.613L749.331 220.098L759.894 236.06L765.161 232.575L757.059 220.332L771.426 223.257L772.684 217.077L758.317 214.152L770.56 206.05L767.075 200.784L751.113 211.346ZM806.411 213.348L814.489 225.587L800.122 222.662L798.864 228.842L813.231 231.766L801.011 239.873L804.496 245.139L816.739 237.038L820.458 234.577L816.973 229.31L822.24 225.825L819.779 222.106L811.677 209.863L806.411 213.348ZM822.24 225.825L825.725 231.092L820.458 234.577L831.021 250.539L836.288 247.054L828.186 234.811L842.554 237.735L843.812 231.555L829.444 228.631L841.687 220.529L838.202 215.262L822.24 225.825ZM877.538 227.827L885.616 240.065L871.249 237.141L869.991 243.321L884.358 246.245L872.138 254.351L875.623 259.618L887.867 251.517L891.586 249.056L888.1 243.789L893.367 240.304L890.906 236.585L882.804 224.342L877.538 227.827ZM893.367 240.304L896.852 245.571L891.586 249.056L902.148 265.018L907.415 261.532L899.313 249.29L913.681 252.214L914.939 246.034L900.571 243.11L912.814 235.008L909.329 229.741L893.367 240.304ZM948.665 242.306L956.744 254.544L942.376 251.619L941.118 257.799L955.486 260.724L943.266 268.83L946.75 274.097L958.994 265.996L962.713 263.535L959.228 258.268L964.494 254.782L962.033 251.064L953.931 238.82L948.665 242.306ZM964.494 254.782L967.98 260.049L962.713 263.535L973.275 279.497L978.542 276.011L970.441 263.768L984.808 266.693L986.066 260.513L971.699 257.588L983.942 249.487L980.456 244.22L964.494 254.782ZM1019.79 256.785L1027.87 269.023L1013.5 266.098L1012.25 272.278L1026.61 275.203L1014.39 283.309L1017.88 288.576L1030.12 280.474L1033.84 278.013L1030.35 272.747L1035.62 269.261L1033.16 265.542L1025.06 253.299L1019.79 256.785ZM1035.62 269.261L1039.11 274.528L1033.84 278.013L1044.4 293.975L1049.67 290.49L1041.57 278.247L1055.94 281.172L1057.19 274.992L1042.83 272.067L1055.07 263.966L1051.58 258.699L1035.62 269.261ZM1090.92 271.263L1099 283.502L1084.63 280.577L1083.37 286.757L1097.74 289.682L1085.52 297.788L1089 303.055L1101.25 294.953L1104.97 292.492L1101.48 287.225L1106.75 283.74L1104.29 280.021L1096.19 267.778L1090.92 271.263ZM1106.75 283.74L1110.23 289.007L1104.97 292.492L1115.53 308.454L1120.8 304.969L1112.7 292.726L1127.06 295.651L1128.32 289.471L1113.95 286.546L1126.2 278.444L1122.71 273.178L1106.75 283.74ZM1162.05 285.742L1170.13 297.981L1155.76 295.056L1154.5 301.236L1168.87 304.16L1156.65 312.267L1160.13 317.533L1172.38 309.432L1176.09 306.971L1172.61 301.704L1177.88 298.219L1175.42 294.5L1167.31 282.257L1162.05 285.742ZM1177.88 298.219L1181.36 303.486L1176.09 306.971L1186.66 322.933L1191.92 319.448L1183.82 307.205L1198.19 310.129L1199.45 303.949L1185.08 301.025L1197.32 292.923L1193.84 287.656L1177.88 298.219ZM1233.28 300.243L1241.36 312.481L1226.99 309.556L1225.73 315.736L1240.1 318.661L1227.88 326.767L1231.37 332.034L1243.61 323.933L1247.33 321.472L1243.84 316.205L1249.11 312.719L1246.65 309.001L1238.55 296.757L1233.28 300.243ZM1249.11 312.719L1252.6 317.986L1247.33 321.472L1257.89 337.434L1263.16 333.948L1255.06 321.705L1269.42 324.63L1270.68 318.45L1256.31 315.525L1268.56 307.424L1265.07 302.157L1249.11 312.719ZM1304.52 314.743L1312.59 326.982L1298.23 324.057L1296.97 330.237L1311.34 333.162L1299.12 341.268L1302.6 346.535L1314.84 338.433L1318.56 335.972L1315.08 330.705L1320.34 327.22L1317.88 323.501L1309.78 311.258L1304.52 314.743ZM1320.34 327.22L1323.83 332.487L1318.56 335.972L1329.13 351.934L1334.39 348.449L1326.29 336.206L1340.66 339.131L1341.92 332.951L1327.55 330.026L1339.79 321.924L1336.31 316.658L1320.34 327.22ZM1375.75 329.244L1383.83 341.482L1369.46 338.558L1368.2 344.738L1382.57 347.662L1370.35 355.768L1373.83 361.035L1386.08 352.934L1389.8 350.473L1386.31 345.206L1391.58 341.721L1389.12 338.002L1381.02 325.759L1375.75 329.244ZM1391.58 341.721L1395.06 346.988L1389.8 350.473L1400.36 366.435L1405.63 362.949L1397.53 350.707L1411.89 353.631L1413.15 347.451L1398.78 344.527L1411.03 336.425L1407.54 331.158L1391.58 341.721ZM1446.98 343.745L1455.06 355.983L1440.7 353.058L1439.44 359.238L1453.8 362.163L1441.58 370.269L1445.07 375.536L1457.31 367.434L1461.03 364.973L1457.55 359.707L1462.81 356.221L1460.35 352.502L1452.25 340.259L1446.98 343.745ZM1462.81 356.221L1466.3 361.488L1461.03 364.973L1471.59 380.935L1476.86 377.45L1468.76 365.207L1483.13 368.132L1484.39 361.952L1470.02 359.027L1482.26 350.926L1478.78 345.659L1462.81 356.221ZM1518.22 358.245L1526.3 370.484L1511.93 367.559L1510.67 373.739L1525.04 376.663L1512.82 384.77L1516.3 390.036L1528.55 381.935L1532.27 379.474L1528.78 374.207L1534.05 370.722L1531.59 367.003L1523.48 354.76L1518.22 358.245ZM1534.05 370.722L1537.53 375.989L1532.27 379.474L1542.83 395.436L1548.1 391.951L1539.99 379.708L1554.36 382.632L1555.62 376.453L1541.25 373.528L1553.5 365.426L1550.01 360.159L1534.05 370.722ZM1589.45 372.746L1597.53 384.984L1583.16 382.06L1581.91 388.239L1596.27 391.164L1584.05 399.27L1587.54 404.537L1599.78 396.436L1603.5 393.975L1600.02 388.708L1605.28 385.223L1602.82 381.504L1594.72 369.26L1589.45 372.746ZM1605.28 385.223L1608.77 390.489L1603.5 393.975L1614.06 409.937L1619.33 406.451L1611.23 394.208L1625.6 397.133L1626.85 390.953L1612.49 388.028L1624.73 379.927L1621.24 374.66L1605.28 385.223ZM1660.69 387.247L1668.77 399.485L1654.4 396.56L1653.14 402.74L1667.51 405.665L1655.29 413.771L1658.77 419.038L1671.02 410.936L1674.74 408.475L1671.25 403.208L1676.52 399.723L1674.06 396.004L1665.95 383.761L1660.69 387.247ZM1676.52 399.723L1680 404.99L1674.74 408.475L1685.3 424.437L1690.56 420.952L1682.46 408.709L1696.83 411.634L1698.09 405.454L1683.72 402.529L1695.96 394.428L1692.48 389.161L1676.52 399.723ZM1731.92 401.747L1740 413.985L1725.63 411.061L1724.38 417.241L1738.74 420.165L1726.52 428.272L1730.01 433.538L1742.25 425.437L1745.97 422.976L1742.48 417.709L1747.75 414.224L1745.29 410.505L1737.19 398.262L1731.92 401.747ZM1747.75 414.224L1751.24 419.491L1745.97 422.976L1756.53 438.938L1761.8 435.453L1753.7 423.21L1768.07 426.134L1769.32 419.954L1754.96 417.03L1767.2 408.928L1763.71 403.661L1747.75 414.224ZM1803.16 416.248L1811.23 428.486L1796.87 425.561L1795.61 431.741L1809.98 434.666L1797.76 442.772L1801.24 448.039L1813.49 439.937L1817.2 437.477L1813.72 432.21L1818.99 428.724L1816.52 425.005L1808.42 412.762L1803.16 416.248ZM1818.99 428.724L1822.47 433.991L1817.2 437.477L1827.77 453.438L1833.03 449.953L1824.93 437.71L1839.3 440.635L1840.56 434.455L1826.19 431.53L1838.43 423.429L1834.95 418.162L1818.99 428.724Z" fill="white"/>
<path opacity="0.08" d="M1971.12 -44.5482L-244.97 528.57L-265 451.118L1951.09 -122L1971.12 -44.5482ZM-228.066 468.902L-215.439 476.359L-229.634 480.03L-228.055 486.136L-213.86 482.465L-221.289 495.109L-215.848 498.314L-208.396 485.665L-206.132 481.822L-211.574 478.617L-208.369 473.175L-212.211 470.912L-224.861 463.461L-228.066 468.902ZM-208.369 473.175L-202.927 476.381L-206.132 481.822L-189.641 491.537L-186.435 486.095L-199.085 478.644L-184.89 474.973L-186.469 468.867L-200.664 472.538L-193.213 459.889L-198.654 456.683L-208.369 473.175ZM-157.792 450.728L-145.165 458.185L-159.36 461.856L-157.781 467.962L-143.586 464.291L-151.015 476.935L-145.574 480.14L-138.122 467.491L-135.859 463.648L-141.3 460.443L-138.095 455.001L-141.937 452.738L-154.588 445.287L-157.792 450.728ZM-138.095 455.001L-132.653 458.207L-135.859 463.648L-119.367 473.363L-116.161 467.921L-128.811 460.47L-114.616 456.799L-116.195 450.693L-130.39 454.364L-122.939 441.715L-128.38 438.509L-138.095 455.001ZM-87.5181 432.554L-74.8914 440.011L-89.0865 443.682L-87.5075 449.788L-73.3124 446.117L-80.7407 458.761L-75.3 461.966L-67.848 449.317L-65.5846 445.474L-71.0263 442.269L-67.8209 436.827L-71.6633 434.564L-84.3136 427.113L-87.5181 432.554ZM-67.8209 436.827L-62.3792 440.033L-65.5846 445.474L-49.0928 455.189L-45.8874 449.747L-58.5368 442.296L-44.3417 438.625L-45.9207 432.519L-60.1158 436.19L-52.6648 423.541L-58.1065 420.335L-67.8209 436.827ZM-17.2442 414.38L-4.6175 421.837L-18.8126 425.508L-17.2335 431.614L-3.03845 427.943L-10.4668 440.587L-5.02604 443.792L2.42596 431.143L4.68932 427.3L-0.752404 424.095L2.45302 418.653L-1.38938 416.39L-14.0397 408.939L-17.2442 414.38ZM2.45302 418.653L7.89475 421.859L4.68932 427.3L21.1811 437.015L24.3865 431.573L11.7372 424.122L25.9322 420.451L24.3532 414.345L10.1581 418.016L17.6092 405.367L12.1674 402.161L2.45302 418.653ZM53.0298 396.206L65.6564 403.663L51.4613 407.334L53.0404 413.44L67.2355 409.769L59.8071 422.413L65.2479 425.618L72.6999 412.969L74.9632 409.126L69.5215 405.921L72.7269 400.479L68.8845 398.216L56.2342 390.765L53.0298 396.206ZM72.7269 400.479L78.1687 403.685L74.9632 409.126L91.455 418.841L94.6604 413.399L82.0111 405.948L96.2062 402.277L94.6271 396.171L80.432 399.842L87.8831 387.193L82.4414 383.987L72.7269 400.479ZM123.304 378.032L135.93 385.489L121.735 389.16L123.314 395.266L137.509 391.595L130.081 404.239L135.522 407.444L142.974 394.795L145.237 390.952L139.795 387.747L143.001 382.305L139.158 380.042L126.508 372.591L123.304 378.032ZM143.001 382.305L148.443 385.511L145.237 390.952L161.729 400.667L164.934 395.225L152.285 387.774L166.48 384.103L164.901 377.997L150.706 381.668L158.157 369.019L152.715 365.813L143.001 382.305ZM193.578 359.858L206.204 367.315L192.009 370.986L193.588 377.092L207.783 373.421L200.355 386.065L205.796 389.27L213.248 376.621L215.511 372.778L210.069 369.573L213.275 364.131L209.432 361.868L196.782 354.417L193.578 359.858ZM213.275 364.131L218.717 367.337L215.511 372.778L232.003 382.493L235.208 377.051L222.559 369.6L236.754 365.929L235.175 359.823L220.98 363.494L228.431 350.845L222.989 347.639L213.275 364.131ZM263.852 341.684L276.478 349.141L262.283 352.812L263.862 358.918L278.057 355.247L270.629 367.891L276.07 371.096L283.522 358.447L285.785 354.604L280.343 351.399L283.549 345.957L279.706 343.694L267.056 336.243L263.852 341.684ZM283.549 345.957L288.99 349.163L285.785 354.604L302.277 364.319L305.482 358.877L292.833 351.426L307.028 347.755L305.449 341.649L291.254 345.32L298.705 332.671L293.263 329.465L283.549 345.957ZM334.125 323.51L346.752 330.967L332.557 334.638L334.136 340.744L348.331 337.073L340.903 349.717L346.344 352.922L353.796 340.273L356.059 336.43L350.617 333.225L353.823 327.783L349.98 325.52L337.33 318.069L334.125 323.51ZM353.823 327.783L359.264 330.989L356.059 336.43L372.551 346.145L375.756 340.703L363.107 333.252L377.302 329.581L375.723 323.475L361.528 327.146L368.979 314.497L363.537 311.291L353.823 327.783ZM404.399 305.336L417.026 312.793L402.831 316.464L404.41 322.57L418.605 318.899L411.177 331.543L416.618 334.748L424.07 322.099L426.333 318.256L420.891 315.051L424.097 309.609L420.254 307.346L407.604 299.895L404.399 305.336ZM424.097 309.609L429.538 312.815L426.333 318.256L442.825 327.971L446.03 322.529L433.381 315.078L447.576 311.407L445.997 305.301L431.802 308.972L439.253 296.323L433.811 293.117L424.097 309.609ZM474.673 287.162L487.3 294.619L473.105 298.29L474.684 304.396L488.879 300.725L481.451 313.369L486.891 316.574L494.343 303.925L496.607 300.082L491.165 296.877L494.371 291.435L490.528 289.172L477.878 281.721L474.673 287.162ZM494.371 291.435L499.812 294.641L496.607 300.082L513.099 309.797L516.304 304.355L503.655 296.904L517.85 293.233L516.271 287.127L502.076 290.798L509.527 278.149L504.085 274.943L494.371 291.435ZM544.947 268.988L557.574 276.445L543.379 280.116L544.958 286.222L559.153 282.551L551.725 295.195L557.165 298.4L564.617 285.751L566.881 281.908L561.439 278.703L564.644 273.261L560.802 270.998L548.152 263.547L544.947 268.988ZM564.644 273.261L570.086 276.467L566.881 281.908L583.372 291.623L586.578 286.181L573.929 278.73L588.124 275.059L586.545 268.953L572.35 272.624L579.801 259.975L574.359 256.769L564.644 273.261ZM615.221 250.814L627.848 258.271L613.653 261.942L615.232 268.048L629.427 264.377L621.999 277.021L627.439 280.226L634.891 267.577L637.155 263.734L631.713 260.529L634.918 255.087L631.076 252.824L618.426 245.373L615.221 250.814ZM634.918 255.087L640.36 258.293L637.155 263.734L653.646 273.449L656.852 268.007L644.202 260.556L658.398 256.885L656.819 250.779L642.623 254.45L650.074 241.801L644.633 238.595L634.918 255.087ZM685.495 232.64L698.122 240.097L683.927 243.768L685.506 249.874L699.701 246.203L692.272 258.847L697.713 262.052L705.165 249.403L707.429 245.56L701.987 242.355L705.192 236.913L701.35 234.65L688.7 227.199L685.495 232.64ZM705.192 236.913L710.634 240.119L707.429 245.56L723.92 255.275L727.126 249.833L714.476 242.382L728.671 238.711L727.092 232.605L712.897 236.276L720.348 223.627L714.907 220.421L705.192 236.913ZM755.769 214.466L768.396 221.923L754.201 225.594L755.78 231.7L769.975 228.029L762.546 240.673L767.987 243.878L775.439 231.229L777.702 227.386L772.261 224.181L775.466 218.739L771.624 216.476L758.973 209.025L755.769 214.466ZM775.466 218.739L780.908 221.945L777.702 227.386L794.194 237.101L797.4 231.659L784.75 224.208L798.945 220.537L797.366 214.431L783.171 218.102L790.622 205.453L785.181 202.247L775.466 218.739ZM826.043 196.292L838.67 203.749L824.475 207.42L826.054 213.526L840.249 209.855L832.82 222.499L838.261 225.704L845.713 213.055L847.976 209.212L842.535 206.007L845.74 200.565L841.898 198.302L829.247 190.851L826.043 196.292ZM845.74 200.565L851.182 203.771L847.976 209.212L864.468 218.927L867.674 213.485L855.024 206.034L869.219 202.363L867.64 196.257L853.445 199.928L860.896 187.279L855.455 184.073L845.74 200.565ZM896.317 178.118L908.944 185.575L894.748 189.246L896.327 195.352L910.523 191.681L903.094 204.325L908.535 207.53L915.987 194.881L918.25 191.038L912.809 187.833L916.014 182.391L912.172 180.128L899.521 172.677L896.317 178.118ZM916.014 182.391L921.456 185.597L918.25 191.038L934.742 200.753L937.948 195.311L925.298 187.86L939.493 184.189L937.914 178.083L923.719 181.754L931.17 169.105L925.728 165.899L916.014 182.391ZM966.591 159.944L979.217 167.401L965.022 171.072L966.601 177.178L980.797 173.507L973.368 186.151L978.809 189.356L986.261 176.707L988.524 172.864L983.083 169.659L986.288 164.217L982.446 161.954L969.795 154.503L966.591 159.944ZM986.288 164.217L991.73 167.423L988.524 172.864L1005.02 182.579L1008.22 177.137L995.572 169.686L1009.77 166.015L1008.19 159.909L993.993 163.58L1001.44 150.931L996.002 147.725L986.288 164.217ZM1036.86 141.77L1049.49 149.227L1035.3 152.898L1036.88 159.004L1051.07 155.333L1043.64 167.977L1049.08 171.182L1056.53 158.533L1058.8 154.69L1053.36 151.485L1056.56 146.043L1052.72 143.78L1040.07 136.329L1036.86 141.77ZM1056.56 146.043L1062 149.249L1058.8 154.69L1075.29 164.405L1078.5 158.963L1065.85 151.512L1080.04 147.841L1078.46 141.735L1064.27 145.406L1071.72 132.757L1066.28 129.551L1056.56 146.043ZM1107.14 123.596L1119.77 131.053L1105.57 134.724L1107.15 140.83L1121.34 137.159L1113.92 149.803L1119.36 153.008L1126.81 140.359L1129.07 136.516L1123.63 133.311L1126.84 127.869L1122.99 125.606L1110.34 118.155L1107.14 123.596ZM1126.84 127.869L1132.28 131.075L1129.07 136.516L1145.56 146.231L1148.77 140.789L1136.12 133.338L1150.32 129.667L1148.74 123.561L1134.54 127.232L1141.99 114.583L1136.55 111.377L1126.84 127.869ZM1177.41 105.422L1190.04 112.879L1175.84 116.55L1177.42 122.656L1191.62 118.985L1184.19 131.629L1189.63 134.834L1197.08 122.185L1199.35 118.342L1193.9 115.137L1197.11 109.695L1193.27 107.432L1180.62 99.981L1177.41 105.422ZM1197.11 109.695L1202.55 112.901L1199.35 118.342L1215.84 128.057L1219.04 122.615L1206.39 115.164L1220.59 111.493L1219.01 105.387L1204.81 109.058L1212.27 96.4088L1206.82 93.2034L1197.11 109.695ZM1247.69 87.2485L1260.31 94.7054L1246.12 98.3765L1247.7 104.482L1261.89 100.811L1254.46 113.455L1259.9 116.66L1267.36 104.011L1269.62 100.168L1264.18 96.9629L1267.38 91.5211L1263.54 89.2578L1250.89 81.807L1247.69 87.2485ZM1267.38 91.5211L1272.83 94.7266L1269.62 100.168L1286.11 109.883L1289.32 104.441L1276.67 96.9899L1290.86 93.3188L1289.28 87.2131L1275.09 90.8842L1282.54 78.2348L1277.1 75.0294L1267.38 91.5211ZM1318.07 69.0471L1330.69 76.504L1316.5 80.1751L1318.08 86.2808L1332.27 82.6098L1324.84 95.2532L1330.28 98.4589L1337.74 85.8093L1340 81.9669L1334.56 78.7615L1337.76 73.3198L1333.92 71.0564L1321.27 63.6056L1318.07 69.0471ZM1337.76 73.3198L1343.21 76.5252L1340 81.9669L1356.49 91.6813L1359.7 86.2396L1347.05 78.7885L1361.24 75.1175L1359.66 69.0117L1345.47 72.6828L1352.92 60.0334L1347.48 56.828L1337.76 73.3198ZM1388.45 50.8457L1401.07 58.3026L1386.88 61.9737L1388.46 68.0795L1402.65 64.4084L1395.22 77.0519L1400.66 80.2575L1408.12 67.6079L1410.38 63.7655L1404.94 60.5601L1408.14 55.1184L1404.3 52.855L1391.65 45.4042L1388.45 50.8457ZM1408.14 55.1184L1413.59 58.3238L1410.38 63.7655L1426.87 73.4799L1430.08 68.0382L1417.43 60.5872L1431.62 56.9161L1430.04 50.8103L1415.85 54.4814L1423.3 41.832L1417.86 38.6266L1408.14 55.1184ZM1458.83 32.6443L1471.45 40.1012L1457.26 43.7723L1458.84 49.8781L1473.03 46.207L1465.6 58.8505L1471.04 62.0561L1478.5 49.4065L1480.76 45.5641L1475.32 42.3587L1478.52 36.917L1474.68 34.6536L1462.03 27.2028L1458.83 32.6443ZM1478.52 36.917L1483.96 40.1224L1480.76 45.5641L1497.25 55.2785L1500.46 49.8368L1487.81 42.3858L1502 38.7147L1500.42 32.6089L1486.23 36.28L1493.68 23.6306L1488.24 20.4252L1478.52 36.917ZM1529.21 14.4429L1541.83 21.8998L1527.64 25.5709L1529.22 31.6767L1543.41 28.0056L1535.98 40.6491L1541.42 43.8548L1548.88 31.2052L1551.14 27.3627L1545.7 24.1573L1548.9 18.7156L1545.06 16.4522L1532.41 9.00143L1529.21 14.4429ZM1548.9 18.7156L1554.34 21.921L1551.14 27.3627L1567.63 37.0772L1570.84 31.6354L1558.19 24.1844L1572.38 20.5133L1570.8 14.4075L1556.61 18.0786L1564.06 5.42926L1558.62 2.22384L1548.9 18.7156ZM1599.59 -3.75848L1612.21 3.69845L1598.02 7.36953L1599.6 13.4753L1613.79 9.80421L1606.36 22.4477L1611.8 25.6534L1619.26 13.0038L1621.52 9.16136L1616.08 5.95594L1619.28 0.514213L1615.44 -1.74914L1602.79 -9.19996L1599.59 -3.75848ZM1619.28 0.514213L1624.72 3.71964L1621.52 9.16136L1638.01 18.8758L1641.22 13.4341L1628.57 5.98299L1642.76 2.31191L1641.18 -3.79385L1626.99 -0.122767L1634.44 -12.7721L1629 -15.9776L1619.28 0.514213ZM1669.97 -21.9599L1682.59 -14.5029L1668.4 -10.8319L1669.98 -4.72609L1684.17 -8.39718L1676.74 4.24631L1682.18 7.45198L1689.64 -5.19762L1691.9 -9.04002L1686.46 -12.2455L1689.66 -17.6872L1685.82 -19.9505L1673.17 -27.4013L1669.97 -21.9599ZM1689.66 -17.6872L1695.1 -14.4817L1691.9 -9.04002L1708.39 0.674389L1711.6 -4.76733L1698.95 -12.2184L1713.14 -15.8895L1711.56 -21.9952L1697.37 -18.3242L1704.82 -30.9735L1699.38 -34.1789L1689.66 -17.6872ZM1740.35 -40.1612L1752.97 -32.7043L1738.78 -29.0332L1740.36 -22.9275L1754.55 -26.5986L1747.12 -13.9551L1752.56 -10.7494L1760.02 -23.399L1762.28 -27.2414L1756.84 -30.4468L1760.04 -35.8886L1756.2 -38.1519L1743.55 -45.6027L1740.35 -40.1612ZM1760.04 -35.8886L1765.48 -32.6831L1762.28 -27.2414L1778.77 -17.527L1781.98 -22.9687L1769.33 -30.4198L1783.52 -34.0909L1781.94 -40.1966L1767.75 -36.5255L1775.2 -49.1749L1769.76 -52.3803L1760.04 -35.8886ZM1810.73 -58.3626L1823.35 -50.9057L1809.16 -47.2346L1810.74 -41.1289L1824.93 -44.7999L1817.5 -32.1565L1822.94 -28.9508L1830.4 -41.6004L1832.66 -45.4428L1827.22 -48.6482L1830.42 -54.0899L1826.58 -56.3533L1813.93 -63.8041L1810.73 -58.3626ZM1830.42 -54.0899L1835.86 -50.8845L1832.66 -45.4428L1849.15 -35.7284L1852.36 -41.1701L1839.71 -48.6212L1853.9 -52.2922L1852.32 -58.398L1838.13 -54.7269L1845.58 -67.3763L1840.14 -70.5817L1830.42 -54.0899ZM1881.1 -76.564L1893.73 -69.1071L1879.54 -65.436L1881.12 -59.3302L1895.31 -63.0013L1887.88 -50.3578L1893.32 -47.1522L1900.77 -59.8018L1903.04 -63.6442L1897.6 -66.8496L1900.8 -72.2913L1896.96 -74.5547L1884.31 -82.0055L1881.1 -76.564ZM1900.8 -72.2913L1906.24 -69.0859L1903.04 -63.6442L1919.53 -53.9298L1922.74 -59.3715L1910.09 -66.8225L1924.28 -70.4936L1922.7 -76.5994L1908.51 -72.9283L1915.96 -85.5777L1910.52 -88.7831L1900.8 -72.2913Z" fill="white"/>
<path opacity="0.08" d="M1323.24 -668.388L278.267 1368.17L207.09 1331.64L1252.07 -704.91L1323.24 -668.388ZM244.928 1315.87L258.892 1311.4L252.199 1324.44L257.81 1327.32L264.504 1314.28L269.011 1328.23L275.023 1326.3L270.526 1312.32L269.16 1308.08L263.148 1310.01L261.214 1304L256.969 1305.36L242.993 1309.86L244.928 1315.87ZM261.214 1304L267.226 1302.06L269.16 1308.08L287.38 1302.21L285.446 1296.2L271.471 1300.7L278.164 1287.65L272.553 1284.77L265.86 1297.82L261.363 1283.84L255.351 1285.78L261.214 1304ZM278.065 1251.29L292.029 1246.82L285.336 1259.86L290.947 1262.74L297.64 1249.7L302.148 1263.65L308.16 1261.72L303.663 1247.74L302.297 1243.5L296.285 1245.43L294.351 1239.42L290.106 1240.78L276.13 1245.28L278.065 1251.29ZM294.351 1239.42L300.363 1237.48L302.297 1243.5L320.517 1237.63L318.583 1231.62L304.608 1236.12L311.301 1223.07L305.69 1220.19L298.997 1233.24L294.5 1219.26L288.488 1221.2L294.351 1239.42ZM311.202 1186.71L325.166 1182.24L318.473 1195.28L324.084 1198.16L330.777 1185.12L335.285 1199.07L341.297 1197.14L336.8 1183.16L335.434 1178.91L329.422 1180.85L327.488 1174.84L323.242 1176.2L309.267 1180.7L311.202 1186.71ZM327.488 1174.84L333.5 1172.9L335.434 1178.91L353.654 1173.05L351.72 1167.04L337.745 1171.54L344.438 1158.49L338.827 1155.61L332.134 1168.66L327.637 1154.68L321.625 1156.62L327.488 1174.84ZM344.339 1122.13L358.303 1117.66L351.61 1130.7L357.221 1133.58L363.914 1120.53L368.422 1134.49L374.434 1132.56L369.937 1118.58L368.571 1114.33L362.559 1116.27L360.625 1110.26L356.379 1111.62L342.404 1116.12L344.339 1122.13ZM360.625 1110.26L366.637 1108.32L368.571 1114.33L386.791 1108.47L384.857 1102.46L370.882 1106.96L377.575 1093.91L371.964 1091.03L365.271 1104.08L360.774 1090.1L354.762 1092.04L360.625 1110.26ZM377.476 1057.55L391.44 1053.07L384.747 1066.12L390.358 1069L397.051 1055.95L401.559 1069.91L407.571 1067.97L403.074 1054L401.708 1049.75L395.696 1051.69L393.762 1045.68L389.516 1047.04L375.541 1051.54L377.476 1057.55ZM393.762 1045.68L399.774 1043.74L401.708 1049.75L419.928 1043.89L417.994 1037.88L404.019 1042.38L410.712 1029.33L405.101 1026.45L398.408 1039.5L393.911 1025.52L387.899 1027.46L393.762 1045.68ZM410.613 992.97L424.577 988.494L417.884 1001.54L423.495 1004.42L430.188 991.373L434.696 1005.33L440.708 1003.39L436.211 989.418L434.845 985.173L428.833 987.107L426.898 981.095L422.653 982.461L408.678 986.959L410.613 992.97ZM426.898 981.095L432.911 979.161L434.845 985.173L453.065 979.31L451.131 973.298L437.156 977.795L443.849 964.75L438.238 961.871L431.545 974.916L427.048 960.941L421.036 962.875L426.898 981.095ZM443.75 928.39L457.714 923.914L451.021 936.959L456.632 939.838L463.325 926.793L467.833 940.747L473.845 938.813L469.348 924.837L467.982 920.592L461.97 922.527L460.035 916.515L455.79 917.881L441.815 922.378L443.75 928.39ZM460.035 916.515L466.047 914.58L467.982 920.592L486.202 914.729L484.268 908.717L470.293 913.214L476.986 900.169L471.375 897.29L464.681 910.335L460.185 896.36L454.173 898.295L460.035 916.515ZM476.887 863.809L490.851 859.333L484.158 872.378L489.769 875.257L496.462 862.212L500.97 876.166L506.981 874.233L502.485 860.257L501.119 856.011L495.107 857.946L493.172 851.934L488.927 853.3L474.952 857.798L476.887 863.809ZM493.172 851.934L499.184 849.999L501.119 856.011L519.339 850.149L517.405 844.137L503.43 848.633L510.123 835.588L504.512 832.709L497.818 845.754L493.322 831.779L487.31 833.714L493.172 851.934ZM510.024 799.228L523.988 794.752L517.295 807.797L522.906 810.676L529.599 797.631L534.107 811.586L540.118 809.652L535.622 795.676L534.256 791.431L528.244 793.365L526.309 787.353L522.064 788.719L508.089 793.217L510.024 799.228ZM526.309 787.353L532.321 785.419L534.256 791.431L552.476 785.568L550.542 779.556L536.567 784.053L543.26 771.008L537.649 768.129L530.955 781.174L526.459 767.199L520.446 769.133L526.309 787.353ZM543.161 734.648L557.125 730.172L550.432 743.217L556.043 746.096L562.736 733.051L567.244 747.005L573.255 745.071L568.759 731.095L567.393 726.85L561.381 728.785L559.446 722.773L555.201 724.139L541.226 728.636L543.161 734.648ZM559.446 722.773L565.458 720.838L567.393 726.85L585.613 720.987L583.679 714.975L569.703 719.472L576.397 706.427L570.786 703.548L564.092 716.593L559.595 702.618L553.583 704.553L559.446 722.773ZM576.298 670.067L590.262 665.591L583.569 678.636L589.18 681.515L595.873 668.47L600.381 682.424L606.392 680.491L601.896 666.515L600.53 662.27L594.518 664.204L592.583 658.192L588.338 659.558L574.363 664.056L576.298 670.067ZM592.583 658.192L598.595 656.257L600.53 662.27L618.75 656.407L616.816 650.395L602.84 654.891L609.534 641.846L603.923 638.967L597.229 652.012L592.732 638.037L586.72 639.972L592.583 658.192ZM609.435 605.486L623.399 601.01L616.705 614.055L622.317 616.934L629.01 603.889L633.518 617.844L639.529 615.91L635.033 601.934L633.667 597.689L627.655 599.623L625.72 593.611L621.475 594.977L607.5 599.475L609.435 605.486ZM625.72 593.611L631.732 591.677L633.667 597.689L651.887 591.826L649.952 585.814L635.977 590.311L642.671 577.266L637.06 574.387L630.366 587.432L625.869 573.457L619.857 575.391L625.72 593.611ZM642.572 540.906L656.536 536.43L649.842 549.475L655.454 552.354L662.147 539.309L666.655 553.263L672.666 551.329L668.17 537.353L666.804 533.108L660.792 535.043L658.857 529.031L654.612 530.397L640.637 534.895L642.572 540.906ZM658.857 529.031L664.869 527.096L666.804 533.108L685.024 527.245L683.089 521.233L669.114 525.73L675.808 512.685L670.197 509.806L663.503 522.851L659.006 508.876L652.994 510.811L658.857 529.031ZM675.709 476.325L689.673 471.849L682.979 484.894L688.59 487.773L695.284 474.728L699.792 488.682L705.803 486.749L701.307 472.773L699.941 468.528L693.929 470.462L691.994 464.45L687.749 465.816L673.774 470.314L675.709 476.325ZM691.994 464.45L698.006 462.516L699.941 468.528L718.161 462.665L716.226 456.653L702.251 461.15L708.945 448.104L703.334 445.225L696.64 458.27L692.143 444.295L686.131 446.23L691.994 464.45ZM708.846 411.744L722.81 407.268L716.116 420.313L721.727 423.192L728.421 410.147L732.929 424.102L738.94 422.168L734.444 408.192L733.078 403.947L727.066 405.881L725.131 399.869L720.886 401.235L706.911 405.733L708.846 411.744ZM725.131 399.869L731.143 397.935L733.078 403.947L751.298 398.084L749.363 392.072L735.388 396.569L742.082 383.524L736.471 380.645L729.777 393.69L725.28 379.715L719.268 381.649L725.131 399.869ZM741.983 347.164L755.947 342.688L749.253 355.733L754.864 358.612L761.558 345.567L766.066 359.521L772.077 357.587L767.581 343.611L766.215 339.366L760.203 341.301L758.268 335.289L754.023 336.655L740.048 341.153L741.983 347.164ZM758.268 335.289L764.28 333.354L766.215 339.366L784.435 333.503L782.5 327.491L768.525 331.988L775.219 318.943L769.608 316.064L762.914 329.109L758.417 315.134L752.405 317.069L758.268 335.289ZM775.119 282.583L789.084 278.107L782.39 291.152L788.001 294.031L794.695 280.986L799.203 294.94L805.214 293.007L800.718 279.031L799.352 274.786L793.34 276.72L791.405 270.708L787.16 272.074L773.184 276.572L775.119 282.583ZM791.405 270.708L797.417 268.774L799.352 274.786L817.572 268.923L815.637 262.911L801.662 267.408L808.356 254.362L802.745 251.483L796.051 264.528L791.554 250.553L785.542 252.488L791.405 270.708ZM808.256 218.002L822.221 213.526L815.527 226.571L821.138 229.451L827.832 216.405L832.34 230.36L838.351 228.426L833.855 214.45L832.489 210.205L826.477 212.139L824.542 206.127L820.297 207.493L806.321 211.991L808.256 218.002ZM824.542 206.127L830.554 204.193L832.489 210.205L850.709 204.342L848.774 198.33L834.799 202.827L841.493 189.782L835.882 186.903L829.188 199.948L824.691 185.973L818.679 187.907L824.542 206.127ZM841.393 153.422L855.358 148.946L848.664 161.991L854.275 164.87L860.969 151.825L865.476 165.779L871.488 163.845L866.992 149.869L865.626 145.624L859.614 147.559L857.679 141.547L853.434 142.913L839.458 147.411L841.393 153.422ZM857.679 141.547L863.691 139.612L865.626 145.624L883.846 139.761L881.911 133.749L867.936 138.246L874.63 125.201L869.019 122.322L862.325 135.367L857.828 121.392L851.816 123.327L857.679 141.547ZM874.53 88.8411L888.495 84.365L881.801 97.4101L887.412 100.289L894.106 87.2441L898.613 101.198L904.625 99.2647L900.129 85.2887L898.763 81.0436L892.751 82.9782L890.816 76.9662L886.571 78.3321L872.595 82.8299L874.53 88.8411ZM890.816 76.9662L896.828 75.0316L898.763 81.0436L916.983 75.1807L915.048 69.1687L901.073 73.6656L907.767 60.6205L902.156 57.7414L895.462 70.7865L890.965 56.8114L884.953 58.746L890.816 76.9662ZM907.667 24.2604L921.632 19.7844L914.938 32.8294L920.549 35.7086L927.243 22.6635L931.75 36.6177L937.762 34.684L933.266 20.7081L931.9 16.463L925.888 18.3975L923.953 12.3855L919.708 13.7515L905.732 18.2493L907.667 24.2604ZM923.953 12.3855L929.965 10.4509L931.9 16.463L950.12 10.6001L948.185 4.58803L934.21 9.08494L940.904 -3.96013L935.293 -6.83924L928.599 6.20583L924.102 -7.76923L918.09 -5.83467L923.953 12.3855ZM940.804 -40.3202L954.769 -44.7963L948.075 -31.7512L953.686 -28.8721L960.38 -41.9172L964.887 -27.963L970.899 -29.8966L966.403 -43.8726L965.037 -48.1177L959.024 -46.1831L957.09 -52.1952L952.845 -50.8292L938.869 -46.3314L940.804 -40.3202ZM957.09 -52.1952L963.102 -54.1297L965.037 -48.1177L983.257 -53.9806L981.322 -59.9926L967.347 -55.4957L974.041 -68.5408L968.43 -71.4199L961.736 -58.3748L957.239 -72.3499L951.227 -70.4153L957.09 -52.1952ZM973.991 -104.998L987.956 -109.474L981.262 -96.4292L986.873 -93.5501L993.567 -106.595L998.074 -92.6409L1004.09 -94.5746L999.589 -108.551L998.223 -112.796L992.211 -110.861L990.277 -116.873L986.032 -115.507L972.056 -111.009L973.991 -104.998ZM990.277 -116.873L996.289 -118.808L998.223 -112.796L1016.44 -118.659L1014.51 -124.671L1000.53 -120.174L1007.23 -133.219L1001.62 -136.098L994.923 -123.053L990.426 -137.028L984.414 -135.093L990.277 -116.873ZM1007.18 -169.676L1021.14 -174.152L1014.45 -161.107L1020.06 -158.228L1026.75 -171.273L1031.26 -157.319L1037.27 -159.253L1032.78 -173.229L1031.41 -177.474L1025.4 -175.539L1023.46 -181.551L1019.22 -180.185L1005.24 -175.687L1007.18 -169.676ZM1023.46 -181.551L1029.48 -183.486L1031.41 -177.474L1049.63 -183.337L1047.7 -189.349L1033.72 -184.852L1040.41 -197.897L1034.8 -200.776L1028.11 -187.731L1023.61 -201.706L1017.6 -199.771L1023.46 -181.551ZM1040.36 -234.354L1054.33 -238.83L1047.64 -225.785L1053.25 -222.906L1059.94 -235.951L1064.45 -221.997L1070.46 -223.931L1065.96 -237.906L1064.6 -242.152L1058.59 -240.217L1056.65 -246.229L1052.41 -244.863L1038.43 -240.365L1040.36 -234.354ZM1056.65 -246.229L1062.66 -248.164L1064.6 -242.152L1082.82 -248.014L1080.88 -254.027L1066.91 -249.53L1073.6 -262.575L1067.99 -265.454L1061.3 -252.409L1056.8 -266.384L1050.79 -264.449L1056.65 -246.229ZM1073.55 -299.032L1087.52 -303.508L1080.82 -290.463L1086.43 -287.584L1093.13 -300.629L1097.63 -286.675L1103.65 -288.609L1099.15 -302.584L1097.78 -306.83L1091.77 -304.895L1089.84 -310.907L1085.59 -309.541L1071.62 -305.043L1073.55 -299.032ZM1089.84 -310.907L1095.85 -312.842L1097.78 -306.83L1116 -312.692L1114.07 -318.705L1100.09 -314.208L1106.79 -327.253L1101.18 -330.132L1094.48 -317.087L1089.99 -331.062L1083.97 -329.127L1089.84 -310.907ZM1106.74 -363.71L1120.7 -368.186L1114.01 -355.141L1119.62 -352.262L1126.31 -365.307L1130.82 -351.353L1136.83 -353.286L1132.34 -367.262L1130.97 -371.508L1124.96 -369.573L1123.02 -375.585L1118.78 -374.219L1104.8 -369.721L1106.74 -363.71ZM1123.02 -375.585L1129.04 -377.52L1130.97 -371.508L1149.19 -377.37L1147.26 -383.382L1133.28 -378.886L1139.98 -391.931L1134.36 -394.81L1127.67 -381.765L1123.17 -395.74L1117.16 -393.805L1123.02 -375.585ZM1139.93 -428.388L1153.89 -432.864L1147.2 -419.819L1152.81 -416.94L1159.5 -429.985L1164.01 -416.031L1170.02 -417.964L1165.52 -431.94L1164.16 -436.185L1158.15 -434.251L1156.21 -440.263L1151.97 -438.897L1137.99 -434.399L1139.93 -428.388ZM1156.21 -440.263L1162.22 -442.198L1164.16 -436.185L1182.38 -442.048L1180.44 -448.06L1166.47 -443.564L1173.16 -456.609L1167.55 -459.488L1160.86 -446.443L1156.36 -460.418L1150.35 -458.483L1156.21 -440.263ZM1173.11 -493.066L1187.08 -497.542L1180.38 -484.497L1185.99 -481.618L1192.69 -494.663L1197.2 -480.709L1203.21 -482.642L1198.71 -496.618L1197.34 -500.863L1191.33 -498.929L1189.4 -504.941L1185.15 -503.575L1171.18 -499.077L1173.11 -493.066ZM1189.4 -504.941L1195.41 -506.875L1197.34 -500.863L1215.56 -506.726L1213.63 -512.738L1199.66 -508.241L1206.35 -521.287L1200.74 -524.166L1194.04 -511.121L1189.55 -525.096L1183.54 -523.161L1189.4 -504.941ZM1206.3 -557.744L1220.26 -562.22L1213.57 -549.175L1219.18 -546.296L1225.87 -559.341L1230.38 -545.387L1236.39 -547.32L1231.9 -561.296L1230.53 -565.541L1224.52 -563.607L1222.59 -569.619L1218.34 -568.253L1204.36 -563.755L1206.3 -557.744ZM1222.59 -569.619L1228.6 -571.553L1230.53 -565.541L1248.75 -571.404L1246.82 -577.416L1232.84 -572.919L1239.54 -585.965L1233.92 -588.844L1227.23 -575.799L1222.73 -589.774L1216.72 -587.839L1222.59 -569.619ZM1239.49 -622.422L1253.45 -626.898L1246.76 -613.853L1252.37 -610.974L1259.06 -624.019L1263.57 -610.065L1269.58 -611.998L1265.08 -625.974L1263.72 -630.219L1257.71 -628.285L1255.77 -634.297L1251.53 -632.931L1237.55 -628.433L1239.49 -622.422ZM1255.77 -634.297L1261.78 -636.231L1263.72 -630.219L1281.94 -636.082L1280 -642.094L1266.03 -637.597L1272.72 -650.642L1267.11 -653.522L1260.42 -640.477L1255.92 -654.452L1249.91 -652.517L1255.77 -634.297Z" fill="white"/>
<path d="M1496.3 203.166L1489.6 192.255L1453.35 170.289C1451.88 169.404 1450.09 169.239 1448.49 169.84L1408.82 184.796L1400.24 194.296C1398.68 196.029 1399.08 198.758 1401.07 199.966L1407.09 203.608L1405.51 220.67C1405.32 222.796 1406.35 224.842 1408.18 225.954L1440.68 245.647C1442.63 246.827 1445.01 247.047 1447.15 246.244L1482.71 232.836C1484.7 232.085 1486.1 230.255 1486.29 228.13L1487.87 211.067L1494.45 208.588C1496.64 207.766 1497.52 205.156 1496.3 203.166Z" fill="white" stroke="white" stroke-width="8.0543" stroke-miterlimit="10"/>
<path d="M1447.4 208.161L1408.82 184.788L1405.51 220.671C1405.31 222.797 1406.35 224.843 1408.17 225.954L1440.67 245.647C1442.63 246.827 1445.01 247.047 1447.15 246.245L1482.7 232.836C1484.7 232.086 1486.09 230.256 1486.29 228.13L1489.6 192.247L1447.4 208.161Z" fill="#6250F4"/>
<path d="M1447.4 208.161L1408.83 184.788L1448.49 169.832C1450.09 169.231 1451.88 169.396 1453.35 170.281L1489.61 192.247L1447.4 208.161Z" fill="#4E43CF"/>
<path d="M1434.48 220.21L1401.06 199.965C1399.06 198.757 1398.67 196.029 1400.23 194.295L1408.81 184.795L1447.39 208.168L1436.82 219.87C1436.22 220.532 1435.23 220.675 1434.47 220.21L1434.48 220.21Z" fill="#AEA8F9"/>
<path d="M1457.89 222.371L1494.45 208.588C1496.63 207.766 1497.52 205.156 1496.3 203.165L1489.6 192.254L1447.4 208.168L1455.65 221.609C1456.12 222.369 1457.06 222.69 1457.9 222.372L1457.89 222.371Z" fill="#AEA8F9"/>
<path d="M274.133 166.9L326.672 171.747C332.059 172.243 336.03 177.022 335.533 182.408L329.629 246.416C329.413 248.758 327.333 250.486 324.991 250.27L266.937 244.916C261.55 244.419 257.579 239.64 258.075 234.254L263.471 175.762C263.968 170.375 268.746 166.404 274.133 166.9Z" fill="#6250F4" stroke="white" stroke-width="8.0543" stroke-miterlimit="10"/>
<path d="M274.133 166.9L326.672 171.747C332.059 172.243 336.03 177.022 335.533 182.408L329.629 246.416C329.413 248.758 327.333 250.486 324.991 250.27L266.937 244.916C261.55 244.419 257.579 239.64 258.075 234.254L263.471 175.762C263.968 170.375 268.746 166.404 274.133 166.9Z" fill="#6250F4"/>
<path d="M271.424 225.508L331.048 231.007L329.715 245.461L270.09 239.961C266.102 239.593 263.166 236.061 263.534 232.072C263.902 228.084 267.434 225.148 271.423 225.516L271.424 225.508Z" fill="#AEA8F9"/>
<path d="M285.298 167.915L276.546 167.114L274.314 191.242L283.48 187.59L291.827 192.862L294.05 168.725L285.298 167.915Z" fill="#4E43CF"/>
<path d="M180.78 184.708L202.541 201.103L156.288 207.596L157.979 219.642L204.232 213.148L187.827 234.901L197.546 242.227L226.436 203.889L188.106 174.989L180.78 184.708Z" fill="white" stroke="white" stroke-width="8.0543" stroke-miterlimit="10"/>
<path d="M216.727 196.571L188.106 174.989L180.78 184.708L202.541 201.103L156.288 207.596L157.979 219.642L204.232 213.148L187.827 234.901L197.546 242.227L226.436 203.889L216.727 196.571Z" fill="#6250F4"/>
<path d="M1237.65 166.099L1188.53 171.765C1183.27 172.372 1179.49 177.129 1180.1 182.391L1186.94 241.676C1187.54 246.938 1192.3 250.711 1197.56 250.104L1246.68 244.438C1251.95 243.831 1255.72 239.074 1255.11 233.812L1248.27 174.527C1247.67 169.265 1242.91 165.492 1237.65 166.099Z" fill="#6250F4" stroke="white" stroke-width="8.0543" stroke-miterlimit="10"/>
<path d="M1237.65 166.099L1188.53 171.765C1183.27 172.372 1179.49 177.129 1180.1 182.391L1186.94 241.676C1187.54 246.938 1192.3 250.711 1197.56 250.104L1246.68 244.438C1251.95 243.831 1255.72 239.074 1255.11 233.812L1248.27 174.527C1247.67 169.265 1242.91 165.492 1237.65 166.099Z" fill="#6250F4"/>
<path d="M1234.42 177.135L1194.2 181.775C1192.67 181.951 1191.58 183.33 1191.75 184.856L1192.85 194.333C1193.02 195.858 1194.4 196.952 1195.93 196.776L1236.15 192.137C1237.68 191.961 1238.77 190.581 1238.59 189.056L1237.5 179.579C1237.32 178.053 1235.94 176.959 1234.42 177.135Z" fill="#AEA8F9"/>
<path d="M1207.29 218.619C1211.84 218.619 1215.54 214.925 1215.54 210.369C1215.54 205.813 1211.84 202.12 1207.29 202.12C1202.73 202.12 1199.04 205.813 1199.04 210.369C1199.04 214.925 1202.73 218.619 1207.29 218.619Z" fill="#AEA8F9"/>
<path d="M1228.17 216.214C1232.73 216.214 1236.42 212.52 1236.42 207.964C1236.42 203.408 1232.73 199.714 1228.17 199.714C1223.62 199.714 1219.92 203.408 1219.92 207.964C1219.92 212.52 1223.62 216.214 1228.17 216.214Z" fill="#AEA8F9"/>
<path d="M1209.61 238.848C1214.17 238.848 1217.86 235.155 1217.86 230.599C1217.86 226.043 1214.17 222.349 1209.61 222.349C1205.06 222.349 1201.37 226.043 1201.37 230.599C1201.37 235.155 1205.06 238.848 1209.61 238.848Z" fill="#AEA8F9"/>
<path d="M1230.51 236.434C1235.07 236.434 1238.76 232.74 1238.76 228.184C1238.76 223.628 1235.07 219.935 1230.51 219.935C1225.96 219.935 1222.26 223.628 1222.26 228.184C1222.26 232.74 1225.96 236.434 1230.51 236.434Z" fill="#AEA8F9"/>
<path d="M1231.64 228.059L1233.62 225.562C1233.89 225.212 1233.83 224.713 1233.48 224.438C1233.13 224.163 1232.63 224.222 1232.36 224.571L1230.38 227.069L1227.88 225.087C1227.53 224.813 1227.03 224.871 1226.76 225.221C1226.48 225.57 1226.54 226.07 1226.89 226.344L1229.39 228.326L1227.41 230.823C1227.13 231.173 1227.19 231.672 1227.54 231.947C1227.89 232.222 1228.39 232.163 1228.66 231.814L1230.64 229.316L1233.14 231.298C1233.49 231.572 1233.99 231.514 1234.27 231.164C1234.54 230.815 1234.48 230.315 1234.13 230.041L1231.64 228.059Z" fill="#6250F4"/>
<path d="M1232.05 206.719L1224.12 207.633C1223.69 207.683 1223.37 208.08 1223.42 208.518C1223.47 208.956 1223.87 209.271 1224.31 209.22L1232.23 208.306C1232.67 208.256 1232.98 207.859 1232.93 207.421C1232.88 206.983 1232.48 206.668 1232.05 206.719Z" fill="#6250F4"/>
<path d="M1211.16 209.121L1208 209.487L1207.63 206.324C1207.58 205.883 1207.18 205.567 1206.74 205.617C1206.3 205.666 1205.98 206.066 1206.03 206.507L1206.4 209.671L1203.23 210.037C1202.79 210.087 1202.48 210.486 1202.53 210.928C1202.58 211.369 1202.98 211.685 1203.42 211.635L1206.58 211.269L1206.95 214.432C1207 214.873 1207.4 215.19 1207.84 215.14C1208.28 215.09 1208.6 214.69 1208.55 214.249L1208.18 211.086L1211.34 210.719C1211.78 210.669 1212.1 210.27 1212.05 209.829C1212 209.388 1211.6 209.071 1211.16 209.121Z" fill="#6250F4"/>
<path d="M1213.49 229.358L1205.56 230.272C1205.13 230.322 1204.81 230.719 1204.86 231.157C1204.91 231.596 1205.31 231.91 1205.75 231.859L1213.67 230.946C1214.11 230.895 1214.42 230.499 1214.37 230.06C1214.32 229.622 1213.92 229.307 1213.49 229.358Z" fill="#6250F4"/>
<path d="M1210 234.91C1210.57 234.91 1211.03 234.448 1211.03 233.877C1211.03 233.307 1210.57 232.845 1210 232.845C1209.43 232.845 1208.97 233.307 1208.97 233.877C1208.97 234.448 1209.43 234.91 1210 234.91Z" fill="#6250F4"/>
<path d="M1209.24 228.342C1209.81 228.342 1210.28 227.88 1210.28 227.31C1210.28 226.74 1209.81 226.278 1209.24 226.278C1208.67 226.278 1208.21 226.74 1208.21 227.31C1208.21 227.88 1208.67 228.342 1209.24 228.342Z" fill="#6250F4"/>
<path d="M126.267 183.772C124.785 170.902 113.147 161.668 100.269 163.158C92.8265 164.019 86.6156 168.283 82.9718 174.21L45.9307 178.482L26.4711 175.519C23.9386 175.132 21.7333 177.259 22.0262 179.8L25.67 211.372C25.9629 213.913 28.5989 215.481 30.9764 214.533L49.2471 207.211L86.2883 202.938C87.9078 204.575 89.7512 205.962 91.7669 207.064L97.1336 242.426C98.2707 249.455 104.878 254.227 111.907 253.099C118.936 251.97 123.708 245.355 122.58 238.325L117.498 204.842C123.648 199.966 127.223 192.145 126.258 183.772H126.267Z" fill="#6250F4" stroke="white" stroke-width="8.26104" stroke-miterlimit="10"/>
<path d="M97.1437 242.434L91.4583 204.954C90.3212 197.925 95.1021 191.309 102.131 190.18C109.161 189.043 115.776 193.824 116.905 200.853L122.59 238.334C123.727 245.363 118.946 251.979 111.917 253.107C104.888 254.244 98.2721 249.464 97.1437 242.434Z" fill="#4E43CF"/>
<path d="M88.9691 173.519L45.9336 178.483L49.2473 207.21L92.2829 202.246L88.9691 173.519Z" fill="#4E43CF"/>
<path d="M49.2471 207.219L30.9764 214.541C28.5989 215.497 25.9629 213.921 25.67 211.38L22.0262 179.809C21.7333 177.267 23.9386 175.14 26.4711 175.527L45.9307 178.491L49.2471 207.219Z" fill="#6250F4"/>
<path d="M102.957 209.924C115.911 209.924 126.413 199.422 126.413 186.467C126.413 173.513 115.911 163.011 102.957 163.011C90.0018 163.011 79.5 173.513 79.5 186.467C79.5 199.422 90.0018 209.924 102.957 209.924Z" fill="#6250F4"/>
<path d="M110.802 176.712L93.1139 178.752C92.1309 178.866 91.4259 179.754 91.5393 180.737C91.6527 181.721 92.5415 182.426 93.5246 182.312L111.213 180.272C112.196 180.158 112.901 179.27 112.788 178.286C112.674 177.303 111.785 176.598 110.802 176.712Z" fill="#AEA8F9"/>
<path d="M111.603 183.672L93.9147 185.713C92.9317 185.826 92.2267 186.715 92.3401 187.698C92.4535 188.681 93.3423 189.386 94.3254 189.273L112.014 187.232C112.997 187.119 113.702 186.23 113.588 185.247C113.475 184.264 112.586 183.559 111.603 183.672Z" fill="#AEA8F9"/>
<path d="M112.402 190.624L94.7136 192.664C93.7305 192.778 93.0255 193.667 93.1389 194.65C93.2523 195.633 94.1411 196.338 95.1242 196.224L112.812 194.184C113.796 194.07 114.501 193.182 114.387 192.199C114.274 191.216 113.385 190.511 112.402 190.624Z" fill="#AEA8F9"/>
<path d="M1360.13 225.989C1365.71 220.531 1369.05 213.652 1369.05 206.184C1369.05 188.406 1350.23 174 1327.02 174C1303.81 174 1285 188.406 1285 206.184C1285 223.962 1303.81 238.368 1327.02 238.368C1334.1 238.368 1340.77 237.022 1346.63 234.651L1359.24 240.142C1362.02 241.353 1364.89 238.629 1363.82 235.786L1360.13 225.989Z" fill="#6250F4" stroke="white" stroke-width="8.0543" stroke-miterlimit="10"/>
<path d="M1360.13 225.989C1365.71 220.531 1369.05 213.652 1369.05 206.184C1369.05 188.406 1350.23 174 1327.02 174C1303.81 174 1285 188.406 1285 206.184C1285 223.962 1303.81 238.368 1327.02 238.368C1334.1 238.368 1340.77 237.022 1346.63 234.651L1359.24 240.142C1362.02 241.353 1364.89 238.629 1363.82 235.786L1360.13 225.989Z" fill="#6250F4"/>
<path d="M1313.08 209.43C1314.87 209.43 1316.33 207.977 1316.33 206.184C1316.33 204.391 1314.87 202.938 1313.08 202.938C1311.29 202.938 1309.83 204.391 1309.83 206.184C1309.83 207.977 1311.29 209.43 1313.08 209.43Z" fill="#AEA8F9"/>
<path d="M1327.02 209.43C1328.82 209.43 1330.27 207.977 1330.27 206.184C1330.27 204.391 1328.82 202.938 1327.02 202.938C1325.23 202.938 1323.78 204.391 1323.78 206.184C1323.78 207.977 1325.23 209.43 1327.02 209.43Z" fill="#AEA8F9"/>
<path d="M1340.97 209.43C1342.76 209.43 1344.21 207.977 1344.21 206.184C1344.21 204.391 1342.76 202.938 1340.97 202.938C1339.18 202.938 1337.72 204.391 1337.72 206.184C1337.72 207.977 1339.18 209.43 1340.97 209.43Z" fill="#AEA8F9"/>
</g>
<defs>
<linearGradient id="paint0_linear_750_2127" x1="-68.5" y1="-22.6286" x2="1463.91" y2="494.497" gradientUnits="userSpaceOnUse">
<stop stop-color="#856CFF"/>
<stop offset="1" stop-color="#6849FE"/>
</linearGradient>
<clipPath id="clip0_750_2127">
<rect width="1512" height="352" fill="white"/>
</clipPath>
</defs>
</svg>
