<svg width="170" height="200" viewBox="0 0 170 200" fill="none" xmlns="http://www.w3.org/2000/svg">
<g clip-path="url(#clip0_1302_21572)">
<circle cx="70" cy="100" r="100" fill="#F3F3F5"/>
<path d="M70.1878 58.1819C74.8437 58.1819 79.3088 60.0314 82.601 63.3236C85.8931 66.6158 87.7427 71.0809 87.7427 75.7367C87.7427 80.3926 85.8931 84.8577 82.601 88.1499C79.3088 91.4421 74.8437 93.2916 70.1878 93.2916C65.532 93.2916 61.0668 91.4421 57.7747 88.1499C54.4825 84.8577 52.633 80.3926 52.633 75.7367C52.633 71.0809 54.4825 66.6158 57.7747 63.3236C61.0668 60.0314 65.532 58.1819 70.1878 58.1819ZM37.5859 122.132C37.5859 111.749 52.1815 103.323 70.1878 103.323C88.1941 103.323 102.79 111.749 102.79 122.132V130.909H37.5859V122.132Z" fill="#6849FE"/>
<path d="M35.0784 70.7212C37.8871 70.7212 40.4953 71.4735 42.7523 72.8278C42 80.0002 44.1066 87.1224 48.4201 92.6898C45.9122 97.5049 40.8966 100.815 35.0784 100.815C31.0877 100.815 27.2604 99.2299 24.4385 96.4081C21.6167 93.5862 20.0313 89.7589 20.0313 85.7682C20.0313 81.7775 21.6167 77.9502 24.4385 75.1284C27.2604 72.3065 31.0877 70.7212 35.0784 70.7212ZM10 130.909V123.386C10 116.414 19.4796 110.546 32.3197 108.84C29.3605 112.251 27.5549 116.966 27.5549 122.132V130.909H10Z" fill="#D0C7FF"/>
<path d="M105.299 70.7212C109.289 70.7212 113.117 72.3065 115.939 75.1284C118.76 77.9502 120.346 81.7775 120.346 85.7682C120.346 89.7589 118.76 93.5862 115.939 96.4081C113.117 99.2299 109.289 100.815 105.299 100.815C99.4805 100.815 94.4649 97.5049 91.957 92.6898C96.3282 87.0433 98.3578 79.9308 97.6247 72.8278C99.8818 71.4735 102.49 70.7212 105.299 70.7212ZM130.377 130.909H112.822V122.132C112.822 116.966 111.017 112.251 108.057 108.84C120.897 110.546 130.377 116.414 130.377 123.386V130.909Z" fill="#D0C7FF"/>
</g>
<defs>
<clipPath id="clip0_1302_21572">
<rect x="-30" width="200" height="200" rx="25" fill="white"/>
</clipPath>
</defs>
</svg>
