<svg width="200" height="200" viewBox="0 0 200 200" fill="none" xmlns="http://www.w3.org/2000/svg">
<g clip-path="url(#clip0_1302_21551)">
<circle cx="100" cy="100" r="100" fill="#F3F3F5"/>
<mask id="mask0_1302_21551" style="mask-type:alpha" maskUnits="userSpaceOnUse" x="50" y="41" width="100" height="119">
<path d="M104.432 41.9692C101.611 40.7155 98.3912 40.7155 95.5705 41.9692L55.2291 59.8986C52.6028 61.0659 50.9102 63.6704 50.9102 66.5445V94.5455C50.9102 124.818 71.8556 153.127 100.001 160C128.147 153.127 149.092 124.818 149.092 94.5455V66.5445C149.092 63.6704 147.399 61.0659 144.773 59.8986L104.432 41.9692ZM115.82 117.63C116.186 119.195 114.491 120.431 113.113 119.603L100.001 111.727L86.9336 119.602C85.5579 120.431 83.8617 119.199 84.2238 117.635L87.6738 102.727L76.1531 92.7795C74.9358 91.7284 75.5822 89.7307 77.1845 89.5919L92.4192 88.2727L98.328 74.2448C98.9524 72.7624 101.052 72.7613 101.678 74.2429L107.583 88.2182L122.83 89.5385C124.431 89.6771 125.078 91.6711 123.865 92.7235L112.328 102.727L115.82 117.63Z" fill="#6849FE"/>
</mask>
<g mask="url(#mask0_1302_21551)">
<rect x="100" y="40" width="49.0909" height="120" fill="#6849FE"/>
<rect x="50.9102" y="40" width="49.0909" height="120" fill="#5E42E5"/>
</g>
</g>
<defs>
<clipPath id="clip0_1302_21551">
<rect width="200" height="200" rx="25" fill="white"/>
</clipPath>
</defs>
</svg>
