<svg width="71" height="57" viewBox="0 0 71 57" fill="none" xmlns="http://www.w3.org/2000/svg">
<g clip-path="url(#clip0_1443_8557)">
<path d="M30.3222 30.5774L28.2449 28.5L30.3222 26.4226L33.2379 23.507L35.3152 21.4297L30.3222 16.4367L13.8855 0L6.81522 7.07033L23.2155 23.507H0V33.493H23.2155L6.81522 49.9297L13.8855 57L30.3222 40.5633L35.3152 35.5703L33.2379 33.493L30.3222 30.5774Z" fill="#6849FE"/>
<path d="M70.5937 23.507H47.3782L63.8149 7.07033L56.7446 0L40.3079 16.4367L35.3149 21.4297L37.3923 23.507L40.3079 26.4226L42.3853 28.5L40.3079 30.5774L37.3923 33.493L35.3149 35.5703L40.3079 40.5633L56.7446 57L63.8149 49.9297L47.3782 33.493H70.5937V23.507Z" fill="#6849FE"/>
</g>
<defs>
<clipPath id="clip0_1443_8557">
<rect width="71" height="57" fill="white"/>
</clipPath>
</defs>
</svg>
