<svg width="120" height="120" viewBox="0 0 120 120" fill="none" xmlns="http://www.w3.org/2000/svg">
<path d="M38 73H77.957C77.0937 87.0602 63.1166 98.2393 46 98.2393C40.0631 98.2393 34.5046 96.8924 29.7393 94.5488L21.7617 98.8154C20.5727 99.451 19.2029 98.3441 19.5781 97.0508L21.8818 89.1133C16.9741 84.435 14.0001 78.317 14 71.6201C14 59.2163 24.1981 48.7929 38 45.8379V73Z" fill="#C2C3C9"/>
<path d="M64 20C87.196 20 106 35.67 106 55C106 63.8053 102.097 71.8498 95.6553 78.001L98.6787 88.4375C99.1712 90.1381 97.3732 91.5929 95.8125 90.7568L85.3418 85.1475C79.0872 88.2288 71.7921 90 64 90C40.804 90 22 74.33 22 55C22 35.67 40.804 20 64 20ZM50 52C48.3431 52 47 53.3431 47 55C47 56.6569 48.3431 58 50 58C51.6569 58 53 56.6569 53 55C53 53.3431 51.6569 52 50 52ZM64 52C62.3431 52 61 53.3431 61 55C61 56.6569 62.3431 58 64 58C65.6569 58 67 56.6569 67 55C67 53.3431 65.6569 52 64 52ZM78 52C76.3431 52 75 53.3431 75 55C75 56.6569 76.3431 58 78 58C79.6569 58 81 56.6569 81 55C81 53.3431 79.6569 52 78 52Z" fill="#D8D9DF"/>
</svg>
